%TF.GenerationSoftware,KiCad,Pcbnew,(6.0.6)*%
%TF.CreationDate,2022-11-12T19:18:43+09:00*%
%TF.ProjectId,WB,57422e6b-6963-4616-945f-706362585858,rev?*%
%TF.SameCoordinates,PX8ecbe88PY65dbed8*%
%TF.FileFunction,Copper,L2,Bot*%
%TF.FilePolarity,Positive*%
%FSLAX46Y46*%
G04 Gerber Fmt 4.6, Leading zero omitted, Abs format (unit mm)*
G04 Created by KiCad (PCBNEW (6.0.6)) date 2022-11-12 19:18:43*
%MOMM*%
%LPD*%
G01*
G04 APERTURE LIST*
%TA.AperFunction,ComponentPad*%
%ADD10R,1.700000X1.700000*%
%TD*%
%TA.AperFunction,ComponentPad*%
%ADD11O,1.700000X1.700000*%
%TD*%
%TA.AperFunction,ComponentPad*%
%ADD12R,1.860000X1.860000*%
%TD*%
%TA.AperFunction,ComponentPad*%
%ADD13C,1.860000*%
%TD*%
%TA.AperFunction,ComponentPad*%
%ADD14O,2.000000X2.000000*%
%TD*%
%TA.AperFunction,ComponentPad*%
%ADD15O,2.000000X1.050000*%
%TD*%
%TA.AperFunction,ComponentPad*%
%ADD16R,2.000000X1.050000*%
%TD*%
%TA.AperFunction,ComponentPad*%
%ADD17C,2.000000*%
%TD*%
%TA.AperFunction,ComponentPad*%
%ADD18R,3.000000X3.000000*%
%TD*%
%TA.AperFunction,ComponentPad*%
%ADD19C,3.000000*%
%TD*%
%TA.AperFunction,ComponentPad*%
%ADD20R,1.160000X1.160000*%
%TD*%
%TA.AperFunction,ComponentPad*%
%ADD21C,1.160000*%
%TD*%
%TA.AperFunction,ComponentPad*%
%ADD22R,1.600000X1.600000*%
%TD*%
%TA.AperFunction,ComponentPad*%
%ADD23C,1.600000*%
%TD*%
%TA.AperFunction,ViaPad*%
%ADD24C,0.800000*%
%TD*%
%TA.AperFunction,Conductor*%
%ADD25C,1.000000*%
%TD*%
G04 APERTURE END LIST*
D10*
%TO.P,D5,1,K*%
%TO.N,Net-(D5-Pad1)*%
X84836000Y38640400D03*
D11*
%TO.P,D5,2,A*%
%TO.N,+24V*%
X84836000Y36100400D03*
%TD*%
D10*
%TO.P,D4,1,K*%
%TO.N,Net-(D4-Pad1)*%
X84836000Y46922800D03*
D11*
%TO.P,D4,2,A*%
%TO.N,+24V*%
X84836000Y44382800D03*
%TD*%
D10*
%TO.P,D3,1,K*%
%TO.N,Net-(D3-Pad1)*%
X84836000Y55205200D03*
D11*
%TO.P,D3,2,A*%
%TO.N,+24V*%
X84836000Y52665200D03*
%TD*%
D10*
%TO.P,D1,1,K*%
%TO.N,Net-(D1-Pad1)*%
X84836000Y71770000D03*
D11*
%TO.P,D1,2,A*%
%TO.N,+24V*%
X84836000Y69230000D03*
%TD*%
D10*
%TO.P,D2,1,K*%
%TO.N,Net-(D2-Pad1)*%
X84836000Y63487600D03*
D11*
%TO.P,D2,2,A*%
%TO.N,+24V*%
X84836000Y60947600D03*
%TD*%
D12*
%TO.P,Q2,1,G*%
%TO.N,Net-(Q2-Pad1)*%
X68700500Y68980500D03*
D13*
%TO.P,Q2,2,D*%
%TO.N,Net-(D2-Pad1)*%
X71240500Y68980500D03*
%TO.P,Q2,3,S*%
%TO.N,GND*%
X73780500Y68980500D03*
%TD*%
D14*
%TO.P,A2,1,GND*%
%TO.N,GND*%
X9789000Y51308000D03*
%TO.P,A2,2,VDD*%
%TO.N,VCC*%
X9789000Y48768000D03*
%TO.P,A2,3,1B*%
%TO.N,Net-(A2-Pad3)*%
X9789000Y46228000D03*
%TO.P,A2,4,1A*%
%TO.N,Net-(A2-Pad4)*%
X9789000Y43688000D03*
%TO.P,A2,5,2A*%
%TO.N,Net-(A2-Pad5)*%
X9789000Y41148000D03*
%TO.P,A2,6,2B*%
%TO.N,Net-(A2-Pad6)*%
X9789000Y38608000D03*
%TO.P,A2,7,GND*%
%TO.N,GND*%
X9789000Y36068000D03*
%TO.P,A2,8,VMOT*%
%TO.N,+24V*%
X9789000Y33528000D03*
%TO.P,A2,9,~{ENABLE}*%
%TO.N,GND*%
X22489000Y33528000D03*
%TO.P,A2,10,MS1*%
%TO.N,unconnected-(A2-Pad10)*%
X22489000Y36068000D03*
%TO.P,A2,11,MS2*%
%TO.N,unconnected-(A2-Pad11)*%
X22489000Y38608000D03*
%TO.P,A2,12,MS3*%
%TO.N,unconnected-(A2-Pad12)*%
X22489000Y41148000D03*
%TO.P,A2,13,~{RESET}*%
%TO.N,Net-(A2-Pad13)*%
X22489000Y43688000D03*
%TO.P,A2,14,~{SLEEP}*%
X22489000Y46228000D03*
%TO.P,A2,15,STEP*%
%TO.N,Net-(A2-Pad15)*%
X22489000Y48768000D03*
%TO.P,A2,16,DIR*%
%TO.N,Net-(A2-Pad16)*%
X22489000Y51308000D03*
%TD*%
D15*
%TO.P,Q8,3,B*%
%TO.N,Net-(Q8-Pad3)*%
X30475000Y26162000D03*
%TO.P,Q8,2,C*%
%TO.N,Net-(A3-Pad16)*%
X30475000Y27432000D03*
D16*
%TO.P,Q8,1,E*%
%TO.N,GND*%
X30475000Y28702000D03*
%TD*%
D14*
%TO.P,R7,1*%
%TO.N,Net-(A3-Pad16)*%
X30353000Y22352000D03*
%TO.P,R7,2*%
%TO.N,VCC*%
X35433000Y22352000D03*
%TD*%
%TO.P,R3,1*%
%TO.N,D2*%
X40767000Y17135000D03*
%TO.P,R3,2*%
%TO.N,VCC*%
X40767000Y12055000D03*
%TD*%
%TO.P,R8,2*%
%TO.N,Net-(Q8-Pad3)*%
X35433000Y32258000D03*
%TO.P,R8,1*%
%TO.N,Net-(A2-Pad16)*%
X30353000Y32258000D03*
%TD*%
D10*
%TO.P,SW5,1,1*%
%TO.N,D4*%
X51562000Y6858000D03*
D11*
%TO.P,SW5,2,2*%
%TO.N,GND*%
X51562000Y4318000D03*
%TD*%
D10*
%TO.P,SW1,1,1*%
%TO.N,D0*%
X26924000Y6858000D03*
D11*
%TO.P,SW1,2,2*%
%TO.N,GND*%
X26924000Y4318000D03*
%TD*%
D14*
%TO.P,J2,1,Pin_1*%
%TO.N,Net-(A1-Pad3)*%
X3556000Y53330000D03*
%TO.P,J2,2,Pin_2*%
%TO.N,Net-(A1-Pad4)*%
X3556000Y50790000D03*
%TO.P,J2,3,Pin_3*%
%TO.N,Net-(A1-Pad5)*%
X3556000Y48250000D03*
%TO.P,J2,4,Pin_4*%
%TO.N,Net-(A1-Pad6)*%
X3556000Y45710000D03*
%TD*%
%TO.P,R1,2*%
%TO.N,VCC*%
X27178000Y17145000D03*
%TO.P,R1,1*%
%TO.N,D0*%
X27178000Y12065000D03*
%TD*%
D17*
%TO.P,R5,1*%
%TO.N,D4*%
X53975000Y12065000D03*
D14*
%TO.P,R5,2*%
%TO.N,VCC*%
X53975000Y17145000D03*
%TD*%
%TO.P,U1,1,~{PL}*%
%TO.N,Net-(A4-Pad8)*%
X60183000Y32913000D03*
%TO.P,U1,2,CP*%
%TO.N,Net-(A4-Pad7)*%
X57643000Y32913000D03*
%TO.P,U1,3,D4*%
%TO.N,D4*%
X55103000Y32913000D03*
%TO.P,U1,4,D5*%
%TO.N,D5*%
X52563000Y32913000D03*
%TO.P,U1,5,D6*%
%TO.N,unconnected-(U1-Pad5)*%
X50023000Y32913000D03*
%TO.P,U1,6,D7*%
%TO.N,unconnected-(U1-Pad6)*%
X47483000Y32913000D03*
%TO.P,U1,7,~{Q7}*%
%TO.N,unconnected-(U1-Pad7)*%
X44943000Y32913000D03*
%TO.P,U1,8,GND*%
%TO.N,GND*%
X42403000Y32913000D03*
%TO.P,U1,9,Q7*%
%TO.N,Net-(A4-Pad6)*%
X42403000Y25293000D03*
%TO.P,U1,10,DS*%
%TO.N,GND*%
X44943000Y25293000D03*
%TO.P,U1,11,D0*%
%TO.N,D0*%
X47483000Y25293000D03*
%TO.P,U1,12,D1*%
%TO.N,D1*%
X50023000Y25293000D03*
%TO.P,U1,13,D2*%
%TO.N,D2*%
X52563000Y25293000D03*
%TO.P,U1,14,D3*%
%TO.N,D3*%
X55103000Y25293000D03*
%TO.P,U1,15,~{CE}*%
%TO.N,GND*%
X57643000Y25293000D03*
%TO.P,U1,16,VCC*%
%TO.N,VCC*%
X60183000Y25293000D03*
%TD*%
D12*
%TO.P,Q1,1,G*%
%TO.N,Net-(Q1-Pad1)*%
X68954500Y79627000D03*
D13*
%TO.P,Q1,2,D*%
%TO.N,Net-(D1-Pad1)*%
X71494500Y79627000D03*
%TO.P,Q1,3,S*%
%TO.N,GND*%
X74034500Y79627000D03*
%TD*%
D12*
%TO.P,Q3,1,G*%
%TO.N,Net-(Q3-Pad1)*%
X68700500Y57699000D03*
D13*
%TO.P,Q3,2,D*%
%TO.N,Net-(D3-Pad1)*%
X71240500Y57699000D03*
%TO.P,Q3,3,S*%
%TO.N,GND*%
X73780500Y57699000D03*
%TD*%
D14*
%TO.P,U2,1,QB*%
%TO.N,Net-(Q2-Pad1)*%
X52177000Y81011000D03*
%TO.P,U2,2,QC*%
%TO.N,Net-(Q3-Pad1)*%
X52177000Y78471000D03*
%TO.P,U2,3,QD*%
%TO.N,Net-(Q4-Pad1)*%
X52177000Y75931000D03*
%TO.P,U2,4,QE*%
%TO.N,Net-(Q5-Pad1)*%
X52177000Y73391000D03*
%TO.P,U2,5,QF*%
%TO.N,Net-(Q6-Pad1)*%
X52177000Y70851000D03*
%TO.P,U2,6,QG*%
%TO.N,Net-(U2-Pad6)*%
X52177000Y68311000D03*
%TO.P,U2,7,QH*%
%TO.N,Net-(U2-Pad7)*%
X52177000Y65771000D03*
%TO.P,U2,8,GND*%
%TO.N,GND*%
X52177000Y63231000D03*
%TO.P,U2,9,QH'*%
%TO.N,unconnected-(U2-Pad9)*%
X59797000Y63231000D03*
%TO.P,U2,10,~{SRCLR}*%
%TO.N,VCC*%
X59797000Y65771000D03*
%TO.P,U2,11,SRCLK*%
%TO.N,Net-(A4-Pad10)*%
X59797000Y68311000D03*
%TO.P,U2,12,RCLK*%
%TO.N,Net-(A4-Pad9)*%
X59797000Y70851000D03*
%TO.P,U2,13,~{OE}*%
%TO.N,GND*%
X59797000Y73391000D03*
%TO.P,U2,14,SER*%
%TO.N,Net-(A4-Pad11)*%
X59797000Y75931000D03*
%TO.P,U2,15,QA*%
%TO.N,Net-(Q1-Pad1)*%
X59797000Y78471000D03*
%TO.P,U2,16,VCC*%
%TO.N,VCC*%
X59797000Y81011000D03*
%TD*%
%TO.P,A1,16,DIR*%
%TO.N,Net-(A1-Pad16)*%
X22489000Y81153000D03*
%TO.P,A1,15,STEP*%
%TO.N,Net-(A1-Pad15)*%
X22489000Y78613000D03*
%TO.P,A1,14,~{SLEEP}*%
%TO.N,Net-(A1-Pad13)*%
X22489000Y76073000D03*
%TO.P,A1,13,~{RESET}*%
X22489000Y73533000D03*
%TO.P,A1,12,MS3*%
%TO.N,unconnected-(A1-Pad12)*%
X22489000Y70993000D03*
%TO.P,A1,11,MS2*%
%TO.N,unconnected-(A1-Pad11)*%
X22489000Y68453000D03*
%TO.P,A1,10,MS1*%
%TO.N,unconnected-(A1-Pad10)*%
X22489000Y65913000D03*
%TO.P,A1,9,~{ENABLE}*%
%TO.N,Net-(A1-Pad9)*%
X22489000Y63373000D03*
%TO.P,A1,8,VMOT*%
%TO.N,+24V*%
X9789000Y63373000D03*
%TO.P,A1,7,GND*%
%TO.N,GND*%
X9789000Y65913000D03*
%TO.P,A1,6,2B*%
%TO.N,Net-(A1-Pad6)*%
X9789000Y68453000D03*
%TO.P,A1,5,2A*%
%TO.N,Net-(A1-Pad5)*%
X9789000Y70993000D03*
%TO.P,A1,4,1A*%
%TO.N,Net-(A1-Pad4)*%
X9789000Y73533000D03*
%TO.P,A1,3,1B*%
%TO.N,Net-(A1-Pad3)*%
X9789000Y76073000D03*
%TO.P,A1,2,VDD*%
%TO.N,VCC*%
X9789000Y78613000D03*
%TO.P,A1,1,GND*%
%TO.N,GND*%
X9789000Y81153000D03*
%TD*%
D10*
%TO.P,SW2,1,1*%
%TO.N,D1*%
X33083500Y6858000D03*
D11*
%TO.P,SW2,2,2*%
%TO.N,GND*%
X33083500Y4318000D03*
%TD*%
D10*
%TO.P,J5,1,Pin_1*%
%TO.N,Net-(J5-Pad1)*%
X84836000Y30358000D03*
D11*
%TO.P,J5,2,Pin_2*%
%TO.N,+24V*%
X84836000Y27818000D03*
%TD*%
D12*
%TO.P,Q4,1,G*%
%TO.N,Net-(Q4-Pad1)*%
X68700500Y46417500D03*
D13*
%TO.P,Q4,2,D*%
%TO.N,Net-(D4-Pad1)*%
X71240500Y46417500D03*
%TO.P,Q4,3,S*%
%TO.N,GND*%
X73780500Y46417500D03*
%TD*%
D12*
%TO.P,Q5,1,G*%
%TO.N,Net-(Q5-Pad1)*%
X68700500Y35136000D03*
D13*
%TO.P,Q5,2,D*%
%TO.N,Net-(D5-Pad1)*%
X71240500Y35136000D03*
%TO.P,Q5,3,S*%
%TO.N,GND*%
X73780500Y35136000D03*
%TD*%
D14*
%TO.P,R2,1*%
%TO.N,D1*%
X34036000Y12065000D03*
%TO.P,R2,2*%
%TO.N,VCC*%
X34036000Y17145000D03*
%TD*%
%TO.P,J3,1,Pin_1*%
%TO.N,Net-(A2-Pad3)*%
X3556000Y36185000D03*
%TO.P,J3,2,Pin_2*%
%TO.N,Net-(A2-Pad4)*%
X3556000Y33645000D03*
%TO.P,J3,3,Pin_3*%
%TO.N,Net-(A2-Pad5)*%
X3556000Y31105000D03*
%TO.P,J3,4,Pin_4*%
%TO.N,Net-(A2-Pad6)*%
X3556000Y28565000D03*
%TD*%
D10*
%TO.P,J7,1,Pin_1*%
%TO.N,Net-(J6-Pad1)*%
X70040500Y6858000D03*
D11*
%TO.P,J7,2,Pin_2*%
%TO.N,Net-(J6-Pad2)*%
X70040500Y4318000D03*
%TD*%
D14*
%TO.P,A3,16,DIR*%
%TO.N,Net-(A3-Pad16)*%
X22489000Y21463000D03*
%TO.P,A3,15,STEP*%
%TO.N,Net-(A2-Pad15)*%
X22489000Y18923000D03*
%TO.P,A3,14,~{SLEEP}*%
%TO.N,Net-(A3-Pad13)*%
X22489000Y16383000D03*
%TO.P,A3,13,~{RESET}*%
X22489000Y13843000D03*
%TO.P,A3,12,MS3*%
%TO.N,unconnected-(A3-Pad12)*%
X22489000Y11303000D03*
%TO.P,A3,11,MS2*%
%TO.N,unconnected-(A3-Pad11)*%
X22489000Y8763000D03*
%TO.P,A3,10,MS1*%
%TO.N,unconnected-(A3-Pad10)*%
X22489000Y6223000D03*
%TO.P,A3,9,~{ENABLE}*%
%TO.N,GND*%
X22489000Y3683000D03*
%TO.P,A3,8,VMOT*%
%TO.N,+24V*%
X9789000Y3683000D03*
%TO.P,A3,7,GND*%
%TO.N,GND*%
X9789000Y6223000D03*
%TO.P,A3,6,2B*%
%TO.N,Net-(A3-Pad6)*%
X9789000Y8763000D03*
%TO.P,A3,5,2A*%
%TO.N,Net-(A3-Pad5)*%
X9789000Y11303000D03*
%TO.P,A3,4,1A*%
%TO.N,Net-(A3-Pad4)*%
X9789000Y13843000D03*
%TO.P,A3,3,1B*%
%TO.N,Net-(A3-Pad3)*%
X9789000Y16383000D03*
%TO.P,A3,2,VDD*%
%TO.N,VCC*%
X9789000Y18923000D03*
%TO.P,A3,1,GND*%
%TO.N,GND*%
X9789000Y21463000D03*
%TD*%
D12*
%TO.P,Q6,1,G*%
%TO.N,Net-(Q6-Pad1)*%
X68700500Y23854500D03*
D13*
%TO.P,Q6,2,D*%
%TO.N,Net-(J5-Pad1)*%
X71240500Y23854500D03*
%TO.P,Q6,3,S*%
%TO.N,GND*%
X73780500Y23854500D03*
%TD*%
D18*
%TO.P,J8,1,Pin_1*%
%TO.N,+24V*%
X83820000Y14605000D03*
D19*
%TO.P,J8,2,Pin_2*%
%TO.N,GND*%
X83820000Y19685000D03*
%TD*%
D20*
%TO.P,U3,1,IN1*%
%TO.N,Net-(U2-Pad6)*%
X59264000Y40005000D03*
D21*
%TO.P,U3,2,IN2*%
%TO.N,Net-(U2-Pad7)*%
X59264000Y42545000D03*
%TO.P,U3,3,OUT1*%
%TO.N,Net-(J6-Pad1)*%
X59264000Y45085000D03*
%TO.P,U3,4,GND*%
%TO.N,GND*%
X59264000Y47625000D03*
%TO.P,U3,5,OUT2*%
%TO.N,Net-(J6-Pad2)*%
X59264000Y50165000D03*
%TO.P,U3,6,N.C.*%
%TO.N,unconnected-(U3-Pad6)*%
X59264000Y52705000D03*
%TO.P,U3,7,VM*%
%TO.N,+24V*%
X59264000Y55245000D03*
%TD*%
D10*
%TO.P,J6,1,Pin_1*%
%TO.N,Net-(J6-Pad1)*%
X63881000Y6858000D03*
D11*
%TO.P,J6,2,Pin_2*%
%TO.N,Net-(J6-Pad2)*%
X63881000Y4318000D03*
%TD*%
D14*
%TO.P,R4,1*%
%TO.N,D3*%
X47371000Y12065000D03*
%TO.P,R4,2*%
%TO.N,VCC*%
X47371000Y17145000D03*
%TD*%
D10*
%TO.P,SW3,1,1*%
%TO.N,D2*%
X39243000Y6858000D03*
D11*
%TO.P,SW3,2,2*%
%TO.N,GND*%
X39243000Y4318000D03*
%TD*%
D10*
%TO.P,SW4,1,1*%
%TO.N,D3*%
X45085000Y6858000D03*
D11*
%TO.P,SW4,2,2*%
%TO.N,GND*%
X45085000Y4318000D03*
%TD*%
D22*
%TO.P,A4,1,D1/TX*%
%TO.N,unconnected-(A4-Pad1)*%
X44948000Y40767000D03*
D14*
%TO.P,A4,2,D0/RX*%
%TO.N,unconnected-(A4-Pad2)*%
X44948000Y43307000D03*
%TO.P,A4,3,~{RESET}*%
%TO.N,unconnected-(A4-Pad3)*%
X44948000Y45847000D03*
%TO.P,A4,4,GND*%
%TO.N,GND*%
X44948000Y48387000D03*
%TO.P,A4,5,D2*%
%TO.N,Net-(A4-Pad5)*%
X44948000Y50927000D03*
%TO.P,A4,6,D3*%
%TO.N,Net-(A4-Pad6)*%
X44948000Y53467000D03*
%TO.P,A4,7,D4*%
%TO.N,Net-(A4-Pad7)*%
X44948000Y56007000D03*
%TO.P,A4,8,D5*%
%TO.N,Net-(A4-Pad8)*%
X44948000Y58547000D03*
%TO.P,A4,9,D6*%
%TO.N,Net-(A4-Pad9)*%
X44948000Y61087000D03*
%TO.P,A4,10,D7*%
%TO.N,Net-(A4-Pad10)*%
X44948000Y63627000D03*
%TO.P,A4,11,D8*%
%TO.N,Net-(A4-Pad11)*%
X44948000Y66167000D03*
%TO.P,A4,12,D9*%
%TO.N,Net-(A2-Pad16)*%
X44948000Y68707000D03*
%TO.P,A4,13,D10*%
%TO.N,Net-(A2-Pad15)*%
X44948000Y71247000D03*
%TO.P,A4,14,D11*%
%TO.N,Net-(A1-Pad16)*%
X44948000Y73787000D03*
%TO.P,A4,15,D12*%
%TO.N,Net-(A1-Pad15)*%
X44948000Y76327000D03*
%TO.P,A4,16,D13*%
%TO.N,Net-(A1-Pad9)*%
X29708000Y76327000D03*
%TO.P,A4,17,3V3*%
%TO.N,unconnected-(A4-Pad17)*%
X29708000Y73787000D03*
%TO.P,A4,18,AREF*%
%TO.N,unconnected-(A4-Pad18)*%
X29708000Y71247000D03*
%TO.P,A4,19,A0*%
%TO.N,unconnected-(A4-Pad19)*%
X29708000Y68707000D03*
%TO.P,A4,20,A1*%
%TO.N,unconnected-(A4-Pad20)*%
X29708000Y66167000D03*
%TO.P,A4,21,A2*%
%TO.N,unconnected-(A4-Pad21)*%
X29708000Y63627000D03*
%TO.P,A4,22,A3*%
%TO.N,unconnected-(A4-Pad22)*%
X29708000Y61087000D03*
%TO.P,A4,23,A4*%
%TO.N,unconnected-(A4-Pad23)*%
X29708000Y58547000D03*
%TO.P,A4,24,A5*%
%TO.N,unconnected-(A4-Pad24)*%
X29708000Y56007000D03*
%TO.P,A4,25,A6*%
%TO.N,unconnected-(A4-Pad25)*%
X29708000Y53467000D03*
%TO.P,A4,26,A7*%
%TO.N,unconnected-(A4-Pad26)*%
X29708000Y50927000D03*
%TO.P,A4,27,+5V*%
%TO.N,VCC*%
X29708000Y48387000D03*
%TO.P,A4,28,~{RESET}*%
%TO.N,unconnected-(A4-Pad28)*%
X29708000Y45847000D03*
%TO.P,A4,29,GND*%
%TO.N,GND*%
X29708000Y43307000D03*
%TO.P,A4,30,VIN*%
%TO.N,unconnected-(A4-Pad30)*%
X29708000Y40767000D03*
%TD*%
%TO.P,J4,1,Pin_1*%
%TO.N,Net-(A3-Pad3)*%
X3556000Y19040000D03*
%TO.P,J4,2,Pin_2*%
%TO.N,Net-(A3-Pad4)*%
X3556000Y16500000D03*
%TO.P,J4,3,Pin_3*%
%TO.N,Net-(A3-Pad5)*%
X3556000Y13960000D03*
%TO.P,J4,4,Pin_4*%
%TO.N,Net-(A3-Pad6)*%
X3556000Y11420000D03*
%TD*%
D10*
%TO.P,M1,1,+*%
%TO.N,+24V*%
X76200000Y6863000D03*
D11*
%TO.P,M1,2,-*%
%TO.N,Net-(M1-Pad2)*%
X76200000Y4323000D03*
%TD*%
D14*
%TO.P,J1,4,Pin_4*%
%TO.N,Net-(A1-Pad6)*%
X3556000Y62855000D03*
%TO.P,J1,3,Pin_3*%
%TO.N,Net-(A1-Pad5)*%
X3556000Y65395000D03*
%TO.P,J1,2,Pin_2*%
%TO.N,Net-(A1-Pad4)*%
X3556000Y67935000D03*
%TO.P,J1,1,Pin_1*%
%TO.N,Net-(A1-Pad3)*%
X3556000Y70475000D03*
%TD*%
D23*
%TO.P,R6,2*%
%TO.N,VCC*%
X60579000Y17145000D03*
%TO.P,R6,1*%
%TO.N,D5*%
X60579000Y12065000D03*
%TD*%
D12*
%TO.P,Q7,1,G*%
%TO.N,Net-(A4-Pad5)*%
X68580000Y12573000D03*
D13*
%TO.P,Q7,2,D*%
%TO.N,Net-(M1-Pad2)*%
X71120000Y12573000D03*
%TO.P,Q7,3,S*%
%TO.N,GND*%
X73660000Y12573000D03*
%TD*%
D10*
%TO.P,SW6,1,1*%
%TO.N,D5*%
X57785000Y6858000D03*
D11*
%TO.P,SW6,2,2*%
%TO.N,GND*%
X57785000Y4318000D03*
%TD*%
D24*
%TO.N,Net-(J6-Pad2)*%
X62694500Y31979300D03*
%TO.N,Net-(A4-Pad10)*%
X54780100Y47928400D03*
%TO.N,Net-(Q6-Pad1)*%
X57367900Y79659400D03*
X56123100Y75905100D03*
%TO.N,Net-(Q5-Pad1)*%
X68771800Y49377100D03*
%TO.N,Net-(U2-Pad7)*%
X47957600Y63829500D03*
%TO.N,Net-(U2-Pad6)*%
X52133700Y60289200D03*
%TO.N,Net-(A1-Pad6)*%
X2850500Y57956900D03*
%TO.N,Net-(A1-Pad5)*%
X5256300Y48250000D03*
%TO.N,+24V*%
X10007300Y55206000D03*
%TD*%
D25*
%TO.N,Net-(J6-Pad2)*%
X65431300Y29242500D02*
X62694500Y31979300D01*
X65431300Y4318000D02*
X65431300Y29242500D01*
%TO.N,Net-(J6-Pad1)*%
X72390000Y6858000D02*
X70040500Y6858000D01*
X73025000Y6223000D02*
X72390000Y6858000D01*
X73025000Y4242900D02*
X73025000Y6223000D01*
X74518200Y2749700D02*
X73025000Y4242900D01*
X86020400Y11910400D02*
X76859700Y2749700D01*
X85640300Y16805400D02*
X86020400Y16425300D01*
X76859700Y2749700D02*
X74518200Y2749700D01*
X83539200Y16805400D02*
X85640300Y16805400D01*
X67070200Y37278800D02*
X67070200Y33274400D01*
X67070200Y33274400D02*
X83539200Y16805400D01*
X86020400Y16425300D02*
X86020400Y11910400D01*
X59264000Y45085000D02*
X67070200Y37278800D01*
%TO.N,Net-(Q4-Pad1)*%
X58509200Y57858700D02*
X68700500Y47667400D01*
X49447900Y61277500D02*
X52866700Y57858700D01*
X52866700Y57858700D02*
X58509200Y57858700D01*
X49447900Y73201900D02*
X49447900Y61277500D01*
X68700500Y47667400D02*
X68700500Y46417500D01*
X52177000Y75931000D02*
X49447900Y73201900D01*
%TO.N,VCC*%
X53975000Y18923000D02*
X60183000Y25131000D01*
X60183000Y25131000D02*
X60183000Y25293000D01*
X53975000Y17145000D02*
X53975000Y18923000D01*
%TO.N,Net-(J6-Pad2)*%
X63881000Y4318000D02*
X64656200Y4318000D01*
X64656200Y4318000D02*
X65431300Y4318000D01*
X65431300Y4318000D02*
X70040500Y4318000D01*
%TO.N,Net-(A2-Pad15)*%
X22489000Y18923000D02*
X24189300Y18923000D01*
X36000800Y20795000D02*
X24196000Y20795000D01*
X37156100Y21950300D02*
X36000800Y20795000D01*
X37156100Y63455100D02*
X37156100Y21950300D01*
X44948000Y71247000D02*
X37156100Y63455100D01*
X24189300Y20788300D02*
X24196000Y20795000D01*
X24189300Y18923000D02*
X24189300Y20788300D01*
X24196000Y47061000D02*
X22489000Y48768000D01*
X24196000Y20795000D02*
X24196000Y47061000D01*
%TO.N,Net-(A1-Pad16)*%
X44948000Y73787000D02*
X43247700Y73787000D01*
X22489000Y81153000D02*
X24189300Y81153000D01*
X24596800Y81560500D02*
X24189300Y81153000D01*
X36295200Y81560500D02*
X24596800Y81560500D01*
X43247700Y74608000D02*
X36295200Y81560500D01*
X43247700Y73787000D02*
X43247700Y74608000D01*
%TO.N,Net-(A1-Pad9)*%
X25867600Y66751600D02*
X22489000Y63373000D01*
X25867600Y72486600D02*
X25867600Y66751600D01*
X29708000Y76327000D02*
X25867600Y72486600D01*
%TO.N,Net-(M1-Pad2)*%
X74649700Y9043300D02*
X74649700Y4323000D01*
X71120000Y12573000D02*
X74649700Y9043300D01*
X76200000Y4323000D02*
X74649700Y4323000D01*
%TO.N,Net-(A4-Pad5)*%
X46648300Y49736000D02*
X46648300Y50927000D01*
X67070200Y29314100D02*
X46648300Y49736000D01*
X67070200Y15713100D02*
X67070200Y29314100D01*
X68580000Y14203300D02*
X67070200Y15713100D01*
X68580000Y12573000D02*
X68580000Y14203300D01*
X44948000Y50927000D02*
X46648300Y50927000D01*
%TO.N,Net-(A2-Pad13)*%
X22489000Y46228000D02*
X22489000Y43688000D01*
%TO.N,Net-(A3-Pad5)*%
X5431700Y13960000D02*
X8088700Y11303000D01*
X3556000Y13960000D02*
X5431700Y13960000D01*
X9789000Y11303000D02*
X8088700Y11303000D01*
%TO.N,Net-(A3-Pad3)*%
X5431700Y19040000D02*
X8088700Y16383000D01*
X3556000Y19040000D02*
X5431700Y19040000D01*
X9789000Y16383000D02*
X8088700Y16383000D01*
%TO.N,Net-(A4-Pad10)*%
X46648400Y56060100D02*
X54780100Y47928400D01*
X46648400Y61926600D02*
X46648400Y56060100D01*
X44948000Y63627000D02*
X46648400Y61926600D01*
%TO.N,Net-(A1-Pad13)*%
X22489000Y73533000D02*
X22489000Y76073000D01*
%TO.N,Net-(Q6-Pad1)*%
X56123100Y78414600D02*
X56123100Y75905100D01*
X57367900Y79659400D02*
X56123100Y78414600D01*
%TO.N,Net-(Q5-Pad1)*%
X53677400Y64471500D02*
X68771800Y49377100D01*
X53677400Y71890600D02*
X53677400Y64471500D01*
X52177000Y73391000D02*
X53677400Y71890600D01*
%TO.N,Net-(A2-Pad16)*%
X25851700Y47945300D02*
X22489000Y51308000D01*
X25851700Y38459600D02*
X25851700Y47945300D01*
X30353000Y33958300D02*
X25851700Y38459600D01*
X30353000Y32258000D02*
X30353000Y33958300D01*
%TO.N,Net-(Q3-Pad1)*%
X63202500Y57699000D02*
X68700500Y57699000D01*
X56071300Y64830200D02*
X63202500Y57699000D01*
X56071300Y74259400D02*
X56071300Y64830200D01*
X52177000Y78153700D02*
X56071300Y74259400D01*
X52177000Y78471000D02*
X52177000Y78153700D01*
%TO.N,Net-(Q2-Pad1)*%
X52177000Y81011000D02*
X53677300Y81011000D01*
X53677300Y81346100D02*
X53677300Y81011000D01*
X54883000Y82551800D02*
X53677300Y81346100D01*
X60394000Y82551800D02*
X54883000Y82551800D01*
X68700500Y74245300D02*
X60394000Y82551800D01*
X68700500Y68980500D02*
X68700500Y74245300D01*
%TO.N,Net-(A3-Pad16)*%
X32175300Y24174300D02*
X32175300Y27432000D01*
X30353000Y22352000D02*
X32175300Y24174300D01*
X30475000Y27432000D02*
X32175300Y27432000D01*
%TO.N,D0*%
X26924000Y10110700D02*
X26924000Y6858000D01*
X27178000Y10364700D02*
X26924000Y10110700D01*
X27178000Y12065000D02*
X27178000Y10364700D01*
%TO.N,D1*%
X33083500Y9412200D02*
X33083500Y6858000D01*
X34036000Y10364700D02*
X33083500Y9412200D01*
X34036000Y12065000D02*
X34036000Y10364700D01*
%TO.N,D2*%
X39013400Y13681100D02*
X40767000Y15434700D01*
X39013400Y8637900D02*
X39013400Y13681100D01*
X39243000Y8408300D02*
X39013400Y8637900D01*
X39243000Y6858000D02*
X39243000Y8408300D01*
X40767000Y17135000D02*
X40767000Y15434700D01*
X44405000Y17135000D02*
X40767000Y17135000D01*
X52563000Y25293000D02*
X44405000Y17135000D01*
%TO.N,D3*%
X45414600Y8408300D02*
X47371000Y10364700D01*
X45085000Y8408300D02*
X45414600Y8408300D01*
X45085000Y6858000D02*
X45085000Y8408300D01*
X47371000Y11214900D02*
X47371000Y10364700D01*
X47371000Y11214900D02*
X47371000Y12065000D01*
X49071300Y17561000D02*
X55103000Y23592700D01*
X49071300Y15465600D02*
X49071300Y17561000D01*
X47371000Y13765300D02*
X49071300Y15465600D01*
X47371000Y12065000D02*
X47371000Y13765300D01*
X55103000Y25293000D02*
X55103000Y23592700D01*
%TO.N,D4*%
X51562000Y6858000D02*
X53112300Y6858000D01*
X53112300Y11202300D02*
X53112300Y6858000D01*
X53975000Y12065000D02*
X53112300Y11202300D01*
X53112300Y6748300D02*
X53112300Y6858000D01*
X57105600Y2755000D02*
X53112300Y6748300D01*
X58444200Y2755000D02*
X57105600Y2755000D01*
X59489300Y3800100D02*
X58444200Y2755000D01*
X59489300Y8414900D02*
X59489300Y3800100D01*
X63286600Y12212200D02*
X59489300Y8414900D01*
X63286600Y26356100D02*
X63286600Y12212200D01*
X58610700Y31032000D02*
X63286600Y26356100D01*
X56984000Y31032000D02*
X58610700Y31032000D01*
X55103000Y32913000D02*
X56984000Y31032000D01*
%TO.N,D5*%
X57785000Y6858000D02*
X57785000Y8408300D01*
X60579000Y11202300D02*
X60579000Y12065000D01*
X57785000Y8408300D02*
X60579000Y11202300D01*
X62082500Y13568500D02*
X60579000Y12065000D01*
X62082500Y25839700D02*
X62082500Y13568500D01*
X58690600Y29231600D02*
X62082500Y25839700D01*
X56244400Y29231600D02*
X58690600Y29231600D01*
X52563000Y32913000D02*
X56244400Y29231600D01*
%TO.N,Net-(U2-Pad7)*%
X47957600Y58410400D02*
X47957600Y63829500D01*
X56270400Y50097600D02*
X47957600Y58410400D01*
X56270400Y45538600D02*
X56270400Y50097600D01*
X59264000Y42545000D02*
X56270400Y45538600D01*
%TO.N,Net-(U2-Pad6)*%
X50662500Y66796500D02*
X52177000Y68311000D01*
X50662500Y61760400D02*
X50662500Y66796500D01*
X52133700Y60289200D02*
X50662500Y61760400D01*
%TO.N,Net-(D1-Pad1)*%
X79351500Y71770000D02*
X84836000Y71770000D01*
X71494500Y79627000D02*
X79351500Y71770000D01*
%TO.N,Net-(A3-Pad13)*%
X22489000Y13843000D02*
X22489000Y16383000D01*
%TO.N,Net-(A2-Pad6)*%
X6731000Y35550000D02*
X9789000Y38608000D01*
X6731000Y31740000D02*
X6731000Y35550000D01*
X3556000Y28565000D02*
X6731000Y31740000D01*
%TO.N,Net-(A2-Pad5)*%
X5393500Y36752500D02*
X9789000Y41148000D01*
X5393500Y32942500D02*
X5393500Y36752500D01*
X3556000Y31105000D02*
X5393500Y32942500D01*
%TO.N,Net-(A2-Pad4)*%
X1838800Y37438100D02*
X8088700Y43688000D01*
X1838800Y35362200D02*
X1838800Y37438100D01*
X3556000Y33645000D02*
X1838800Y35362200D01*
X9789000Y43688000D02*
X8088700Y43688000D01*
%TO.N,Net-(A1-Pad6)*%
X1845500Y47420500D02*
X3556000Y45710000D01*
X1845500Y56951900D02*
X1845500Y47420500D01*
X2850500Y57956900D02*
X1845500Y56951900D01*
%TO.N,Net-(A1-Pad5)*%
X6470100Y49463800D02*
X5256300Y48250000D01*
X6470100Y62480900D02*
X6470100Y49463800D01*
X3556000Y65395000D02*
X6470100Y62480900D01*
%TO.N,Net-(A1-Pad4)*%
X7995600Y71739600D02*
X9789000Y73533000D01*
X7995600Y70674300D02*
X7995600Y71739600D01*
X5256300Y67935000D02*
X7995600Y70674300D01*
X4048100Y67935000D02*
X5256300Y67935000D01*
X4048100Y67935000D02*
X3556000Y67935000D01*
X5268300Y52502300D02*
X3556000Y50790000D01*
X5268300Y57236600D02*
X5268300Y52502300D01*
X1817300Y60687600D02*
X5268300Y57236600D01*
X1817300Y66196300D02*
X1817300Y60687600D01*
X3556000Y67935000D02*
X1817300Y66196300D01*
%TO.N,Net-(A1-Pad3)*%
X5256300Y71540300D02*
X9789000Y76073000D01*
X5256300Y70475000D02*
X5256300Y71540300D01*
X3556000Y70475000D02*
X5256300Y70475000D01*
%TO.N,Net-(A4-Pad6)*%
X42403000Y25293000D02*
X42403000Y26993300D01*
X40856000Y49375000D02*
X44948000Y53467000D01*
X40856000Y28540300D02*
X40856000Y49375000D01*
X42403000Y26993300D02*
X40856000Y28540300D01*
%TO.N,VCC*%
X35433000Y28484800D02*
X35433000Y22352000D01*
X32874700Y31043100D02*
X35433000Y28484800D01*
X32874700Y45220300D02*
X32874700Y31043100D01*
X29708000Y48387000D02*
X32874700Y45220300D01*
X29708000Y48387000D02*
X28007700Y48387000D01*
X9789000Y48768000D02*
X11489300Y48768000D01*
X61307200Y67281200D02*
X59797000Y65771000D01*
X61307200Y79500800D02*
X61307200Y67281200D01*
X59797000Y81011000D02*
X61307200Y79500800D01*
X8060500Y80341500D02*
X9789000Y78613000D01*
X8060500Y81905100D02*
X8060500Y80341500D01*
X9016200Y82860800D02*
X8060500Y81905100D01*
X10535600Y82860800D02*
X9016200Y82860800D01*
X15752200Y77644200D02*
X10535600Y82860800D01*
X15752200Y53030900D02*
X15752200Y77644200D01*
X23363800Y53030900D02*
X15752200Y53030900D01*
X28007700Y48387000D02*
X23363800Y53030900D01*
X15752200Y53030900D02*
X11489300Y48768000D01*
%TO.N,GND*%
X8080300Y34359300D02*
X9789000Y36068000D01*
X8080300Y24872000D02*
X8080300Y34359300D01*
X9789000Y23163300D02*
X8080300Y24872000D01*
X9789000Y21463000D02*
X9789000Y23163300D01*
X46670300Y27020300D02*
X44943000Y25293000D01*
X55915700Y27020300D02*
X46670300Y27020300D01*
X57643000Y25293000D02*
X55915700Y27020300D01*
X42403000Y33331200D02*
X42403000Y33779600D01*
X44943000Y30791200D02*
X42403000Y33331200D01*
X44943000Y25293000D02*
X44943000Y30791200D01*
X42403000Y45842000D02*
X42403000Y33779600D01*
X44948000Y48387000D02*
X42403000Y45842000D01*
X42403000Y33779600D02*
X42403000Y32913000D01*
X14029300Y33528000D02*
X11489300Y36068000D01*
X22489000Y33528000D02*
X14029300Y33528000D01*
X9789000Y36068000D02*
X11489300Y36068000D01*
X73780500Y68980500D02*
X73780500Y57699000D01*
X9789000Y51308000D02*
X9789000Y53008300D01*
X73780500Y46417500D02*
X73780500Y57699000D01*
X11510000Y19742000D02*
X9789000Y21463000D01*
X11510000Y7944000D02*
X11510000Y19742000D01*
X9789000Y6223000D02*
X11510000Y7944000D01*
X9789000Y65913000D02*
X11489300Y65913000D01*
X11489300Y54708600D02*
X11489300Y65913000D01*
X9789000Y53008300D02*
X11489300Y54708600D01*
X11489300Y79452700D02*
X11489300Y65913000D01*
X9789000Y81153000D02*
X11489300Y79452700D01*
X62118600Y44770400D02*
X73780500Y44770400D01*
X59264000Y47625000D02*
X62118600Y44770400D01*
X73780500Y35136000D02*
X73780500Y44770400D01*
X73780500Y44770400D02*
X73780500Y46417500D01*
%TO.N,+24V*%
X81619700Y13833000D02*
X81619700Y14605000D01*
X76200000Y8413300D02*
X81619700Y13833000D01*
X76200000Y6863000D02*
X76200000Y8413300D01*
X83820000Y14605000D02*
X81619700Y14605000D01*
X86386300Y32999800D02*
X84836000Y34550100D01*
X86386300Y27818000D02*
X86386300Y32999800D01*
X84836000Y27818000D02*
X86386300Y27818000D01*
X84836000Y36100400D02*
X84836000Y34550100D01*
X10007300Y61454400D02*
X10007300Y55206000D01*
X9789000Y61672700D02*
X10007300Y61454400D01*
X9789000Y63373000D02*
X9789000Y61672700D01*
X86386300Y57847000D02*
X86386300Y52665200D01*
X84836000Y59397300D02*
X86386300Y57847000D01*
X84836000Y60947600D02*
X84836000Y59397300D01*
X86386300Y66129400D02*
X86386300Y60947600D01*
X84836000Y67679700D02*
X86386300Y66129400D01*
X84836000Y69230000D02*
X84836000Y67679700D01*
X84836000Y60947600D02*
X86386300Y60947600D01*
X84836000Y52665200D02*
X86086200Y52665200D01*
X86086200Y52665200D02*
X86386300Y52665200D01*
X86386300Y52665200D02*
X86386300Y44382800D01*
X84836000Y44382800D02*
X86086200Y44382800D01*
X86086200Y44382800D02*
X86386300Y44382800D01*
X86386300Y44382800D02*
X86386300Y36100400D01*
X84836000Y36100400D02*
X86386300Y36100400D01*
X12730900Y28885800D02*
X9789000Y31827700D01*
X12730900Y6624900D02*
X12730900Y28885800D01*
X9789000Y3683000D02*
X12730900Y6624900D01*
X9789000Y33528000D02*
X9789000Y31827700D01*
%TD*%
M02*
