%TF.GenerationSoftware,KiCad,Pcbnew,(6.0.6-0)*%
%TF.CreationDate,2022-11-09T17:59:03+09:00*%
%TF.ProjectId,WB,57422e6b-6963-4616-945f-706362585858,rev?*%
%TF.SameCoordinates,Original*%
%TF.FileFunction,Copper,L2,Bot*%
%TF.FilePolarity,Positive*%
%FSLAX46Y46*%
G04 Gerber Fmt 4.6, Leading zero omitted, Abs format (unit mm)*
G04 Created by KiCad (PCBNEW (6.0.6-0)) date 2022-11-09 17:59:03*
%MOMM*%
%LPD*%
G01*
G04 APERTURE LIST*
%TA.AperFunction,ComponentPad*%
%ADD10R,1.860000X1.860000*%
%TD*%
%TA.AperFunction,ComponentPad*%
%ADD11C,1.860000*%
%TD*%
%TA.AperFunction,ComponentPad*%
%ADD12R,1.600000X1.600000*%
%TD*%
%TA.AperFunction,ComponentPad*%
%ADD13O,1.600000X1.600000*%
%TD*%
%TA.AperFunction,ComponentPad*%
%ADD14R,1.500000X1.050000*%
%TD*%
%TA.AperFunction,ComponentPad*%
%ADD15O,1.500000X1.050000*%
%TD*%
%TA.AperFunction,ComponentPad*%
%ADD16C,1.600000*%
%TD*%
%TA.AperFunction,ComponentPad*%
%ADD17R,1.000000X1.000000*%
%TD*%
%TA.AperFunction,ComponentPad*%
%ADD18O,1.000000X1.000000*%
%TD*%
%TA.AperFunction,ComponentPad*%
%ADD19R,1.700000X1.700000*%
%TD*%
%TA.AperFunction,ComponentPad*%
%ADD20O,1.700000X1.700000*%
%TD*%
%TA.AperFunction,ComponentPad*%
%ADD21R,3.000000X3.000000*%
%TD*%
%TA.AperFunction,ComponentPad*%
%ADD22C,3.000000*%
%TD*%
%TA.AperFunction,ComponentPad*%
%ADD23R,1.160000X1.160000*%
%TD*%
%TA.AperFunction,ComponentPad*%
%ADD24C,1.160000*%
%TD*%
%TA.AperFunction,ComponentPad*%
%ADD25O,2.000000X2.000000*%
%TD*%
%TA.AperFunction,ViaPad*%
%ADD26C,1.500000*%
%TD*%
%TA.AperFunction,ViaPad*%
%ADD27C,0.800000*%
%TD*%
%TA.AperFunction,Conductor*%
%ADD28C,1.000000*%
%TD*%
G04 APERTURE END LIST*
D10*
%TO.P,Q2,1,G*%
%TO.N,Net-(Q2-Pad1)*%
X218433500Y-37826500D03*
D11*
%TO.P,Q2,2,D*%
%TO.N,Net-(D2-Pad1)*%
X220973500Y-37826500D03*
%TO.P,Q2,3,S*%
%TO.N,GND*%
X223513500Y-37826500D03*
%TD*%
D12*
%TO.P,A2,1,GND*%
%TO.N,GND*%
X159522000Y-55499000D03*
D13*
%TO.P,A2,2,VDD*%
%TO.N,VCC*%
X159522000Y-58039000D03*
%TO.P,A2,3,1B*%
%TO.N,Net-(A2-Pad3)*%
X159522000Y-60579000D03*
%TO.P,A2,4,1A*%
%TO.N,Net-(A2-Pad4)*%
X159522000Y-63119000D03*
%TO.P,A2,5,2A*%
%TO.N,Net-(A2-Pad5)*%
X159522000Y-65659000D03*
%TO.P,A2,6,2B*%
%TO.N,Net-(A2-Pad6)*%
X159522000Y-68199000D03*
%TO.P,A2,7,GND*%
%TO.N,GND*%
X159522000Y-70739000D03*
%TO.P,A2,8,VMOT*%
%TO.N,+24V*%
X159522000Y-73279000D03*
%TO.P,A2,9,~{ENABLE}*%
%TO.N,GND*%
X172222000Y-73279000D03*
%TO.P,A2,10,MS1*%
%TO.N,unconnected-(A2-Pad10)*%
X172222000Y-70739000D03*
%TO.P,A2,11,MS2*%
%TO.N,unconnected-(A2-Pad11)*%
X172222000Y-68199000D03*
%TO.P,A2,12,MS3*%
%TO.N,unconnected-(A2-Pad12)*%
X172222000Y-65659000D03*
%TO.P,A2,13,~{RESET}*%
%TO.N,Net-(A2-Pad13)*%
X172222000Y-63119000D03*
%TO.P,A2,14,~{SLEEP}*%
X172222000Y-60579000D03*
%TO.P,A2,15,STEP*%
%TO.N,Net-(A2-Pad15)*%
X172222000Y-58039000D03*
%TO.P,A2,16,DIR*%
%TO.N,Net-(A2-Pad16)*%
X172222000Y-55499000D03*
%TD*%
D14*
%TO.P,Q8,1,E*%
%TO.N,GND*%
X180208000Y-78105000D03*
D15*
%TO.P,Q8,2,C*%
%TO.N,Net-(A3-Pad16)*%
X180208000Y-79375000D03*
%TO.P,Q8,3,B*%
%TO.N,Net-(Q8-Pad3)*%
X180208000Y-80645000D03*
%TD*%
D16*
%TO.P,R7,1*%
%TO.N,Net-(A3-Pad16)*%
X180086000Y-84455000D03*
%TO.P,R7,2*%
%TO.N,VCC*%
X185166000Y-84455000D03*
%TD*%
%TO.P,R3,1*%
%TO.N,D2*%
X190500000Y-89672000D03*
%TO.P,R3,2*%
%TO.N,VCC*%
X190500000Y-94752000D03*
%TD*%
D17*
%TO.P,D1,1,K*%
%TO.N,Net-(D1-Pad1)*%
X234569000Y-35037000D03*
D18*
%TO.P,D1,2,A*%
%TO.N,+24V*%
X234569000Y-36307000D03*
%TD*%
D16*
%TO.P,R8,1*%
%TO.N,Net-(A2-Pad16)*%
X180086000Y-74549000D03*
%TO.P,R8,2*%
%TO.N,Net-(Q8-Pad3)*%
X185166000Y-74549000D03*
%TD*%
D17*
%TO.P,SW5,1,1*%
%TO.N,D4*%
X201295000Y-102347000D03*
D18*
%TO.P,SW5,2,2*%
%TO.N,GND*%
X201295000Y-103617000D03*
%TD*%
D17*
%TO.P,SW1,1,1*%
%TO.N,D0*%
X176657000Y-102347000D03*
D18*
%TO.P,SW1,2,2*%
%TO.N,GND*%
X176657000Y-103617000D03*
%TD*%
D19*
%TO.P,J2,1,Pin_1*%
%TO.N,Net-(A1-Pad3)*%
X153289000Y-53477000D03*
D20*
%TO.P,J2,2,Pin_2*%
%TO.N,Net-(A1-Pad4)*%
X153289000Y-56017000D03*
%TO.P,J2,3,Pin_3*%
%TO.N,Net-(A1-Pad5)*%
X153289000Y-58557000D03*
%TO.P,J2,4,Pin_4*%
%TO.N,Net-(A1-Pad6)*%
X153289000Y-61097000D03*
%TD*%
D16*
%TO.P,R1,1*%
%TO.N,D0*%
X176911000Y-94742000D03*
%TO.P,R1,2*%
%TO.N,VCC*%
X176911000Y-89662000D03*
%TD*%
%TO.P,R5,1*%
%TO.N,D4*%
X203708000Y-94742000D03*
%TO.P,R5,2*%
%TO.N,VCC*%
X203708000Y-89662000D03*
%TD*%
D12*
%TO.P,U1,1,~{PL}*%
%TO.N,Net-(A4-Pad8)*%
X209916000Y-73894000D03*
D13*
%TO.P,U1,2,CP*%
%TO.N,Net-(A4-Pad7)*%
X207376000Y-73894000D03*
%TO.P,U1,3,D4*%
%TO.N,D4*%
X204836000Y-73894000D03*
%TO.P,U1,4,D5*%
%TO.N,D5*%
X202296000Y-73894000D03*
%TO.P,U1,5,D6*%
%TO.N,unconnected-(U1-Pad5)*%
X199756000Y-73894000D03*
%TO.P,U1,6,D7*%
%TO.N,unconnected-(U1-Pad6)*%
X197216000Y-73894000D03*
%TO.P,U1,7,~{Q7}*%
%TO.N,unconnected-(U1-Pad7)*%
X194676000Y-73894000D03*
%TO.P,U1,8,GND*%
%TO.N,GND*%
X192136000Y-73894000D03*
%TO.P,U1,9,Q7*%
%TO.N,Net-(A4-Pad6)*%
X192136000Y-84054000D03*
%TO.P,U1,10,DS*%
%TO.N,GND*%
X194676000Y-84054000D03*
%TO.P,U1,11,D0*%
%TO.N,D0*%
X197216000Y-84054000D03*
%TO.P,U1,12,D1*%
%TO.N,D1*%
X199756000Y-84054000D03*
%TO.P,U1,13,D2*%
%TO.N,D2*%
X202296000Y-84054000D03*
%TO.P,U1,14,D3*%
%TO.N,D3*%
X204836000Y-84054000D03*
%TO.P,U1,15,~{CE}*%
%TO.N,GND*%
X207376000Y-84054000D03*
%TO.P,U1,16,VCC*%
%TO.N,VCC*%
X209916000Y-84054000D03*
%TD*%
D10*
%TO.P,Q1,1,G*%
%TO.N,Net-(Q1-Pad1)*%
X218687500Y-27180000D03*
D11*
%TO.P,Q1,2,D*%
%TO.N,Net-(D1-Pad1)*%
X221227500Y-27180000D03*
%TO.P,Q1,3,S*%
%TO.N,GND*%
X223767500Y-27180000D03*
%TD*%
D10*
%TO.P,Q3,1,G*%
%TO.N,Net-(Q3-Pad1)*%
X218433500Y-49108000D03*
D11*
%TO.P,Q3,2,D*%
%TO.N,Net-(D3-Pad1)*%
X220973500Y-49108000D03*
%TO.P,Q3,3,S*%
%TO.N,GND*%
X223513500Y-49108000D03*
%TD*%
D12*
%TO.P,U2,1,QB*%
%TO.N,Net-(Q2-Pad1)*%
X201910000Y-25796000D03*
D13*
%TO.P,U2,2,QC*%
%TO.N,Net-(Q3-Pad1)*%
X201910000Y-28336000D03*
%TO.P,U2,3,QD*%
%TO.N,Net-(Q4-Pad1)*%
X201910000Y-30876000D03*
%TO.P,U2,4,QE*%
%TO.N,Net-(Q5-Pad1)*%
X201910000Y-33416000D03*
%TO.P,U2,5,QF*%
%TO.N,Net-(Q6-Pad1)*%
X201910000Y-35956000D03*
%TO.P,U2,6,QG*%
%TO.N,Net-(U2-Pad6)*%
X201910000Y-38496000D03*
%TO.P,U2,7,QH*%
%TO.N,Net-(U2-Pad7)*%
X201910000Y-41036000D03*
%TO.P,U2,8,GND*%
%TO.N,GND*%
X201910000Y-43576000D03*
%TO.P,U2,9,QH'*%
%TO.N,unconnected-(U2-Pad9)*%
X212070000Y-43576000D03*
%TO.P,U2,10,~{SRCLR}*%
%TO.N,VCC*%
X212070000Y-41036000D03*
%TO.P,U2,11,SRCLK*%
%TO.N,Net-(A4-Pad10)*%
X212070000Y-38496000D03*
%TO.P,U2,12,RCLK*%
%TO.N,Net-(A4-Pad9)*%
X212070000Y-35956000D03*
%TO.P,U2,13,~{OE}*%
%TO.N,GND*%
X212070000Y-33416000D03*
%TO.P,U2,14,SER*%
%TO.N,Net-(A4-Pad11)*%
X212070000Y-30876000D03*
%TO.P,U2,15,QA*%
%TO.N,Net-(Q1-Pad1)*%
X212070000Y-28336000D03*
%TO.P,U2,16,VCC*%
%TO.N,VCC*%
X212070000Y-25796000D03*
%TD*%
D12*
%TO.P,A1,1,GND*%
%TO.N,GND*%
X159522000Y-25654000D03*
D13*
%TO.P,A1,2,VDD*%
%TO.N,VCC*%
X159522000Y-28194000D03*
%TO.P,A1,3,1B*%
%TO.N,Net-(A1-Pad3)*%
X159522000Y-30734000D03*
%TO.P,A1,4,1A*%
%TO.N,Net-(A1-Pad4)*%
X159522000Y-33274000D03*
%TO.P,A1,5,2A*%
%TO.N,Net-(A1-Pad5)*%
X159522000Y-35814000D03*
%TO.P,A1,6,2B*%
%TO.N,Net-(A1-Pad6)*%
X159522000Y-38354000D03*
%TO.P,A1,7,GND*%
%TO.N,GND*%
X159522000Y-40894000D03*
%TO.P,A1,8,VMOT*%
%TO.N,+24V*%
X159522000Y-43434000D03*
%TO.P,A1,9,~{ENABLE}*%
%TO.N,Net-(A1-Pad9)*%
X172222000Y-43434000D03*
%TO.P,A1,10,MS1*%
%TO.N,unconnected-(A1-Pad10)*%
X172222000Y-40894000D03*
%TO.P,A1,11,MS2*%
%TO.N,unconnected-(A1-Pad11)*%
X172222000Y-38354000D03*
%TO.P,A1,12,MS3*%
%TO.N,unconnected-(A1-Pad12)*%
X172222000Y-35814000D03*
%TO.P,A1,13,~{RESET}*%
%TO.N,Net-(A1-Pad13)*%
X172222000Y-33274000D03*
%TO.P,A1,14,~{SLEEP}*%
X172222000Y-30734000D03*
%TO.P,A1,15,STEP*%
%TO.N,Net-(A1-Pad15)*%
X172222000Y-28194000D03*
%TO.P,A1,16,DIR*%
%TO.N,Net-(A1-Pad16)*%
X172222000Y-25654000D03*
%TD*%
D17*
%TO.P,SW2,1,1*%
%TO.N,D1*%
X182816500Y-102347000D03*
D18*
%TO.P,SW2,2,2*%
%TO.N,GND*%
X182816500Y-103617000D03*
%TD*%
D17*
%TO.P,J5,1,Pin_1*%
%TO.N,Net-(J4-Pad1)*%
X234569000Y-76449000D03*
D18*
%TO.P,J5,2,Pin_2*%
%TO.N,+24V*%
X234569000Y-77719000D03*
%TD*%
D17*
%TO.P,D4,1,K*%
%TO.N,Net-(D4-Pad1)*%
X234569000Y-59884200D03*
D18*
%TO.P,D4,2,A*%
%TO.N,+24V*%
X234569000Y-61154200D03*
%TD*%
D10*
%TO.P,Q4,1,G*%
%TO.N,Net-(Q4-Pad1)*%
X218433500Y-60389500D03*
D11*
%TO.P,Q4,2,D*%
%TO.N,Net-(D4-Pad1)*%
X220973500Y-60389500D03*
%TO.P,Q4,3,S*%
%TO.N,GND*%
X223513500Y-60389500D03*
%TD*%
D10*
%TO.P,Q5,1,G*%
%TO.N,Net-(Q5-Pad1)*%
X218433500Y-71671000D03*
D11*
%TO.P,Q5,2,D*%
%TO.N,Net-(D5-Pad1)*%
X220973500Y-71671000D03*
%TO.P,Q5,3,S*%
%TO.N,GND*%
X223513500Y-71671000D03*
%TD*%
D16*
%TO.P,R2,1*%
%TO.N,D1*%
X183769000Y-94742000D03*
%TO.P,R2,2*%
%TO.N,VCC*%
X183769000Y-89662000D03*
%TD*%
D17*
%TO.P,D5,1,K*%
%TO.N,Net-(D5-Pad1)*%
X234569000Y-68166600D03*
D18*
%TO.P,D5,2,A*%
%TO.N,+24V*%
X234569000Y-69436600D03*
%TD*%
D19*
%TO.P,J3,1,Pin_1*%
%TO.N,Net-(A2-Pad3)*%
X153289000Y-70622000D03*
D20*
%TO.P,J3,2,Pin_2*%
%TO.N,Net-(A2-Pad4)*%
X153289000Y-73162000D03*
%TO.P,J3,3,Pin_3*%
%TO.N,Net-(A2-Pad5)*%
X153289000Y-75702000D03*
%TO.P,J3,4,Pin_4*%
%TO.N,Net-(A2-Pad6)*%
X153289000Y-78242000D03*
%TD*%
D17*
%TO.P,J7,1,Pin_1*%
%TO.N,Net-(J5-Pad1)*%
X219773500Y-102347000D03*
D18*
%TO.P,J7,2,Pin_2*%
%TO.N,Net-(J5-Pad2)*%
X219773500Y-103617000D03*
%TD*%
D12*
%TO.P,A3,1,GND*%
%TO.N,GND*%
X159522000Y-85344000D03*
D13*
%TO.P,A3,2,VDD*%
%TO.N,VCC*%
X159522000Y-87884000D03*
%TO.P,A3,3,1B*%
%TO.N,Net-(A3-Pad3)*%
X159522000Y-90424000D03*
%TO.P,A3,4,1A*%
%TO.N,Net-(A3-Pad4)*%
X159522000Y-92964000D03*
%TO.P,A3,5,2A*%
%TO.N,Net-(A3-Pad5)*%
X159522000Y-95504000D03*
%TO.P,A3,6,2B*%
%TO.N,Net-(A3-Pad6)*%
X159522000Y-98044000D03*
%TO.P,A3,7,GND*%
%TO.N,GND*%
X159522000Y-100584000D03*
%TO.P,A3,8,VMOT*%
%TO.N,+24V*%
X159522000Y-103124000D03*
%TO.P,A3,9,~{ENABLE}*%
%TO.N,GND*%
X172222000Y-103124000D03*
%TO.P,A3,10,MS1*%
%TO.N,unconnected-(A3-Pad10)*%
X172222000Y-100584000D03*
%TO.P,A3,11,MS2*%
%TO.N,unconnected-(A3-Pad11)*%
X172222000Y-98044000D03*
%TO.P,A3,12,MS3*%
%TO.N,unconnected-(A3-Pad12)*%
X172222000Y-95504000D03*
%TO.P,A3,13,~{RESET}*%
%TO.N,Net-(A3-Pad13)*%
X172222000Y-92964000D03*
%TO.P,A3,14,~{SLEEP}*%
X172222000Y-90424000D03*
%TO.P,A3,15,STEP*%
%TO.N,Net-(A2-Pad15)*%
X172222000Y-87884000D03*
%TO.P,A3,16,DIR*%
%TO.N,Net-(A3-Pad16)*%
X172222000Y-85344000D03*
%TD*%
D10*
%TO.P,Q6,1,G*%
%TO.N,Net-(Q6-Pad1)*%
X218433500Y-82952500D03*
D11*
%TO.P,Q6,2,D*%
%TO.N,Net-(J4-Pad1)*%
X220973500Y-82952500D03*
%TO.P,Q6,3,S*%
%TO.N,GND*%
X223513500Y-82952500D03*
%TD*%
D21*
%TO.P,J8,1,Pin_1*%
%TO.N,+24V*%
X233553000Y-92202000D03*
D22*
%TO.P,J8,2,Pin_2*%
%TO.N,GND*%
X233553000Y-87122000D03*
%TD*%
D23*
%TO.P,U3,1,IN1*%
%TO.N,Net-(U2-Pad6)*%
X208997000Y-66802000D03*
D24*
%TO.P,U3,2,IN2*%
%TO.N,Net-(U2-Pad7)*%
X208997000Y-64262000D03*
%TO.P,U3,3,OUT1*%
%TO.N,Net-(J5-Pad1)*%
X208997000Y-61722000D03*
%TO.P,U3,4,GND*%
%TO.N,GND*%
X208997000Y-59182000D03*
%TO.P,U3,5,OUT2*%
%TO.N,Net-(J5-Pad2)*%
X208997000Y-56642000D03*
%TO.P,U3,6,N.C.*%
%TO.N,unconnected-(U3-Pad6)*%
X208997000Y-54102000D03*
%TO.P,U3,7,VM*%
%TO.N,+24V*%
X208997000Y-51562000D03*
%TD*%
D17*
%TO.P,J6,1,Pin_1*%
%TO.N,Net-(J5-Pad1)*%
X213614000Y-102347000D03*
D18*
%TO.P,J6,2,Pin_2*%
%TO.N,Net-(J5-Pad2)*%
X213614000Y-103617000D03*
%TD*%
D16*
%TO.P,R4,1*%
%TO.N,D3*%
X197104000Y-94742000D03*
%TO.P,R4,2*%
%TO.N,VCC*%
X197104000Y-89662000D03*
%TD*%
D17*
%TO.P,SW3,1,1*%
%TO.N,D2*%
X188976000Y-102347000D03*
D18*
%TO.P,SW3,2,2*%
%TO.N,GND*%
X188976000Y-103617000D03*
%TD*%
D17*
%TO.P,SW4,1,1*%
%TO.N,D3*%
X195135500Y-102347000D03*
D18*
%TO.P,SW4,2,2*%
%TO.N,GND*%
X195135500Y-103617000D03*
%TD*%
D12*
%TO.P,A4,1,D1/TX*%
%TO.N,unconnected-(A4-Pad1)*%
X194681000Y-66040000D03*
D25*
%TO.P,A4,2,D0/RX*%
%TO.N,unconnected-(A4-Pad2)*%
X194681000Y-63500000D03*
%TO.P,A4,3,~{RESET}*%
%TO.N,unconnected-(A4-Pad3)*%
X194681000Y-60960000D03*
%TO.P,A4,4,GND*%
%TO.N,GND*%
X194681000Y-58420000D03*
%TO.P,A4,5,D2*%
%TO.N,Net-(A4-Pad5)*%
X194681000Y-55880000D03*
%TO.P,A4,6,D3*%
%TO.N,Net-(A4-Pad6)*%
X194681000Y-53340000D03*
%TO.P,A4,7,D4*%
%TO.N,Net-(A4-Pad7)*%
X194681000Y-50800000D03*
%TO.P,A4,8,D5*%
%TO.N,Net-(A4-Pad8)*%
X194681000Y-48260000D03*
%TO.P,A4,9,D6*%
%TO.N,Net-(A4-Pad9)*%
X194681000Y-45720000D03*
%TO.P,A4,10,D7*%
%TO.N,Net-(A4-Pad10)*%
X194681000Y-43180000D03*
%TO.P,A4,11,D8*%
%TO.N,Net-(A4-Pad11)*%
X194681000Y-40640000D03*
%TO.P,A4,12,D9*%
%TO.N,Net-(A2-Pad16)*%
X194681000Y-38100000D03*
%TO.P,A4,13,D10*%
%TO.N,Net-(A2-Pad15)*%
X194681000Y-35560000D03*
%TO.P,A4,14,D11*%
%TO.N,Net-(A1-Pad16)*%
X194681000Y-33020000D03*
%TO.P,A4,15,D12*%
%TO.N,Net-(A1-Pad15)*%
X194681000Y-30480000D03*
%TO.P,A4,16,D13*%
%TO.N,Net-(A1-Pad9)*%
X179441000Y-30480000D03*
%TO.P,A4,17,3V3*%
%TO.N,unconnected-(A4-Pad17)*%
X179441000Y-33020000D03*
%TO.P,A4,18,AREF*%
%TO.N,unconnected-(A4-Pad18)*%
X179441000Y-35560000D03*
%TO.P,A4,19,A0*%
%TO.N,unconnected-(A4-Pad19)*%
X179441000Y-38100000D03*
%TO.P,A4,20,A1*%
%TO.N,unconnected-(A4-Pad20)*%
X179441000Y-40640000D03*
%TO.P,A4,21,A2*%
%TO.N,unconnected-(A4-Pad21)*%
X179441000Y-43180000D03*
%TO.P,A4,22,A3*%
%TO.N,unconnected-(A4-Pad22)*%
X179441000Y-45720000D03*
%TO.P,A4,23,A4*%
%TO.N,unconnected-(A4-Pad23)*%
X179441000Y-48260000D03*
%TO.P,A4,24,A5*%
%TO.N,unconnected-(A4-Pad24)*%
X179441000Y-50800000D03*
%TO.P,A4,25,A6*%
%TO.N,unconnected-(A4-Pad25)*%
X179441000Y-53340000D03*
%TO.P,A4,26,A7*%
%TO.N,unconnected-(A4-Pad26)*%
X179441000Y-55880000D03*
%TO.P,A4,27,+5V*%
%TO.N,VCC*%
X179441000Y-58420000D03*
%TO.P,A4,28,~{RESET}*%
%TO.N,unconnected-(A4-Pad28)*%
X179441000Y-60960000D03*
%TO.P,A4,29,GND*%
%TO.N,GND*%
X179441000Y-63500000D03*
%TO.P,A4,30,VIN*%
%TO.N,unconnected-(A4-Pad30)*%
X179441000Y-66040000D03*
%TD*%
D19*
%TO.P,J4,1,Pin_1*%
%TO.N,Net-(A3-Pad3)*%
X153289000Y-87767000D03*
D20*
%TO.P,J4,2,Pin_2*%
%TO.N,Net-(A3-Pad4)*%
X153289000Y-90307000D03*
%TO.P,J4,3,Pin_3*%
%TO.N,Net-(A3-Pad5)*%
X153289000Y-92847000D03*
%TO.P,J4,4,Pin_4*%
%TO.N,Net-(A3-Pad6)*%
X153289000Y-95387000D03*
%TD*%
D17*
%TO.P,M1,1,+*%
%TO.N,+24V*%
X225933000Y-102347000D03*
D18*
%TO.P,M1,2,-*%
%TO.N,Net-(M1-Pad2)*%
X225933000Y-103617000D03*
%TD*%
D19*
%TO.P,J1,1,Pin_1*%
%TO.N,Net-(A1-Pad3)*%
X153289000Y-36332000D03*
D20*
%TO.P,J1,2,Pin_2*%
%TO.N,Net-(A1-Pad4)*%
X153289000Y-38872000D03*
%TO.P,J1,3,Pin_3*%
%TO.N,Net-(A1-Pad5)*%
X153289000Y-41412000D03*
%TO.P,J1,4,Pin_4*%
%TO.N,Net-(A1-Pad6)*%
X153289000Y-43952000D03*
%TD*%
D17*
%TO.P,D2,1,K*%
%TO.N,Net-(D2-Pad1)*%
X234569000Y-43319400D03*
D18*
%TO.P,D2,2,A*%
%TO.N,+24V*%
X234569000Y-44589400D03*
%TD*%
D16*
%TO.P,R6,1*%
%TO.N,D5*%
X210312000Y-94742000D03*
%TO.P,R6,2*%
%TO.N,VCC*%
X210312000Y-89662000D03*
%TD*%
D10*
%TO.P,Q7,1,G*%
%TO.N,Net-(A4-Pad5)*%
X218313000Y-94234000D03*
D11*
%TO.P,Q7,2,D*%
%TO.N,Net-(M1-Pad2)*%
X220853000Y-94234000D03*
%TO.P,Q7,3,S*%
%TO.N,GND*%
X223393000Y-94234000D03*
%TD*%
D17*
%TO.P,D3,1,K*%
%TO.N,Net-(D3-Pad1)*%
X234569000Y-51601800D03*
D18*
%TO.P,D3,2,A*%
%TO.N,+24V*%
X234569000Y-52871800D03*
%TD*%
D17*
%TO.P,SW6,1,1*%
%TO.N,D5*%
X207454500Y-102347000D03*
D18*
%TO.P,SW6,2,2*%
%TO.N,GND*%
X207454500Y-103617000D03*
%TD*%
D26*
%TO.N,*%
X206883000Y-29083000D03*
X179705000Y-99441000D03*
X199009000Y-78867000D03*
X200279000Y-97917000D03*
X166243000Y-30607000D03*
X186309000Y-57785000D03*
X217043000Y-42799000D03*
X198247000Y-32131000D03*
X165989000Y-40513000D03*
X165227000Y-70231000D03*
X165227000Y-101981000D03*
X191897000Y-98933000D03*
X225425000Y-55499000D03*
X167513000Y-89789000D03*
X167259000Y-59309000D03*
X186309000Y-99187000D03*
X228219000Y-93345000D03*
X186309000Y-38989000D03*
X186817000Y-80137000D03*
X165227000Y-79375000D03*
D27*
%TO.N,Net-(A4-Pad6)*%
X191657300Y-55229700D03*
%TO.N,Net-(A4-Pad11)*%
X210569700Y-38114400D03*
%TO.N,Net-(A4-Pad5)*%
X212123700Y-78654800D03*
%TD*%
D28*
%TO.N,+24V*%
X235769300Y-44589400D02*
X235769300Y-38707600D01*
X159522000Y-43434000D02*
X159522000Y-44934300D01*
X235769300Y-88060400D02*
X235769300Y-77719000D01*
X234569000Y-36307000D02*
X234569000Y-37507300D01*
X235769300Y-71837200D02*
X234569000Y-70636900D01*
X158021600Y-76279700D02*
X159522000Y-74779300D01*
X233553000Y-90001700D02*
X233828000Y-90001700D01*
X234569000Y-69436600D02*
X234569000Y-70636900D01*
X235469200Y-44589400D02*
X235769300Y-44589400D01*
X159522000Y-73279000D02*
X162239700Y-70561300D01*
X158021600Y-101623600D02*
X158021600Y-76279700D01*
X159522000Y-73279000D02*
X159522000Y-74779300D01*
X234569000Y-52871800D02*
X235769300Y-52871800D01*
X235769300Y-44589400D02*
X235769300Y-52871800D01*
X234569000Y-44589400D02*
X235469200Y-44589400D01*
X235769300Y-77719000D02*
X235769300Y-71837200D01*
X235769300Y-38707600D02*
X234569000Y-37507300D01*
X233828000Y-90001700D02*
X235769300Y-88060400D01*
X162239700Y-70561300D02*
X162239700Y-47652000D01*
X234569000Y-77719000D02*
X235769300Y-77719000D01*
X159522000Y-103124000D02*
X158021600Y-101623600D01*
X162239700Y-47652000D02*
X159522000Y-44934300D01*
X233553000Y-92202000D02*
X233553000Y-90001700D01*
%TO.N,GND*%
X161022300Y-100584000D02*
X161022300Y-99083700D01*
X159522000Y-100584000D02*
X161022300Y-100584000D01*
X207376000Y-84054000D02*
X207376000Y-85554300D01*
X223513500Y-27434000D02*
X223513500Y-37826500D01*
X175382000Y-73279000D02*
X173722300Y-73279000D01*
X172222000Y-73279000D02*
X173722300Y-73279000D01*
X158021700Y-52498400D02*
X158021700Y-42394300D01*
X207454500Y-103617000D02*
X206854400Y-103617000D01*
X159522000Y-55499000D02*
X159522000Y-53998700D01*
X159522000Y-40894000D02*
X161059500Y-39356500D01*
X223513500Y-49108000D02*
X223513500Y-37826500D01*
X161030900Y-69230100D02*
X161030900Y-57007900D01*
X158021700Y-42394300D02*
X159522000Y-40894000D01*
X206254200Y-103617000D02*
X206254200Y-86676100D01*
X206254200Y-86676100D02*
X207376000Y-85554300D01*
X223513500Y-71671000D02*
X223513500Y-60389500D01*
X161022400Y-86844400D02*
X159522000Y-85344000D01*
X166681300Y-99083600D02*
X161022400Y-99083600D01*
X223513500Y-82952500D02*
X223513500Y-71671000D01*
X161030900Y-57007900D02*
X159522000Y-55499000D01*
X206254200Y-103617000D02*
X201295000Y-103617000D01*
X223513500Y-60389500D02*
X223513500Y-49108000D01*
X180208000Y-78105000D02*
X175382000Y-73279000D01*
X159522000Y-53998700D02*
X158021700Y-52498400D01*
X161022300Y-99083700D02*
X161022400Y-99083600D01*
X170721700Y-103124000D02*
X166681300Y-99083600D01*
X172222000Y-103124000D02*
X170721700Y-103124000D01*
X159522000Y-70739000D02*
X161030900Y-69230100D01*
X161059500Y-27191500D02*
X159522000Y-25654000D01*
X206854400Y-103617000D02*
X206254200Y-103617000D01*
X161059500Y-39356500D02*
X161059500Y-27191500D01*
X161022400Y-99083600D02*
X161022400Y-86844400D01*
X223767500Y-27180000D02*
X223513500Y-27434000D01*
%TO.N,VCC*%
X210312000Y-89662000D02*
X210312000Y-85950300D01*
X213628900Y-39477100D02*
X212070000Y-41036000D01*
X209916000Y-84054000D02*
X209916000Y-85554300D01*
X213628900Y-27354900D02*
X213628900Y-39477100D01*
X212070000Y-25796000D02*
X213628900Y-27354900D01*
X210312000Y-85950300D02*
X209916000Y-85554300D01*
%TO.N,Net-(A4-Pad8)*%
X193147600Y-49793400D02*
X193147600Y-67122700D01*
X193147600Y-67122700D02*
X197947300Y-71922400D01*
X194681000Y-48260000D02*
X193147600Y-49793400D01*
X197947300Y-71922400D02*
X207944400Y-71922400D01*
X207944400Y-71922400D02*
X209916000Y-73894000D01*
%TO.N,Net-(A4-Pad6)*%
X190579500Y-80997200D02*
X190579500Y-56307500D01*
X190579500Y-56307500D02*
X191657300Y-55229700D01*
X192136000Y-84054000D02*
X192136000Y-82553700D01*
X192136000Y-82553700D02*
X190579500Y-80997200D01*
%TO.N,Net-(J5-Pad1)*%
X212002000Y-64727000D02*
X212002000Y-66111600D01*
X212002000Y-66111600D02*
X213614000Y-67723600D01*
X208997000Y-61722000D02*
X212002000Y-64727000D01*
X213614000Y-67723600D02*
X213614000Y-102347000D01*
%TO.N,Net-(A1-Pad4)*%
X153289000Y-38872000D02*
X153466000Y-38872000D01*
X159522000Y-33274000D02*
X158021700Y-33274000D01*
X153466000Y-38872000D02*
X156039700Y-36298300D01*
X156039700Y-36298300D02*
X156039700Y-35256000D01*
X156039700Y-35256000D02*
X158021700Y-33274000D01*
%TO.N,Net-(A1-Pad5)*%
X153289000Y-41412000D02*
X153289000Y-41329200D01*
X158021700Y-36596500D02*
X158021700Y-35814000D01*
X153289000Y-41412000D02*
X151738600Y-42962400D01*
X151738600Y-42962400D02*
X151738600Y-57006600D01*
X153289000Y-41329200D02*
X158021700Y-36596500D01*
X151738600Y-57006600D02*
X153289000Y-58557000D01*
X159522000Y-35814000D02*
X158021700Y-35814000D01*
%TO.N,Net-(A1-Pad6)*%
X154839300Y-43952000D02*
X154839300Y-59546700D01*
X158021700Y-38354000D02*
X154839300Y-41536400D01*
X153289000Y-43952000D02*
X154839300Y-43952000D01*
X154839300Y-59546700D02*
X153289000Y-61097000D01*
X154839300Y-41536400D02*
X154839300Y-43952000D01*
X159522000Y-38354000D02*
X158021700Y-38354000D01*
%TO.N,Net-(A2-Pad3)*%
X153289000Y-66812000D02*
X159522000Y-60579000D01*
X153289000Y-69071700D02*
X153289000Y-66812000D01*
X153289000Y-70622000D02*
X153289000Y-69071700D01*
%TO.N,Net-(A2-Pad5)*%
X155688400Y-69492600D02*
X159522000Y-65659000D01*
X153289000Y-75702000D02*
X155688400Y-73302600D01*
X155688400Y-73302600D02*
X155688400Y-69492600D01*
%TO.N,Net-(A2-Pad6)*%
X157206300Y-74324700D02*
X157206300Y-70514700D01*
X153289000Y-78242000D02*
X157206300Y-74324700D01*
X157206300Y-70514700D02*
X159522000Y-68199000D01*
%TO.N,Net-(A3-Pad13)*%
X172222000Y-90424000D02*
X172222000Y-92964000D01*
%TO.N,Net-(U2-Pad6)*%
X200409600Y-39996400D02*
X201910000Y-38496000D01*
X208997000Y-66802000D02*
X200409600Y-58214600D01*
X200409600Y-58214600D02*
X200409600Y-39996400D01*
%TO.N,Net-(U2-Pad7)*%
X203498400Y-42624400D02*
X201910000Y-41036000D01*
X208997000Y-64262000D02*
X203498400Y-58763400D01*
X203498400Y-58763400D02*
X203498400Y-42624400D01*
%TO.N,D5*%
X211836000Y-93218000D02*
X211836000Y-83836700D01*
X207454500Y-102347000D02*
X207454500Y-97599500D01*
X207454500Y-97599500D02*
X210312000Y-94742000D01*
X203393600Y-75394300D02*
X202296000Y-75394300D01*
X211836000Y-83836700D02*
X203393600Y-75394300D01*
X202296000Y-73894000D02*
X202296000Y-75394300D01*
X210312000Y-94742000D02*
X211836000Y-93218000D01*
%TO.N,D4*%
X201295000Y-102347000D02*
X201295000Y-101146700D01*
X203708000Y-94742000D02*
X203708000Y-98733700D01*
X203708000Y-98733700D02*
X201295000Y-101146700D01*
%TO.N,D3*%
X195135500Y-102347000D02*
X195135500Y-101146700D01*
X197104000Y-94742000D02*
X197104000Y-93286300D01*
X197104000Y-99178200D02*
X197104000Y-94742000D01*
X195135500Y-101146700D02*
X197104000Y-99178200D01*
X204836000Y-84054000D02*
X204836000Y-85554300D01*
X197104000Y-93286300D02*
X204836000Y-85554300D01*
%TO.N,D2*%
X188976000Y-91196000D02*
X190500000Y-89672000D01*
X199372800Y-86977200D02*
X193194800Y-86977200D01*
X202296000Y-84054000D02*
X199372800Y-86977200D01*
X193194800Y-86977200D02*
X190500000Y-89672000D01*
X188976000Y-102347000D02*
X188976000Y-91196000D01*
%TO.N,D1*%
X183769000Y-94742000D02*
X183769000Y-100194200D01*
X183769000Y-100194200D02*
X182816500Y-101146700D01*
X182816500Y-102347000D02*
X182816500Y-101146700D01*
%TO.N,D0*%
X176657000Y-94996000D02*
X176657000Y-102347000D01*
X176911000Y-94742000D02*
X176657000Y-94996000D01*
%TO.N,Net-(J5-Pad2)*%
X208997000Y-56642000D02*
X213202300Y-60847300D01*
X213202300Y-65614300D02*
X214814300Y-67226300D01*
X219773500Y-103617000D02*
X218573200Y-103617000D01*
X213202300Y-60847300D02*
X213202300Y-65614300D01*
X214814300Y-67226300D02*
X214814300Y-103617000D01*
X214814300Y-103617000D02*
X218573200Y-103617000D01*
X213614000Y-103617000D02*
X214814300Y-103617000D01*
%TO.N,Net-(A3-Pad16)*%
X180208000Y-79375000D02*
X178757700Y-79375000D01*
X172222000Y-85344000D02*
X176540400Y-85344000D01*
X180086000Y-84455000D02*
X178757700Y-83126700D01*
X178757700Y-83126700D02*
X178757700Y-79375000D01*
X176540400Y-85344000D02*
X178757700Y-83126700D01*
%TO.N,Net-(Q2-Pad1)*%
X212716900Y-24286900D02*
X218433500Y-30003500D01*
X204919400Y-24286900D02*
X212716900Y-24286900D01*
X218433500Y-30003500D02*
X218433500Y-37826500D01*
X203410300Y-25796000D02*
X204919400Y-24286900D01*
X201910000Y-25796000D02*
X203410300Y-25796000D01*
%TO.N,Net-(Q3-Pad1)*%
X215478800Y-49108000D02*
X209311400Y-42940600D01*
X218433500Y-49108000D02*
X216803200Y-49108000D01*
X209311400Y-35737400D02*
X201910000Y-28336000D01*
X216803200Y-49108000D02*
X215478800Y-49108000D01*
X209311400Y-42940600D02*
X209311400Y-35737400D01*
%TO.N,Net-(Q4-Pad1)*%
X208111100Y-43442900D02*
X208111100Y-37077100D01*
X208111100Y-37077100D02*
X201910000Y-30876000D01*
X218433500Y-60389500D02*
X218433500Y-53765300D01*
X218433500Y-53765300D02*
X208111100Y-43442900D01*
%TO.N,Net-(A2-Pad16)*%
X175678700Y-58955700D02*
X172222000Y-55499000D01*
X181858100Y-50922900D02*
X181858100Y-65800300D01*
X194681000Y-38100000D02*
X181858100Y-50922900D01*
X175678700Y-64399600D02*
X175678700Y-58955700D01*
X181858100Y-65800300D02*
X180086000Y-67572400D01*
X180086000Y-67572400D02*
X178851500Y-67572400D01*
X178851500Y-67572400D02*
X175678700Y-64399600D01*
X180086000Y-67572400D02*
X180086000Y-74549000D01*
%TO.N,Net-(Q5-Pad1)*%
X206910800Y-43940200D02*
X206910800Y-38416800D01*
X206910800Y-38416800D02*
X201910000Y-33416000D01*
X218433500Y-65228100D02*
X216803200Y-63597800D01*
X218433500Y-71671000D02*
X218433500Y-65228100D01*
X216803200Y-63597800D02*
X216803200Y-53832600D01*
X216803200Y-53832600D02*
X206910800Y-43940200D01*
%TO.N,Net-(Q6-Pad1)*%
X214402600Y-55156600D02*
X204984900Y-45738900D01*
X216803200Y-79691900D02*
X216803200Y-66992800D01*
X204984900Y-39030900D02*
X201910000Y-35956000D01*
X214402600Y-64592200D02*
X214402600Y-55156600D01*
X218433500Y-82952500D02*
X218433500Y-81322200D01*
X204984900Y-45738900D02*
X204984900Y-39030900D01*
X218433500Y-81322200D02*
X216803200Y-79691900D01*
X216803200Y-66992800D02*
X214402600Y-64592200D01*
%TO.N,Net-(A1-Pad13)*%
X172222000Y-30734000D02*
X172222000Y-33274000D01*
%TO.N,Net-(A4-Pad11)*%
X212070000Y-30876000D02*
X210569700Y-32376300D01*
X210569700Y-32376300D02*
X210569700Y-38114400D01*
%TO.N,Net-(A2-Pad13)*%
X172222000Y-60579000D02*
X172222000Y-63119000D01*
%TO.N,Net-(A4-Pad5)*%
X194681000Y-55880000D02*
X212123700Y-73322700D01*
X212123700Y-73322700D02*
X212123700Y-78654800D01*
%TO.N,Net-(M1-Pad2)*%
X220853000Y-99737300D02*
X224732700Y-103617000D01*
X225933000Y-103617000D02*
X224732700Y-103617000D01*
X220853000Y-94234000D02*
X220853000Y-99737300D01*
%TO.N,Net-(A1-Pad9)*%
X179441000Y-30480000D02*
X175694600Y-34226400D01*
X175694600Y-39961400D02*
X172222000Y-43434000D01*
X175694600Y-34226400D02*
X175694600Y-39961400D01*
%TO.N,Net-(A1-Pad16)*%
X194681000Y-33020000D02*
X193180700Y-33020000D01*
X185814700Y-25654000D02*
X172222000Y-25654000D01*
X193180700Y-33020000D02*
X185814700Y-25654000D01*
%TO.N,Net-(A2-Pad15)*%
X170709200Y-86371200D02*
X172222000Y-87884000D01*
X172222000Y-58039000D02*
X170709200Y-59551800D01*
X170709200Y-59551800D02*
X170709200Y-86371200D01*
%TD*%
M02*
