%TF.GenerationSoftware,KiCad,Pcbnew,(6.0.6-0)*%
%TF.CreationDate,2022-11-07T15:44:05+09:00*%
%TF.ProjectId,WB,57422e6b-6963-4616-945f-706362585858,rev?*%
%TF.SameCoordinates,Original*%
%TF.FileFunction,Profile,NP*%
%FSLAX46Y46*%
G04 Gerber Fmt 4.6, Leading zero omitted, Abs format (unit mm)*
G04 Created by KiCad (PCBNEW (6.0.6-0)) date 2022-11-07 15:44:05*
%MOMM*%
%LPD*%
G01*
G04 APERTURE LIST*
%TA.AperFunction,Profile*%
%ADD10C,0.100000*%
%TD*%
%ADD11C,0.150000*%
G04 APERTURE END LIST*
D10*
X238887000Y-106299000D02*
X149733000Y-106299000D01*
X149733000Y-106299000D02*
X149733000Y-22606000D01*
X149733000Y-22606000D02*
X238887000Y-22606000D01*
X238887000Y-22606000D02*
X238887000Y-106299000D01*
D11*
X152314333Y-76649000D02*
X152314333Y-77982333D01*
X151514333Y-76382333D02*
X154314333Y-77315666D01*
X151514333Y-78249000D01*
X153381000Y-80382333D02*
X151514333Y-80382333D01*
X153381000Y-79182333D02*
X151914333Y-79182333D01*
X151647666Y-79315666D01*
X151514333Y-79582333D01*
X151514333Y-79982333D01*
X151647666Y-80249000D01*
X151781000Y-80382333D01*
X153381000Y-81315666D02*
X153381000Y-82382333D01*
X154314333Y-81715666D02*
X151914333Y-81715666D01*
X151647666Y-81849000D01*
X151514333Y-82115666D01*
X151514333Y-82382333D01*
X151514333Y-83715666D02*
X151647666Y-83449000D01*
X151781000Y-83315666D01*
X152047666Y-83182333D01*
X152847666Y-83182333D01*
X153114333Y-83315666D01*
X153247666Y-83449000D01*
X153381000Y-83715666D01*
X153381000Y-84115666D01*
X153247666Y-84382333D01*
X153114333Y-84515666D01*
X152847666Y-84649000D01*
X152047666Y-84649000D01*
X151781000Y-84515666D01*
X151647666Y-84382333D01*
X151514333Y-84115666D01*
X151514333Y-83715666D01*
X152981000Y-85849000D02*
X152981000Y-86782333D01*
X151514333Y-87182333D02*
X151514333Y-85849000D01*
X154314333Y-85849000D01*
X154314333Y-87182333D01*
X151514333Y-88382333D02*
X153381000Y-88382333D01*
X152847666Y-88382333D02*
X153114333Y-88515666D01*
X153247666Y-88649000D01*
X153381000Y-88915666D01*
X153381000Y-89182333D01*
X151514333Y-91315666D02*
X152981000Y-91315666D01*
X153247666Y-91182333D01*
X153381000Y-90915666D01*
X153381000Y-90382333D01*
X153247666Y-90115666D01*
X151647666Y-91315666D02*
X151514333Y-91049000D01*
X151514333Y-90382333D01*
X151647666Y-90115666D01*
X151914333Y-89982333D01*
X152181000Y-89982333D01*
X152447666Y-90115666D01*
X152581000Y-90382333D01*
X152581000Y-91049000D01*
X152714333Y-91315666D01*
X151647666Y-92515666D02*
X151514333Y-92782333D01*
X151514333Y-93315666D01*
X151647666Y-93582333D01*
X151914333Y-93715666D01*
X152047666Y-93715666D01*
X152314333Y-93582333D01*
X152447666Y-93315666D01*
X152447666Y-92915666D01*
X152581000Y-92649000D01*
X152847666Y-92515666D01*
X152981000Y-92515666D01*
X153247666Y-92649000D01*
X153381000Y-92915666D01*
X153381000Y-93315666D01*
X153247666Y-93582333D01*
X151647666Y-95982333D02*
X151514333Y-95715666D01*
X151514333Y-95182333D01*
X151647666Y-94915666D01*
X151914333Y-94782333D01*
X152981000Y-94782333D01*
X153247666Y-94915666D01*
X153381000Y-95182333D01*
X153381000Y-95715666D01*
X153247666Y-95982333D01*
X152981000Y-96115666D01*
X152714333Y-96115666D01*
X152447666Y-94782333D01*
X151514333Y-97315666D02*
X153381000Y-97315666D01*
X152847666Y-97315666D02*
X153114333Y-97449000D01*
X153247666Y-97582333D01*
X153381000Y-97849000D01*
X153381000Y-98115666D01*
M02*
