%TF.GenerationSoftware,KiCad,Pcbnew,(6.0.6-0)*%
%TF.CreationDate,2022-11-10T09:38:14+09:00*%
%TF.ProjectId,WB,57422e6b-6963-4616-945f-706362585858,rev?*%
%TF.SameCoordinates,PX8ecbe88PY65dbed8*%
%TF.FileFunction,Legend,Top*%
%TF.FilePolarity,Positive*%
%FSLAX46Y46*%
G04 Gerber Fmt 4.6, Leading zero omitted, Abs format (unit mm)*
G04 Created by KiCad (PCBNEW (6.0.6-0)) date 2022-11-10 09:38:14*
%MOMM*%
%LPD*%
G01*
G04 APERTURE LIST*
%ADD10C,0.150000*%
%ADD11C,0.127000*%
%ADD12C,0.200000*%
%ADD13C,0.120000*%
%ADD14C,0.400000*%
G04 APERTURE END LIST*
D10*
%TO.C,Q2*%
X70272166Y72612834D02*
X70138833Y72679500D01*
X70005500Y72812834D01*
X69805500Y73012834D01*
X69672166Y73079500D01*
X69538833Y73079500D01*
X69605500Y72746167D02*
X69472166Y72812834D01*
X69338833Y72946167D01*
X69272166Y73212834D01*
X69272166Y73679500D01*
X69338833Y73946167D01*
X69472166Y74079500D01*
X69605500Y74146167D01*
X69872166Y74146167D01*
X70005500Y74079500D01*
X70138833Y73946167D01*
X70205500Y73679500D01*
X70205500Y73212834D01*
X70138833Y72946167D01*
X70005500Y72812834D01*
X69872166Y72746167D01*
X69605500Y72746167D01*
X70738833Y74012834D02*
X70805500Y74079500D01*
X70938833Y74146167D01*
X71272166Y74146167D01*
X71405500Y74079500D01*
X71472166Y74012834D01*
X71538833Y73879500D01*
X71538833Y73746167D01*
X71472166Y73546167D01*
X70672166Y72746167D01*
X71538833Y72746167D01*
%TO.C,A2*%
X15424714Y53681334D02*
X15900904Y53681334D01*
X15329476Y53395620D02*
X15662809Y54395620D01*
X15996142Y53395620D01*
X16281857Y54300381D02*
X16329476Y54348000D01*
X16424714Y54395620D01*
X16662809Y54395620D01*
X16758047Y54348000D01*
X16805666Y54300381D01*
X16853285Y54205143D01*
X16853285Y54109905D01*
X16805666Y53967048D01*
X16234238Y53395620D01*
X16853285Y53395620D01*
%TO.C,MH1*%
X2603666Y73715620D02*
X2603666Y74715620D01*
X2937000Y74001334D01*
X3270333Y74715620D01*
X3270333Y73715620D01*
X3746523Y73715620D02*
X3746523Y74715620D01*
X3746523Y74239429D02*
X4317952Y74239429D01*
X4317952Y73715620D02*
X4317952Y74715620D01*
X5317952Y73715620D02*
X4746523Y73715620D01*
X5032238Y73715620D02*
X5032238Y74715620D01*
X4937000Y74572762D01*
X4841761Y74477524D01*
X4746523Y74429905D01*
%TO.C,Q8*%
X34582619Y27336762D02*
X34535000Y27241524D01*
X34439761Y27146286D01*
X34296904Y27003429D01*
X34249285Y26908191D01*
X34249285Y26812953D01*
X34487380Y26860572D02*
X34439761Y26765334D01*
X34344523Y26670096D01*
X34154047Y26622477D01*
X33820714Y26622477D01*
X33630238Y26670096D01*
X33535000Y26765334D01*
X33487380Y26860572D01*
X33487380Y27051048D01*
X33535000Y27146286D01*
X33630238Y27241524D01*
X33820714Y27289143D01*
X34154047Y27289143D01*
X34344523Y27241524D01*
X34439761Y27146286D01*
X34487380Y27051048D01*
X34487380Y26860572D01*
X33915952Y27860572D02*
X33868333Y27765334D01*
X33820714Y27717715D01*
X33725476Y27670096D01*
X33677857Y27670096D01*
X33582619Y27717715D01*
X33535000Y27765334D01*
X33487380Y27860572D01*
X33487380Y28051048D01*
X33535000Y28146286D01*
X33582619Y28193905D01*
X33677857Y28241524D01*
X33725476Y28241524D01*
X33820714Y28193905D01*
X33868333Y28146286D01*
X33915952Y28051048D01*
X33915952Y27860572D01*
X33963571Y27765334D01*
X34011190Y27717715D01*
X34106428Y27670096D01*
X34296904Y27670096D01*
X34392142Y27717715D01*
X34439761Y27765334D01*
X34487380Y27860572D01*
X34487380Y28051048D01*
X34439761Y28146286D01*
X34392142Y28193905D01*
X34296904Y28241524D01*
X34106428Y28241524D01*
X34011190Y28193905D01*
X33963571Y28146286D01*
X33915952Y28051048D01*
%TO.C,R7*%
X32726333Y24419620D02*
X32393000Y24895810D01*
X32154904Y24419620D02*
X32154904Y25419620D01*
X32535857Y25419620D01*
X32631095Y25372000D01*
X32678714Y25324381D01*
X32726333Y25229143D01*
X32726333Y25086286D01*
X32678714Y24991048D01*
X32631095Y24943429D01*
X32535857Y24895810D01*
X32154904Y24895810D01*
X33059666Y25419620D02*
X33726333Y25419620D01*
X33297761Y24419620D01*
%TO.C,R3*%
X43739380Y14428334D02*
X43263190Y14095000D01*
X43739380Y13856905D02*
X42739380Y13856905D01*
X42739380Y14237858D01*
X42787000Y14333096D01*
X42834619Y14380715D01*
X42929857Y14428334D01*
X43072714Y14428334D01*
X43167952Y14380715D01*
X43215571Y14333096D01*
X43263190Y14237858D01*
X43263190Y13856905D01*
X42739380Y14761667D02*
X42739380Y15380715D01*
X43120333Y15047381D01*
X43120333Y15190239D01*
X43167952Y15285477D01*
X43215571Y15333096D01*
X43310809Y15380715D01*
X43548904Y15380715D01*
X43644142Y15333096D01*
X43691761Y15285477D01*
X43739380Y15190239D01*
X43739380Y14904524D01*
X43691761Y14809286D01*
X43644142Y14761667D01*
%TO.C,D1*%
X84097904Y73012620D02*
X84097904Y74012620D01*
X84336000Y74012620D01*
X84478857Y73965000D01*
X84574095Y73869762D01*
X84621714Y73774524D01*
X84669333Y73584048D01*
X84669333Y73441191D01*
X84621714Y73250715D01*
X84574095Y73155477D01*
X84478857Y73060239D01*
X84336000Y73012620D01*
X84097904Y73012620D01*
X85621714Y73012620D02*
X85050285Y73012620D01*
X85336000Y73012620D02*
X85336000Y74012620D01*
X85240761Y73869762D01*
X85145523Y73774524D01*
X85050285Y73726905D01*
%TO.C,R8*%
X32726333Y34325620D02*
X32393000Y34801810D01*
X32154904Y34325620D02*
X32154904Y35325620D01*
X32535857Y35325620D01*
X32631095Y35278000D01*
X32678714Y35230381D01*
X32726333Y35135143D01*
X32726333Y34992286D01*
X32678714Y34897048D01*
X32631095Y34849429D01*
X32535857Y34801810D01*
X32154904Y34801810D01*
X33297761Y34897048D02*
X33202523Y34944667D01*
X33154904Y34992286D01*
X33107285Y35087524D01*
X33107285Y35135143D01*
X33154904Y35230381D01*
X33202523Y35278000D01*
X33297761Y35325620D01*
X33488238Y35325620D01*
X33583476Y35278000D01*
X33631095Y35230381D01*
X33678714Y35135143D01*
X33678714Y35087524D01*
X33631095Y34992286D01*
X33583476Y34944667D01*
X33488238Y34897048D01*
X33297761Y34897048D01*
X33202523Y34849429D01*
X33154904Y34801810D01*
X33107285Y34706572D01*
X33107285Y34516096D01*
X33154904Y34420858D01*
X33202523Y34373239D01*
X33297761Y34325620D01*
X33488238Y34325620D01*
X33583476Y34373239D01*
X33631095Y34420858D01*
X33678714Y34516096D01*
X33678714Y34706572D01*
X33631095Y34801810D01*
X33583476Y34849429D01*
X33488238Y34897048D01*
%TO.C,SW5*%
X50228666Y5750239D02*
X50371523Y5702620D01*
X50609619Y5702620D01*
X50704857Y5750239D01*
X50752476Y5797858D01*
X50800095Y5893096D01*
X50800095Y5988334D01*
X50752476Y6083572D01*
X50704857Y6131191D01*
X50609619Y6178810D01*
X50419142Y6226429D01*
X50323904Y6274048D01*
X50276285Y6321667D01*
X50228666Y6416905D01*
X50228666Y6512143D01*
X50276285Y6607381D01*
X50323904Y6655000D01*
X50419142Y6702620D01*
X50657238Y6702620D01*
X50800095Y6655000D01*
X51133428Y6702620D02*
X51371523Y5702620D01*
X51562000Y6416905D01*
X51752476Y5702620D01*
X51990571Y6702620D01*
X52847714Y6702620D02*
X52371523Y6702620D01*
X52323904Y6226429D01*
X52371523Y6274048D01*
X52466761Y6321667D01*
X52704857Y6321667D01*
X52800095Y6274048D01*
X52847714Y6226429D01*
X52895333Y6131191D01*
X52895333Y5893096D01*
X52847714Y5797858D01*
X52800095Y5750239D01*
X52704857Y5702620D01*
X52466761Y5702620D01*
X52371523Y5750239D01*
X52323904Y5797858D01*
%TO.C,SW1*%
X25590666Y5750239D02*
X25733523Y5702620D01*
X25971619Y5702620D01*
X26066857Y5750239D01*
X26114476Y5797858D01*
X26162095Y5893096D01*
X26162095Y5988334D01*
X26114476Y6083572D01*
X26066857Y6131191D01*
X25971619Y6178810D01*
X25781142Y6226429D01*
X25685904Y6274048D01*
X25638285Y6321667D01*
X25590666Y6416905D01*
X25590666Y6512143D01*
X25638285Y6607381D01*
X25685904Y6655000D01*
X25781142Y6702620D01*
X26019238Y6702620D01*
X26162095Y6655000D01*
X26495428Y6702620D02*
X26733523Y5702620D01*
X26924000Y6416905D01*
X27114476Y5702620D01*
X27352571Y6702620D01*
X28257333Y5702620D02*
X27685904Y5702620D01*
X27971619Y5702620D02*
X27971619Y6702620D01*
X27876380Y6559762D01*
X27781142Y6464524D01*
X27685904Y6416905D01*
%TO.C,J2*%
X3222666Y56207620D02*
X3222666Y55493334D01*
X3175047Y55350477D01*
X3079809Y55255239D01*
X2936952Y55207620D01*
X2841714Y55207620D01*
X3651238Y56112381D02*
X3698857Y56160000D01*
X3794095Y56207620D01*
X4032190Y56207620D01*
X4127428Y56160000D01*
X4175047Y56112381D01*
X4222666Y56017143D01*
X4222666Y55921905D01*
X4175047Y55779048D01*
X3603619Y55207620D01*
X4222666Y55207620D01*
%TO.C,R1*%
X25110380Y14438334D02*
X24634190Y14105000D01*
X25110380Y13866905D02*
X24110380Y13866905D01*
X24110380Y14247858D01*
X24158000Y14343096D01*
X24205619Y14390715D01*
X24300857Y14438334D01*
X24443714Y14438334D01*
X24538952Y14390715D01*
X24586571Y14343096D01*
X24634190Y14247858D01*
X24634190Y13866905D01*
X25110380Y15390715D02*
X25110380Y14819286D01*
X25110380Y15105000D02*
X24110380Y15105000D01*
X24253238Y15009762D01*
X24348476Y14914524D01*
X24396095Y14819286D01*
%TO.C,R5*%
X51907380Y14438334D02*
X51431190Y14105000D01*
X51907380Y13866905D02*
X50907380Y13866905D01*
X50907380Y14247858D01*
X50955000Y14343096D01*
X51002619Y14390715D01*
X51097857Y14438334D01*
X51240714Y14438334D01*
X51335952Y14390715D01*
X51383571Y14343096D01*
X51431190Y14247858D01*
X51431190Y13866905D01*
X50907380Y15343096D02*
X50907380Y14866905D01*
X51383571Y14819286D01*
X51335952Y14866905D01*
X51288333Y14962143D01*
X51288333Y15200239D01*
X51335952Y15295477D01*
X51383571Y15343096D01*
X51478809Y15390715D01*
X51716904Y15390715D01*
X51812142Y15343096D01*
X51859761Y15295477D01*
X51907380Y15200239D01*
X51907380Y14962143D01*
X51859761Y14866905D01*
X51812142Y14819286D01*
%TO.C,U1*%
X61965380Y27071096D02*
X62774904Y27071096D01*
X62870142Y27118715D01*
X62917761Y27166334D01*
X62965380Y27261572D01*
X62965380Y27452048D01*
X62917761Y27547286D01*
X62870142Y27594905D01*
X62774904Y27642524D01*
X61965380Y27642524D01*
X62965380Y28642524D02*
X62965380Y28071096D01*
X62965380Y28356810D02*
X61965380Y28356810D01*
X62108238Y28261572D01*
X62203476Y28166334D01*
X62251095Y28071096D01*
%TO.C,Q1*%
X70526166Y83259334D02*
X70392833Y83326000D01*
X70259500Y83459334D01*
X70059500Y83659334D01*
X69926166Y83726000D01*
X69792833Y83726000D01*
X69859500Y83392667D02*
X69726166Y83459334D01*
X69592833Y83592667D01*
X69526166Y83859334D01*
X69526166Y84326000D01*
X69592833Y84592667D01*
X69726166Y84726000D01*
X69859500Y84792667D01*
X70126166Y84792667D01*
X70259500Y84726000D01*
X70392833Y84592667D01*
X70459500Y84326000D01*
X70459500Y83859334D01*
X70392833Y83592667D01*
X70259500Y83459334D01*
X70126166Y83392667D01*
X69859500Y83392667D01*
X71792833Y83392667D02*
X70992833Y83392667D01*
X71392833Y83392667D02*
X71392833Y84792667D01*
X71259500Y84592667D01*
X71126166Y84459334D01*
X70992833Y84392667D01*
%TO.C,MH2*%
X4635666Y8310620D02*
X4635666Y9310620D01*
X4969000Y8596334D01*
X5302333Y9310620D01*
X5302333Y8310620D01*
X5778523Y8310620D02*
X5778523Y9310620D01*
X5778523Y8834429D02*
X6349952Y8834429D01*
X6349952Y8310620D02*
X6349952Y9310620D01*
X6778523Y9215381D02*
X6826142Y9263000D01*
X6921380Y9310620D01*
X7159476Y9310620D01*
X7254714Y9263000D01*
X7302333Y9215381D01*
X7349952Y9120143D01*
X7349952Y9024905D01*
X7302333Y8882048D01*
X6730904Y8310620D01*
X7349952Y8310620D01*
%TO.C,Q3*%
X70272166Y61331334D02*
X70138833Y61398000D01*
X70005500Y61531334D01*
X69805500Y61731334D01*
X69672166Y61798000D01*
X69538833Y61798000D01*
X69605500Y61464667D02*
X69472166Y61531334D01*
X69338833Y61664667D01*
X69272166Y61931334D01*
X69272166Y62398000D01*
X69338833Y62664667D01*
X69472166Y62798000D01*
X69605500Y62864667D01*
X69872166Y62864667D01*
X70005500Y62798000D01*
X70138833Y62664667D01*
X70205500Y62398000D01*
X70205500Y61931334D01*
X70138833Y61664667D01*
X70005500Y61531334D01*
X69872166Y61464667D01*
X69605500Y61464667D01*
X70672166Y62864667D02*
X71538833Y62864667D01*
X71072166Y62331334D01*
X71272166Y62331334D01*
X71405500Y62264667D01*
X71472166Y62198000D01*
X71538833Y62064667D01*
X71538833Y61731334D01*
X71472166Y61598000D01*
X71405500Y61531334D01*
X71272166Y61464667D01*
X70872166Y61464667D01*
X70738833Y61531334D01*
X70672166Y61598000D01*
%TO.C,U2*%
X56495095Y83888620D02*
X56495095Y83079096D01*
X56542714Y82983858D01*
X56590333Y82936239D01*
X56685571Y82888620D01*
X56876047Y82888620D01*
X56971285Y82936239D01*
X57018904Y82983858D01*
X57066523Y83079096D01*
X57066523Y83888620D01*
X57495095Y83793381D02*
X57542714Y83841000D01*
X57637952Y83888620D01*
X57876047Y83888620D01*
X57971285Y83841000D01*
X58018904Y83793381D01*
X58066523Y83698143D01*
X58066523Y83602905D01*
X58018904Y83460048D01*
X57447476Y82888620D01*
X58066523Y82888620D01*
%TO.C,A1*%
X15424714Y83526334D02*
X15900904Y83526334D01*
X15329476Y83240620D02*
X15662809Y84240620D01*
X15996142Y83240620D01*
X16853285Y83240620D02*
X16281857Y83240620D01*
X16567571Y83240620D02*
X16567571Y84240620D01*
X16472333Y84097762D01*
X16377095Y84002524D01*
X16281857Y83954905D01*
%TO.C,SW2*%
X31750166Y5750239D02*
X31893023Y5702620D01*
X32131119Y5702620D01*
X32226357Y5750239D01*
X32273976Y5797858D01*
X32321595Y5893096D01*
X32321595Y5988334D01*
X32273976Y6083572D01*
X32226357Y6131191D01*
X32131119Y6178810D01*
X31940642Y6226429D01*
X31845404Y6274048D01*
X31797785Y6321667D01*
X31750166Y6416905D01*
X31750166Y6512143D01*
X31797785Y6607381D01*
X31845404Y6655000D01*
X31940642Y6702620D01*
X32178738Y6702620D01*
X32321595Y6655000D01*
X32654928Y6702620D02*
X32893023Y5702620D01*
X33083500Y6416905D01*
X33273976Y5702620D01*
X33512071Y6702620D01*
X33845404Y6607381D02*
X33893023Y6655000D01*
X33988261Y6702620D01*
X34226357Y6702620D01*
X34321595Y6655000D01*
X34369214Y6607381D01*
X34416833Y6512143D01*
X34416833Y6416905D01*
X34369214Y6274048D01*
X33797785Y5702620D01*
X34416833Y5702620D01*
%TO.C,MH4*%
X83121666Y74477620D02*
X83121666Y75477620D01*
X83455000Y74763334D01*
X83788333Y75477620D01*
X83788333Y74477620D01*
X84264523Y74477620D02*
X84264523Y75477620D01*
X84264523Y75001429D02*
X84835952Y75001429D01*
X84835952Y74477620D02*
X84835952Y75477620D01*
X85740714Y75144286D02*
X85740714Y74477620D01*
X85502619Y75525239D02*
X85264523Y74810953D01*
X85883571Y74810953D01*
%TO.C,J5*%
X84502666Y32600620D02*
X84502666Y31886334D01*
X84455047Y31743477D01*
X84359809Y31648239D01*
X84216952Y31600620D01*
X84121714Y31600620D01*
X85455047Y32600620D02*
X84978857Y32600620D01*
X84931238Y32124429D01*
X84978857Y32172048D01*
X85074095Y32219667D01*
X85312190Y32219667D01*
X85407428Y32172048D01*
X85455047Y32124429D01*
X85502666Y32029191D01*
X85502666Y31791096D01*
X85455047Y31695858D01*
X85407428Y31648239D01*
X85312190Y31600620D01*
X85074095Y31600620D01*
X84978857Y31648239D01*
X84931238Y31695858D01*
%TO.C,D4*%
X84097904Y48165420D02*
X84097904Y49165420D01*
X84336000Y49165420D01*
X84478857Y49117800D01*
X84574095Y49022562D01*
X84621714Y48927324D01*
X84669333Y48736848D01*
X84669333Y48593991D01*
X84621714Y48403515D01*
X84574095Y48308277D01*
X84478857Y48213039D01*
X84336000Y48165420D01*
X84097904Y48165420D01*
X85526476Y48832086D02*
X85526476Y48165420D01*
X85288380Y49213039D02*
X85050285Y48498753D01*
X85669333Y48498753D01*
%TO.C,Q4*%
X70272166Y50049834D02*
X70138833Y50116500D01*
X70005500Y50249834D01*
X69805500Y50449834D01*
X69672166Y50516500D01*
X69538833Y50516500D01*
X69605500Y50183167D02*
X69472166Y50249834D01*
X69338833Y50383167D01*
X69272166Y50649834D01*
X69272166Y51116500D01*
X69338833Y51383167D01*
X69472166Y51516500D01*
X69605500Y51583167D01*
X69872166Y51583167D01*
X70005500Y51516500D01*
X70138833Y51383167D01*
X70205500Y51116500D01*
X70205500Y50649834D01*
X70138833Y50383167D01*
X70005500Y50249834D01*
X69872166Y50183167D01*
X69605500Y50183167D01*
X71405500Y51116500D02*
X71405500Y50183167D01*
X71072166Y51649834D02*
X70738833Y50649834D01*
X71605500Y50649834D01*
%TO.C,Q5*%
X70272166Y38768334D02*
X70138833Y38835000D01*
X70005500Y38968334D01*
X69805500Y39168334D01*
X69672166Y39235000D01*
X69538833Y39235000D01*
X69605500Y38901667D02*
X69472166Y38968334D01*
X69338833Y39101667D01*
X69272166Y39368334D01*
X69272166Y39835000D01*
X69338833Y40101667D01*
X69472166Y40235000D01*
X69605500Y40301667D01*
X69872166Y40301667D01*
X70005500Y40235000D01*
X70138833Y40101667D01*
X70205500Y39835000D01*
X70205500Y39368334D01*
X70138833Y39101667D01*
X70005500Y38968334D01*
X69872166Y38901667D01*
X69605500Y38901667D01*
X71472166Y40301667D02*
X70805500Y40301667D01*
X70738833Y39635000D01*
X70805500Y39701667D01*
X70938833Y39768334D01*
X71272166Y39768334D01*
X71405500Y39701667D01*
X71472166Y39635000D01*
X71538833Y39501667D01*
X71538833Y39168334D01*
X71472166Y39035000D01*
X71405500Y38968334D01*
X71272166Y38901667D01*
X70938833Y38901667D01*
X70805500Y38968334D01*
X70738833Y39035000D01*
%TO.C,R2*%
X31968380Y14438334D02*
X31492190Y14105000D01*
X31968380Y13866905D02*
X30968380Y13866905D01*
X30968380Y14247858D01*
X31016000Y14343096D01*
X31063619Y14390715D01*
X31158857Y14438334D01*
X31301714Y14438334D01*
X31396952Y14390715D01*
X31444571Y14343096D01*
X31492190Y14247858D01*
X31492190Y13866905D01*
X31063619Y14819286D02*
X31016000Y14866905D01*
X30968380Y14962143D01*
X30968380Y15200239D01*
X31016000Y15295477D01*
X31063619Y15343096D01*
X31158857Y15390715D01*
X31254095Y15390715D01*
X31396952Y15343096D01*
X31968380Y14771667D01*
X31968380Y15390715D01*
%TO.C,D5*%
X84097904Y39883020D02*
X84097904Y40883020D01*
X84336000Y40883020D01*
X84478857Y40835400D01*
X84574095Y40740162D01*
X84621714Y40644924D01*
X84669333Y40454448D01*
X84669333Y40311591D01*
X84621714Y40121115D01*
X84574095Y40025877D01*
X84478857Y39930639D01*
X84336000Y39883020D01*
X84097904Y39883020D01*
X85574095Y40883020D02*
X85097904Y40883020D01*
X85050285Y40406829D01*
X85097904Y40454448D01*
X85193142Y40502067D01*
X85431238Y40502067D01*
X85526476Y40454448D01*
X85574095Y40406829D01*
X85621714Y40311591D01*
X85621714Y40073496D01*
X85574095Y39978258D01*
X85526476Y39930639D01*
X85431238Y39883020D01*
X85193142Y39883020D01*
X85097904Y39930639D01*
X85050285Y39978258D01*
%TO.C,J3*%
X1948809Y39062620D02*
X1948809Y38348334D01*
X1901190Y38205477D01*
X1805952Y38110239D01*
X1663095Y38062620D01*
X1567857Y38062620D01*
X2329762Y39062620D02*
X2948809Y39062620D01*
X2615476Y38681667D01*
X2758333Y38681667D01*
X2853571Y38634048D01*
X2901190Y38586429D01*
X2948809Y38491191D01*
X2948809Y38253096D01*
X2901190Y38157858D01*
X2853571Y38110239D01*
X2758333Y38062620D01*
X2472619Y38062620D01*
X2377381Y38110239D01*
X2329762Y38157858D01*
%TO.C,J7*%
X69707166Y6702620D02*
X69707166Y5988334D01*
X69659547Y5845477D01*
X69564309Y5750239D01*
X69421452Y5702620D01*
X69326214Y5702620D01*
X70088119Y6702620D02*
X70754785Y6702620D01*
X70326214Y5702620D01*
%TO.C,A3*%
X15424714Y23836334D02*
X15900904Y23836334D01*
X15329476Y23550620D02*
X15662809Y24550620D01*
X15996142Y23550620D01*
X16234238Y24550620D02*
X16853285Y24550620D01*
X16519952Y24169667D01*
X16662809Y24169667D01*
X16758047Y24122048D01*
X16805666Y24074429D01*
X16853285Y23979191D01*
X16853285Y23741096D01*
X16805666Y23645858D01*
X16758047Y23598239D01*
X16662809Y23550620D01*
X16377095Y23550620D01*
X16281857Y23598239D01*
X16234238Y23645858D01*
%TO.C,Q6*%
X70272166Y27486834D02*
X70138833Y27553500D01*
X70005500Y27686834D01*
X69805500Y27886834D01*
X69672166Y27953500D01*
X69538833Y27953500D01*
X69605500Y27620167D02*
X69472166Y27686834D01*
X69338833Y27820167D01*
X69272166Y28086834D01*
X69272166Y28553500D01*
X69338833Y28820167D01*
X69472166Y28953500D01*
X69605500Y29020167D01*
X69872166Y29020167D01*
X70005500Y28953500D01*
X70138833Y28820167D01*
X70205500Y28553500D01*
X70205500Y28086834D01*
X70138833Y27820167D01*
X70005500Y27686834D01*
X69872166Y27620167D01*
X69605500Y27620167D01*
X71405500Y29020167D02*
X71138833Y29020167D01*
X71005500Y28953500D01*
X70938833Y28886834D01*
X70805500Y28686834D01*
X70738833Y28420167D01*
X70738833Y27886834D01*
X70805500Y27753500D01*
X70872166Y27686834D01*
X71005500Y27620167D01*
X71272166Y27620167D01*
X71405500Y27686834D01*
X71472166Y27753500D01*
X71538833Y27886834D01*
X71538833Y28220167D01*
X71472166Y28353500D01*
X71405500Y28420167D01*
X71272166Y28486834D01*
X71005500Y28486834D01*
X70872166Y28420167D01*
X70805500Y28353500D01*
X70738833Y28220167D01*
%TO.C,J8*%
X78192380Y16811667D02*
X78906666Y16811667D01*
X79049523Y16764048D01*
X79144761Y16668810D01*
X79192380Y16525953D01*
X79192380Y16430715D01*
X78620952Y17430715D02*
X78573333Y17335477D01*
X78525714Y17287858D01*
X78430476Y17240239D01*
X78382857Y17240239D01*
X78287619Y17287858D01*
X78240000Y17335477D01*
X78192380Y17430715D01*
X78192380Y17621191D01*
X78240000Y17716429D01*
X78287619Y17764048D01*
X78382857Y17811667D01*
X78430476Y17811667D01*
X78525714Y17764048D01*
X78573333Y17716429D01*
X78620952Y17621191D01*
X78620952Y17430715D01*
X78668571Y17335477D01*
X78716190Y17287858D01*
X78811428Y17240239D01*
X79001904Y17240239D01*
X79097142Y17287858D01*
X79144761Y17335477D01*
X79192380Y17430715D01*
X79192380Y17621191D01*
X79144761Y17716429D01*
X79097142Y17764048D01*
X79001904Y17811667D01*
X78811428Y17811667D01*
X78716190Y17764048D01*
X78668571Y17716429D01*
X78620952Y17621191D01*
%TO.C,U3*%
X48801976Y50400012D02*
X50441402Y50400012D01*
X50634276Y50496448D01*
X50730712Y50592885D01*
X50827149Y50785759D01*
X50827149Y51171506D01*
X50730712Y51364380D01*
X50634276Y51460816D01*
X50441402Y51557253D01*
X48801976Y51557253D01*
X48801976Y52328748D02*
X48801976Y53582426D01*
X49573471Y52907369D01*
X49573471Y53196679D01*
X49669907Y53389553D01*
X49766344Y53485989D01*
X49959218Y53582426D01*
X50441402Y53582426D01*
X50634276Y53485989D01*
X50730712Y53389553D01*
X50827149Y53196679D01*
X50827149Y52618058D01*
X50730712Y52425185D01*
X50634276Y52328748D01*
%TO.C,MH3*%
X82613666Y8065620D02*
X82613666Y9065620D01*
X82947000Y8351334D01*
X83280333Y9065620D01*
X83280333Y8065620D01*
X83756523Y8065620D02*
X83756523Y9065620D01*
X83756523Y8589429D02*
X84327952Y8589429D01*
X84327952Y8065620D02*
X84327952Y9065620D01*
X84708904Y9065620D02*
X85327952Y9065620D01*
X84994619Y8684667D01*
X85137476Y8684667D01*
X85232714Y8637048D01*
X85280333Y8589429D01*
X85327952Y8494191D01*
X85327952Y8256096D01*
X85280333Y8160858D01*
X85232714Y8113239D01*
X85137476Y8065620D01*
X84851761Y8065620D01*
X84756523Y8113239D01*
X84708904Y8160858D01*
%TO.C,J6*%
X63547666Y6702620D02*
X63547666Y5988334D01*
X63500047Y5845477D01*
X63404809Y5750239D01*
X63261952Y5702620D01*
X63166714Y5702620D01*
X64452428Y6702620D02*
X64261952Y6702620D01*
X64166714Y6655000D01*
X64119095Y6607381D01*
X64023857Y6464524D01*
X63976238Y6274048D01*
X63976238Y5893096D01*
X64023857Y5797858D01*
X64071476Y5750239D01*
X64166714Y5702620D01*
X64357190Y5702620D01*
X64452428Y5750239D01*
X64500047Y5797858D01*
X64547666Y5893096D01*
X64547666Y6131191D01*
X64500047Y6226429D01*
X64452428Y6274048D01*
X64357190Y6321667D01*
X64166714Y6321667D01*
X64071476Y6274048D01*
X64023857Y6226429D01*
X63976238Y6131191D01*
%TO.C,R4*%
X45303380Y14438334D02*
X44827190Y14105000D01*
X45303380Y13866905D02*
X44303380Y13866905D01*
X44303380Y14247858D01*
X44351000Y14343096D01*
X44398619Y14390715D01*
X44493857Y14438334D01*
X44636714Y14438334D01*
X44731952Y14390715D01*
X44779571Y14343096D01*
X44827190Y14247858D01*
X44827190Y13866905D01*
X44636714Y15295477D02*
X45303380Y15295477D01*
X44255761Y15057381D02*
X44970047Y14819286D01*
X44970047Y15438334D01*
%TO.C,SW3*%
X37909666Y5750239D02*
X38052523Y5702620D01*
X38290619Y5702620D01*
X38385857Y5750239D01*
X38433476Y5797858D01*
X38481095Y5893096D01*
X38481095Y5988334D01*
X38433476Y6083572D01*
X38385857Y6131191D01*
X38290619Y6178810D01*
X38100142Y6226429D01*
X38004904Y6274048D01*
X37957285Y6321667D01*
X37909666Y6416905D01*
X37909666Y6512143D01*
X37957285Y6607381D01*
X38004904Y6655000D01*
X38100142Y6702620D01*
X38338238Y6702620D01*
X38481095Y6655000D01*
X38814428Y6702620D02*
X39052523Y5702620D01*
X39243000Y6416905D01*
X39433476Y5702620D01*
X39671571Y6702620D01*
X39957285Y6702620D02*
X40576333Y6702620D01*
X40243000Y6321667D01*
X40385857Y6321667D01*
X40481095Y6274048D01*
X40528714Y6226429D01*
X40576333Y6131191D01*
X40576333Y5893096D01*
X40528714Y5797858D01*
X40481095Y5750239D01*
X40385857Y5702620D01*
X40100142Y5702620D01*
X40004904Y5750239D01*
X39957285Y5797858D01*
%TO.C,SW4*%
X44069166Y5750239D02*
X44212023Y5702620D01*
X44450119Y5702620D01*
X44545357Y5750239D01*
X44592976Y5797858D01*
X44640595Y5893096D01*
X44640595Y5988334D01*
X44592976Y6083572D01*
X44545357Y6131191D01*
X44450119Y6178810D01*
X44259642Y6226429D01*
X44164404Y6274048D01*
X44116785Y6321667D01*
X44069166Y6416905D01*
X44069166Y6512143D01*
X44116785Y6607381D01*
X44164404Y6655000D01*
X44259642Y6702620D01*
X44497738Y6702620D01*
X44640595Y6655000D01*
X44973928Y6702620D02*
X45212023Y5702620D01*
X45402500Y6416905D01*
X45592976Y5702620D01*
X45831071Y6702620D01*
X46640595Y6369286D02*
X46640595Y5702620D01*
X46402500Y6750239D02*
X46164404Y6035953D01*
X46783452Y6035953D01*
%TO.C,A4*%
X47418714Y40854334D02*
X47894904Y40854334D01*
X47323476Y40568620D02*
X47656809Y41568620D01*
X47990142Y40568620D01*
X48752047Y41235286D02*
X48752047Y40568620D01*
X48513952Y41616239D02*
X48275857Y40901953D01*
X48894904Y40901953D01*
%TO.C,J4*%
X3222666Y21917620D02*
X3222666Y21203334D01*
X3175047Y21060477D01*
X3079809Y20965239D01*
X2936952Y20917620D01*
X2841714Y20917620D01*
X4127428Y21584286D02*
X4127428Y20917620D01*
X3889333Y21965239D02*
X3651238Y21250953D01*
X4270285Y21250953D01*
%TO.C,M1*%
X75390476Y5702620D02*
X75390476Y6702620D01*
X75723809Y5988334D01*
X76057142Y6702620D01*
X76057142Y5702620D01*
X77057142Y5702620D02*
X76485714Y5702620D01*
X76771428Y5702620D02*
X76771428Y6702620D01*
X76676190Y6559762D01*
X76580952Y6464524D01*
X76485714Y6416905D01*
%TO.C,J1*%
X3222666Y73352620D02*
X3222666Y72638334D01*
X3175047Y72495477D01*
X3079809Y72400239D01*
X2936952Y72352620D01*
X2841714Y72352620D01*
X4222666Y72352620D02*
X3651238Y72352620D01*
X3936952Y72352620D02*
X3936952Y73352620D01*
X3841714Y73209762D01*
X3746476Y73114524D01*
X3651238Y73066905D01*
%TO.C,D2*%
X84097904Y64730220D02*
X84097904Y65730220D01*
X84336000Y65730220D01*
X84478857Y65682600D01*
X84574095Y65587362D01*
X84621714Y65492124D01*
X84669333Y65301648D01*
X84669333Y65158791D01*
X84621714Y64968315D01*
X84574095Y64873077D01*
X84478857Y64777839D01*
X84336000Y64730220D01*
X84097904Y64730220D01*
X85050285Y65634981D02*
X85097904Y65682600D01*
X85193142Y65730220D01*
X85431238Y65730220D01*
X85526476Y65682600D01*
X85574095Y65634981D01*
X85621714Y65539743D01*
X85621714Y65444505D01*
X85574095Y65301648D01*
X85002666Y64730220D01*
X85621714Y64730220D01*
%TO.C,R6*%
X58511380Y14438334D02*
X58035190Y14105000D01*
X58511380Y13866905D02*
X57511380Y13866905D01*
X57511380Y14247858D01*
X57559000Y14343096D01*
X57606619Y14390715D01*
X57701857Y14438334D01*
X57844714Y14438334D01*
X57939952Y14390715D01*
X57987571Y14343096D01*
X58035190Y14247858D01*
X58035190Y13866905D01*
X57511380Y15295477D02*
X57511380Y15105000D01*
X57559000Y15009762D01*
X57606619Y14962143D01*
X57749476Y14866905D01*
X57939952Y14819286D01*
X58320904Y14819286D01*
X58416142Y14866905D01*
X58463761Y14914524D01*
X58511380Y15009762D01*
X58511380Y15200239D01*
X58463761Y15295477D01*
X58416142Y15343096D01*
X58320904Y15390715D01*
X58082809Y15390715D01*
X57987571Y15343096D01*
X57939952Y15295477D01*
X57892333Y15200239D01*
X57892333Y15009762D01*
X57939952Y14914524D01*
X57987571Y14866905D01*
X58082809Y14819286D01*
%TO.C,Q7*%
X70151666Y16205334D02*
X70018333Y16272000D01*
X69885000Y16405334D01*
X69685000Y16605334D01*
X69551666Y16672000D01*
X69418333Y16672000D01*
X69485000Y16338667D02*
X69351666Y16405334D01*
X69218333Y16538667D01*
X69151666Y16805334D01*
X69151666Y17272000D01*
X69218333Y17538667D01*
X69351666Y17672000D01*
X69485000Y17738667D01*
X69751666Y17738667D01*
X69885000Y17672000D01*
X70018333Y17538667D01*
X70085000Y17272000D01*
X70085000Y16805334D01*
X70018333Y16538667D01*
X69885000Y16405334D01*
X69751666Y16338667D01*
X69485000Y16338667D01*
X70551666Y17738667D02*
X71485000Y17738667D01*
X70885000Y16338667D01*
%TO.C,D3*%
X84097904Y56447820D02*
X84097904Y57447820D01*
X84336000Y57447820D01*
X84478857Y57400200D01*
X84574095Y57304962D01*
X84621714Y57209724D01*
X84669333Y57019248D01*
X84669333Y56876391D01*
X84621714Y56685915D01*
X84574095Y56590677D01*
X84478857Y56495439D01*
X84336000Y56447820D01*
X84097904Y56447820D01*
X85002666Y57447820D02*
X85621714Y57447820D01*
X85288380Y57066867D01*
X85431238Y57066867D01*
X85526476Y57019248D01*
X85574095Y56971629D01*
X85621714Y56876391D01*
X85621714Y56638296D01*
X85574095Y56543058D01*
X85526476Y56495439D01*
X85431238Y56447820D01*
X85145523Y56447820D01*
X85050285Y56495439D01*
X85002666Y56543058D01*
%TO.C,SW6*%
X56388166Y5750239D02*
X56531023Y5702620D01*
X56769119Y5702620D01*
X56864357Y5750239D01*
X56911976Y5797858D01*
X56959595Y5893096D01*
X56959595Y5988334D01*
X56911976Y6083572D01*
X56864357Y6131191D01*
X56769119Y6178810D01*
X56578642Y6226429D01*
X56483404Y6274048D01*
X56435785Y6321667D01*
X56388166Y6416905D01*
X56388166Y6512143D01*
X56435785Y6607381D01*
X56483404Y6655000D01*
X56578642Y6702620D01*
X56816738Y6702620D01*
X56959595Y6655000D01*
X57292928Y6702620D02*
X57531023Y5702620D01*
X57721500Y6416905D01*
X57911976Y5702620D01*
X58150071Y6702620D01*
X58959595Y6702620D02*
X58769119Y6702620D01*
X58673880Y6655000D01*
X58626261Y6607381D01*
X58531023Y6464524D01*
X58483404Y6274048D01*
X58483404Y5893096D01*
X58531023Y5797858D01*
X58578642Y5750239D01*
X58673880Y5702620D01*
X58864357Y5702620D01*
X58959595Y5750239D01*
X59007214Y5797858D01*
X59054833Y5893096D01*
X59054833Y6131191D01*
X59007214Y6226429D01*
X58959595Y6274048D01*
X58864357Y6321667D01*
X58673880Y6321667D01*
X58578642Y6274048D01*
X58531023Y6226429D01*
X58483404Y6131191D01*
D11*
%TO.C,Q2*%
X65970500Y71840500D02*
X65970500Y67140500D01*
X76510500Y67140500D02*
X76510500Y71840500D01*
X65970500Y67140500D02*
X76510500Y67140500D01*
X76510500Y71840500D02*
X65970500Y71840500D01*
D12*
X65500500Y68980500D02*
G75*
G03*
X65500500Y68980500I-100000J0D01*
G01*
D13*
%TO.C,A2*%
X9789000Y52708000D02*
X8389000Y52708000D01*
X8389000Y32128000D02*
X23889000Y32128000D01*
X8389000Y52708000D02*
X8389000Y51308000D01*
X21219000Y52708000D02*
X21219000Y32128000D01*
X11059000Y52708000D02*
X11059000Y50038000D01*
X23889000Y32128000D02*
X23889000Y52708000D01*
X23889000Y52708000D02*
X11059000Y52708000D01*
X11059000Y50038000D02*
X11059000Y32128000D01*
X8389000Y50038000D02*
X8389000Y32128000D01*
X11059000Y50038000D02*
X8389000Y50038000D01*
%TO.C,Q8*%
X28625000Y29232000D02*
X28625000Y25632000D01*
X28636522Y25593522D02*
G75*
G03*
X33075000Y27432000I1838478J1838478D01*
G01*
X33075001Y27432000D02*
G75*
G03*
X28636522Y29270478I-2600001J0D01*
G01*
%TO.C,R7*%
X28583000Y20962000D02*
X37203000Y20962000D01*
X28583000Y23742000D02*
X37203000Y23742000D01*
X37203000Y23742000D02*
X37203000Y20962000D01*
X28583000Y23742000D02*
X28583000Y20962000D01*
%TO.C,R3*%
X42157000Y18905000D02*
X42157000Y10285000D01*
X42157000Y18905000D02*
X39377000Y18905000D01*
X39377000Y18905000D02*
X39377000Y10285000D01*
X42157000Y10285000D02*
X39377000Y10285000D01*
%TO.C,D1*%
X83726000Y71010000D02*
X83726000Y69805000D01*
X83726000Y69805000D02*
X84528470Y69805000D01*
X85946000Y71010000D02*
X85946000Y69805000D01*
X83726000Y71770000D02*
X83726000Y72530000D01*
X85399471Y71010000D02*
X85946000Y71010000D01*
X83726000Y72530000D02*
X84836000Y72530000D01*
X83726000Y71010000D02*
X84272529Y71010000D01*
X85143530Y69805000D02*
X85946000Y69805000D01*
%TO.C,R8*%
X28583000Y33648000D02*
X37203000Y33648000D01*
X37203000Y33648000D02*
X37203000Y30868000D01*
X28583000Y33648000D02*
X28583000Y30868000D01*
X28583000Y30868000D02*
X37203000Y30868000D01*
%TO.C,SW5*%
X52125471Y3700000D02*
X52672000Y3700000D01*
X50452000Y2495000D02*
X51254470Y2495000D01*
X52672000Y3700000D02*
X52672000Y2495000D01*
X50452000Y4460000D02*
X50452000Y5220000D01*
X50452000Y3700000D02*
X50452000Y2495000D01*
X50452000Y3700000D02*
X50998529Y3700000D01*
X51869530Y2495000D02*
X52672000Y2495000D01*
X50452000Y5220000D02*
X51562000Y5220000D01*
%TO.C,SW1*%
X27231530Y2495000D02*
X28034000Y2495000D01*
X25814000Y3700000D02*
X25814000Y2495000D01*
X28034000Y3700000D02*
X28034000Y2495000D01*
X25814000Y3700000D02*
X26360529Y3700000D01*
X27487471Y3700000D02*
X28034000Y3700000D01*
X25814000Y4460000D02*
X25814000Y5220000D01*
X25814000Y2495000D02*
X26616470Y2495000D01*
X25814000Y5220000D02*
X26924000Y5220000D01*
%TO.C,J2*%
X2226000Y53330000D02*
X2226000Y54660000D01*
X4886000Y52060000D02*
X4886000Y44380000D01*
X2226000Y52060000D02*
X4886000Y52060000D01*
X2226000Y44380000D02*
X4886000Y44380000D01*
X2226000Y54660000D02*
X3556000Y54660000D01*
X2226000Y52060000D02*
X2226000Y44380000D01*
%TO.C,R1*%
X25788000Y10295000D02*
X28568000Y10295000D01*
X28568000Y10295000D02*
X28568000Y18915000D01*
X25788000Y10295000D02*
X25788000Y18915000D01*
X25788000Y18915000D02*
X28568000Y18915000D01*
%TO.C,R5*%
X52585000Y18915000D02*
X55365000Y18915000D01*
X55365000Y10295000D02*
X55365000Y18915000D01*
X52585000Y10295000D02*
X52585000Y18915000D01*
X52585000Y10295000D02*
X55365000Y10295000D01*
%TO.C,U1*%
X61513000Y24598000D02*
X61513000Y26833000D01*
X41073000Y31068000D02*
X41073000Y24598000D01*
X41073000Y24598000D02*
X61513000Y24598000D01*
X61513000Y31068000D02*
X41073000Y31068000D01*
X61513000Y28833000D02*
X61513000Y31068000D01*
X61513000Y28833000D02*
G75*
G03*
X61513000Y26833000I0J-1000000D01*
G01*
D11*
%TO.C,Q1*%
X76764500Y82487000D02*
X66224500Y82487000D01*
X76764500Y77787000D02*
X76764500Y82487000D01*
X66224500Y77787000D02*
X76764500Y77787000D01*
X66224500Y82487000D02*
X66224500Y77787000D01*
D12*
X65754500Y79627000D02*
G75*
G03*
X65754500Y79627000I-100000J0D01*
G01*
D11*
%TO.C,Q3*%
X65970500Y60559000D02*
X65970500Y55859000D01*
X65970500Y55859000D02*
X76510500Y55859000D01*
X76510500Y55859000D02*
X76510500Y60559000D01*
X76510500Y60559000D02*
X65970500Y60559000D01*
D12*
X65500500Y57699000D02*
G75*
G03*
X65500500Y57699000I-100000J0D01*
G01*
D13*
%TO.C,U2*%
X54022000Y82341000D02*
X54022000Y61901000D01*
X60492000Y82341000D02*
X58257000Y82341000D01*
X60492000Y61901000D02*
X60492000Y82341000D01*
X54022000Y61901000D02*
X60492000Y61901000D01*
X56257000Y82341000D02*
X54022000Y82341000D01*
X56257000Y82341000D02*
G75*
G03*
X58257000Y82341000I1000000J0D01*
G01*
%TO.C,A1*%
X9789000Y82553000D02*
X8389000Y82553000D01*
X21219000Y82553000D02*
X21219000Y61973000D01*
X8389000Y82553000D02*
X8389000Y81153000D01*
X11059000Y79883000D02*
X8389000Y79883000D01*
X11059000Y79883000D02*
X11059000Y61973000D01*
X8389000Y79883000D02*
X8389000Y61973000D01*
X23889000Y61973000D02*
X23889000Y82553000D01*
X8389000Y61973000D02*
X23889000Y61973000D01*
X23889000Y82553000D02*
X11059000Y82553000D01*
X11059000Y82553000D02*
X11059000Y79883000D01*
%TO.C,SW2*%
X33391030Y2495000D02*
X34193500Y2495000D01*
X33646971Y3700000D02*
X34193500Y3700000D01*
X31973500Y2495000D02*
X32775970Y2495000D01*
X31973500Y3700000D02*
X31973500Y2495000D01*
X31973500Y3700000D02*
X32520029Y3700000D01*
X31973500Y5220000D02*
X33083500Y5220000D01*
X31973500Y4460000D02*
X31973500Y5220000D01*
X34193500Y3700000D02*
X34193500Y2495000D01*
%TO.C,J5*%
X83726000Y28393000D02*
X84528470Y28393000D01*
X85946000Y29598000D02*
X85946000Y28393000D01*
X83726000Y31118000D02*
X84836000Y31118000D01*
X83726000Y29598000D02*
X84272529Y29598000D01*
X83726000Y30358000D02*
X83726000Y31118000D01*
X85143530Y28393000D02*
X85946000Y28393000D01*
X85399471Y29598000D02*
X85946000Y29598000D01*
X83726000Y29598000D02*
X83726000Y28393000D01*
%TO.C,D4*%
X85946000Y46162800D02*
X85946000Y44957800D01*
X83726000Y44957800D02*
X84528470Y44957800D01*
X83726000Y47682800D02*
X84836000Y47682800D01*
X83726000Y46162800D02*
X84272529Y46162800D01*
X85399471Y46162800D02*
X85946000Y46162800D01*
X85143530Y44957800D02*
X85946000Y44957800D01*
X83726000Y46162800D02*
X83726000Y44957800D01*
X83726000Y46922800D02*
X83726000Y47682800D01*
D11*
%TO.C,Q4*%
X65970500Y49277500D02*
X65970500Y44577500D01*
X76510500Y49277500D02*
X65970500Y49277500D01*
X65970500Y44577500D02*
X76510500Y44577500D01*
X76510500Y44577500D02*
X76510500Y49277500D01*
D12*
X65500500Y46417500D02*
G75*
G03*
X65500500Y46417500I-100000J0D01*
G01*
D11*
%TO.C,Q5*%
X76510500Y33296000D02*
X76510500Y37996000D01*
X65970500Y37996000D02*
X65970500Y33296000D01*
X76510500Y37996000D02*
X65970500Y37996000D01*
X65970500Y33296000D02*
X76510500Y33296000D01*
D12*
X65500500Y35136000D02*
G75*
G03*
X65500500Y35136000I-100000J0D01*
G01*
D13*
%TO.C,R2*%
X32646000Y10295000D02*
X35426000Y10295000D01*
X35426000Y10295000D02*
X35426000Y18915000D01*
X32646000Y18915000D02*
X35426000Y18915000D01*
X32646000Y10295000D02*
X32646000Y18915000D01*
%TO.C,D5*%
X85946000Y37880400D02*
X85946000Y36675400D01*
X83726000Y38640400D02*
X83726000Y39400400D01*
X83726000Y37880400D02*
X83726000Y36675400D01*
X83726000Y39400400D02*
X84836000Y39400400D01*
X83726000Y36675400D02*
X84528470Y36675400D01*
X85143530Y36675400D02*
X85946000Y36675400D01*
X85399471Y37880400D02*
X85946000Y37880400D01*
X83726000Y37880400D02*
X84272529Y37880400D01*
%TO.C,J3*%
X4886000Y34915000D02*
X4886000Y27235000D01*
X2226000Y36185000D02*
X2226000Y37515000D01*
X2226000Y37515000D02*
X3556000Y37515000D01*
X2226000Y34915000D02*
X2226000Y27235000D01*
X2226000Y27235000D02*
X4886000Y27235000D01*
X2226000Y34915000D02*
X4886000Y34915000D01*
%TO.C,J7*%
X68930500Y5220000D02*
X70040500Y5220000D01*
X70603971Y3700000D02*
X71150500Y3700000D01*
X68930500Y2495000D02*
X69732970Y2495000D01*
X68930500Y3700000D02*
X68930500Y2495000D01*
X68930500Y4460000D02*
X68930500Y5220000D01*
X70348030Y2495000D02*
X71150500Y2495000D01*
X68930500Y3700000D02*
X69477029Y3700000D01*
X71150500Y3700000D02*
X71150500Y2495000D01*
%TO.C,A3*%
X23889000Y22863000D02*
X11059000Y22863000D01*
X23889000Y2283000D02*
X23889000Y22863000D01*
X8389000Y2283000D02*
X23889000Y2283000D01*
X9789000Y22863000D02*
X8389000Y22863000D01*
X8389000Y22863000D02*
X8389000Y21463000D01*
X11059000Y20193000D02*
X11059000Y2283000D01*
X21219000Y22863000D02*
X21219000Y2283000D01*
X8389000Y20193000D02*
X8389000Y2283000D01*
X11059000Y20193000D02*
X8389000Y20193000D01*
X11059000Y22863000D02*
X11059000Y20193000D01*
D11*
%TO.C,Q6*%
X65970500Y26714500D02*
X65970500Y22014500D01*
X76510500Y26714500D02*
X65970500Y26714500D01*
X65970500Y22014500D02*
X76510500Y22014500D01*
X76510500Y22014500D02*
X76510500Y26714500D01*
D12*
X65500500Y23854500D02*
G75*
G03*
X65500500Y23854500I-100000J0D01*
G01*
D13*
%TO.C,J8*%
X80010000Y12065000D02*
X87630000Y12065000D01*
X86360000Y22225000D02*
X86360000Y12065000D01*
X80010000Y22225000D02*
X80010000Y12065000D01*
X87630000Y12065000D02*
X87630000Y22225000D01*
X87630000Y22225000D02*
X80010000Y22225000D01*
D14*
%TO.C,U3*%
X59414000Y37115000D02*
G75*
G03*
X59414000Y37115000I-150000J0D01*
G01*
D13*
%TO.C,J6*%
X62771000Y4460000D02*
X62771000Y5220000D01*
X64188530Y2495000D02*
X64991000Y2495000D01*
X64444471Y3700000D02*
X64991000Y3700000D01*
X64991000Y3700000D02*
X64991000Y2495000D01*
X62771000Y2495000D02*
X63573470Y2495000D01*
X62771000Y3700000D02*
X63317529Y3700000D01*
X62771000Y3700000D02*
X62771000Y2495000D01*
X62771000Y5220000D02*
X63881000Y5220000D01*
%TO.C,R4*%
X45981000Y18915000D02*
X48761000Y18915000D01*
X45981000Y10295000D02*
X48761000Y10295000D01*
X48761000Y10295000D02*
X48761000Y18915000D01*
X45981000Y10295000D02*
X45981000Y18915000D01*
%TO.C,SW3*%
X39806471Y3700000D02*
X40353000Y3700000D01*
X38133000Y4460000D02*
X38133000Y5220000D01*
X38133000Y3700000D02*
X38679529Y3700000D01*
X38133000Y2495000D02*
X38935470Y2495000D01*
X38133000Y5220000D02*
X39243000Y5220000D01*
X39550530Y2495000D02*
X40353000Y2495000D01*
X40353000Y3700000D02*
X40353000Y2495000D01*
X38133000Y3700000D02*
X38133000Y2495000D01*
%TO.C,SW4*%
X44292500Y2495000D02*
X45094970Y2495000D01*
X45710030Y2495000D02*
X46512500Y2495000D01*
X44292500Y3700000D02*
X44292500Y2495000D01*
X45965971Y3700000D02*
X46512500Y3700000D01*
X44292500Y4460000D02*
X44292500Y5220000D01*
X44292500Y3700000D02*
X44839029Y3700000D01*
X46512500Y3700000D02*
X46512500Y2495000D01*
X44292500Y5220000D02*
X45402500Y5220000D01*
%TO.C,A4*%
X30978000Y39497000D02*
X30978000Y77597000D01*
X43678000Y77597000D02*
X46348000Y77597000D01*
X28308000Y36827000D02*
X46348000Y36827000D01*
X43678000Y42037000D02*
X43678000Y39497000D01*
X30978000Y77597000D02*
X28308000Y77597000D01*
X30978000Y39497000D02*
X28308000Y39497000D01*
X46348000Y36827000D02*
X46348000Y39497000D01*
X43678000Y39497000D02*
X46348000Y39497000D01*
X28308000Y80267000D02*
X28308000Y36827000D01*
X43678000Y42037000D02*
X43678000Y77597000D01*
X43678000Y42037000D02*
X46348000Y42037000D01*
X46348000Y42037000D02*
X46348000Y80267000D01*
X46348000Y80267000D02*
X28308000Y80267000D01*
%TO.C,J4*%
X2226000Y17770000D02*
X4886000Y17770000D01*
X2226000Y17770000D02*
X2226000Y10090000D01*
X4886000Y17770000D02*
X4886000Y10090000D01*
X2226000Y10090000D02*
X4886000Y10090000D01*
X2226000Y19040000D02*
X2226000Y20370000D01*
X2226000Y20370000D02*
X3556000Y20370000D01*
%TO.C,M1*%
X76507530Y2495000D02*
X77310000Y2495000D01*
X75090000Y3700000D02*
X75636529Y3700000D01*
X75090000Y2495000D02*
X75892470Y2495000D01*
X75090000Y5220000D02*
X76200000Y5220000D01*
X75090000Y4460000D02*
X75090000Y5220000D01*
X75090000Y3700000D02*
X75090000Y2495000D01*
X77310000Y3700000D02*
X77310000Y2495000D01*
X76763471Y3700000D02*
X77310000Y3700000D01*
%TO.C,J1*%
X2226000Y69205000D02*
X4886000Y69205000D01*
X2226000Y70475000D02*
X2226000Y71805000D01*
X2226000Y61525000D02*
X4886000Y61525000D01*
X2226000Y71805000D02*
X3556000Y71805000D01*
X2226000Y69205000D02*
X2226000Y61525000D01*
X4886000Y69205000D02*
X4886000Y61525000D01*
%TO.C,D2*%
X83726000Y62727600D02*
X84272529Y62727600D01*
X83726000Y64247600D02*
X84836000Y64247600D01*
X85399471Y62727600D02*
X85946000Y62727600D01*
X83726000Y62727600D02*
X83726000Y61522600D01*
X85143530Y61522600D02*
X85946000Y61522600D01*
X83726000Y63487600D02*
X83726000Y64247600D01*
X85946000Y62727600D02*
X85946000Y61522600D01*
X83726000Y61522600D02*
X84528470Y61522600D01*
%TO.C,R6*%
X59189000Y10295000D02*
X61969000Y10295000D01*
X61969000Y10295000D02*
X61969000Y18915000D01*
X59189000Y10295000D02*
X59189000Y18915000D01*
X59189000Y18915000D02*
X61969000Y18915000D01*
D11*
%TO.C,Q7*%
X65850000Y15433000D02*
X65850000Y10733000D01*
X76390000Y10733000D02*
X76390000Y15433000D01*
X65850000Y10733000D02*
X76390000Y10733000D01*
X76390000Y15433000D02*
X65850000Y15433000D01*
D12*
X65380000Y12573000D02*
G75*
G03*
X65380000Y12573000I-100000J0D01*
G01*
D13*
%TO.C,D3*%
X85143530Y53240200D02*
X85946000Y53240200D01*
X85946000Y54445200D02*
X85946000Y53240200D01*
X83726000Y53240200D02*
X84528470Y53240200D01*
X83726000Y55205200D02*
X83726000Y55965200D01*
X83726000Y55965200D02*
X84836000Y55965200D01*
X85399471Y54445200D02*
X85946000Y54445200D01*
X83726000Y54445200D02*
X84272529Y54445200D01*
X83726000Y54445200D02*
X83726000Y53240200D01*
%TO.C,SW6*%
X56611500Y5220000D02*
X57721500Y5220000D01*
X56611500Y3700000D02*
X57158029Y3700000D01*
X58029030Y2495000D02*
X58831500Y2495000D01*
X56611500Y4460000D02*
X56611500Y5220000D01*
X56611500Y2495000D02*
X57413970Y2495000D01*
X58284971Y3700000D02*
X58831500Y3700000D01*
X58831500Y3700000D02*
X58831500Y2495000D01*
X56611500Y3700000D02*
X56611500Y2495000D01*
%TD*%
M02*
