%TF.GenerationSoftware,KiCad,Pcbnew,(6.0.6)*%
%TF.CreationDate,2022-11-12T19:18:47+09:00*%
%TF.ProjectId,WB,57422e6b-6963-4616-945f-706362585858,rev?*%
%TF.SameCoordinates,PX8ecbe88PY65dbed8*%
%TF.FileFunction,Soldermask,Top*%
%TF.FilePolarity,Negative*%
%FSLAX46Y46*%
G04 Gerber Fmt 4.6, Leading zero omitted, Abs format (unit mm)*
G04 Created by KiCad (PCBNEW (6.0.6)) date 2022-11-12 19:18:47*
%MOMM*%
%LPD*%
G01*
G04 APERTURE LIST*
%ADD10R,1.700000X1.700000*%
%ADD11O,1.700000X1.700000*%
%ADD12R,1.860000X1.860000*%
%ADD13C,1.860000*%
%ADD14O,2.000000X2.000000*%
%ADD15C,3.200000*%
%ADD16O,2.000000X1.050000*%
%ADD17R,2.000000X1.050000*%
%ADD18C,2.000000*%
%ADD19R,3.000000X3.000000*%
%ADD20C,3.000000*%
%ADD21R,1.160000X1.160000*%
%ADD22C,1.160000*%
%ADD23R,1.600000X1.600000*%
%ADD24C,1.600000*%
G04 APERTURE END LIST*
D10*
%TO.C,D5*%
X84836000Y38640400D03*
D11*
X84836000Y36100400D03*
%TD*%
D10*
%TO.C,D4*%
X84836000Y46922800D03*
D11*
X84836000Y44382800D03*
%TD*%
D10*
%TO.C,D3*%
X84836000Y55205200D03*
D11*
X84836000Y52665200D03*
%TD*%
D10*
%TO.C,D1*%
X84836000Y71770000D03*
D11*
X84836000Y69230000D03*
%TD*%
D10*
%TO.C,D2*%
X84836000Y63487600D03*
D11*
X84836000Y60947600D03*
%TD*%
D12*
%TO.C,Q2*%
X68700500Y68980500D03*
D13*
X71240500Y68980500D03*
X73780500Y68980500D03*
%TD*%
D14*
%TO.C,A2*%
X9789000Y51308000D03*
X9789000Y48768000D03*
X9789000Y46228000D03*
X9789000Y43688000D03*
X9789000Y41148000D03*
X9789000Y38608000D03*
X9789000Y36068000D03*
X9789000Y33528000D03*
X22489000Y33528000D03*
X22489000Y36068000D03*
X22489000Y38608000D03*
X22489000Y41148000D03*
X22489000Y43688000D03*
X22489000Y46228000D03*
X22489000Y48768000D03*
X22489000Y51308000D03*
%TD*%
D15*
%TO.C,MH1*%
X4064000Y79883000D03*
%TD*%
D16*
%TO.C,Q8*%
X30475000Y26162000D03*
X30475000Y27432000D03*
D17*
X30475000Y28702000D03*
%TD*%
D14*
%TO.C,R7*%
X30353000Y22352000D03*
X35433000Y22352000D03*
%TD*%
%TO.C,R3*%
X40767000Y17135000D03*
X40767000Y12055000D03*
%TD*%
%TO.C,R8*%
X35433000Y32258000D03*
X30353000Y32258000D03*
%TD*%
D10*
%TO.C,SW5*%
X51562000Y6858000D03*
D11*
X51562000Y4318000D03*
%TD*%
D10*
%TO.C,SW1*%
X26924000Y6858000D03*
D11*
X26924000Y4318000D03*
%TD*%
D14*
%TO.C,J2*%
X3556000Y53330000D03*
X3556000Y50790000D03*
X3556000Y48250000D03*
X3556000Y45710000D03*
%TD*%
%TO.C,R1*%
X27178000Y17145000D03*
X27178000Y12065000D03*
%TD*%
D18*
%TO.C,R5*%
X53975000Y12065000D03*
D14*
X53975000Y17145000D03*
%TD*%
%TO.C,U1*%
X60183000Y32913000D03*
X57643000Y32913000D03*
X55103000Y32913000D03*
X52563000Y32913000D03*
X50023000Y32913000D03*
X47483000Y32913000D03*
X44943000Y32913000D03*
X42403000Y32913000D03*
X42403000Y25293000D03*
X44943000Y25293000D03*
X47483000Y25293000D03*
X50023000Y25293000D03*
X52563000Y25293000D03*
X55103000Y25293000D03*
X57643000Y25293000D03*
X60183000Y25293000D03*
%TD*%
D12*
%TO.C,Q1*%
X68954500Y79627000D03*
D13*
X71494500Y79627000D03*
X74034500Y79627000D03*
%TD*%
D15*
%TO.C,MH2*%
X4445000Y4318000D03*
%TD*%
D12*
%TO.C,Q3*%
X68700500Y57699000D03*
D13*
X71240500Y57699000D03*
X73780500Y57699000D03*
%TD*%
D14*
%TO.C,U2*%
X52177000Y81011000D03*
X52177000Y78471000D03*
X52177000Y75931000D03*
X52177000Y73391000D03*
X52177000Y70851000D03*
X52177000Y68311000D03*
X52177000Y65771000D03*
X52177000Y63231000D03*
X59797000Y63231000D03*
X59797000Y65771000D03*
X59797000Y68311000D03*
X59797000Y70851000D03*
X59797000Y73391000D03*
X59797000Y75931000D03*
X59797000Y78471000D03*
X59797000Y81011000D03*
%TD*%
%TO.C,A1*%
X22489000Y81153000D03*
X22489000Y78613000D03*
X22489000Y76073000D03*
X22489000Y73533000D03*
X22489000Y70993000D03*
X22489000Y68453000D03*
X22489000Y65913000D03*
X22489000Y63373000D03*
X9789000Y63373000D03*
X9789000Y65913000D03*
X9789000Y68453000D03*
X9789000Y70993000D03*
X9789000Y73533000D03*
X9789000Y76073000D03*
X9789000Y78613000D03*
X9789000Y81153000D03*
%TD*%
D10*
%TO.C,SW2*%
X33083500Y6858000D03*
D11*
X33083500Y4318000D03*
%TD*%
D15*
%TO.C,MH4*%
X84455000Y79883000D03*
%TD*%
D10*
%TO.C,J5*%
X84836000Y30358000D03*
D11*
X84836000Y27818000D03*
%TD*%
D12*
%TO.C,Q4*%
X68700500Y46417500D03*
D13*
X71240500Y46417500D03*
X73780500Y46417500D03*
%TD*%
D12*
%TO.C,Q5*%
X68700500Y35136000D03*
D13*
X71240500Y35136000D03*
X73780500Y35136000D03*
%TD*%
D14*
%TO.C,R2*%
X34036000Y12065000D03*
X34036000Y17145000D03*
%TD*%
%TO.C,J3*%
X3556000Y36185000D03*
X3556000Y33645000D03*
X3556000Y31105000D03*
X3556000Y28565000D03*
%TD*%
D10*
%TO.C,J7*%
X70040500Y6858000D03*
D11*
X70040500Y4318000D03*
%TD*%
D14*
%TO.C,A3*%
X22489000Y21463000D03*
X22489000Y18923000D03*
X22489000Y16383000D03*
X22489000Y13843000D03*
X22489000Y11303000D03*
X22489000Y8763000D03*
X22489000Y6223000D03*
X22489000Y3683000D03*
X9789000Y3683000D03*
X9789000Y6223000D03*
X9789000Y8763000D03*
X9789000Y11303000D03*
X9789000Y13843000D03*
X9789000Y16383000D03*
X9789000Y18923000D03*
X9789000Y21463000D03*
%TD*%
D12*
%TO.C,Q6*%
X68700500Y23854500D03*
D13*
X71240500Y23854500D03*
X73780500Y23854500D03*
%TD*%
D19*
%TO.C,J8*%
X83820000Y14605000D03*
D20*
X83820000Y19685000D03*
%TD*%
D21*
%TO.C,U3*%
X59264000Y40005000D03*
D22*
X59264000Y42545000D03*
X59264000Y45085000D03*
X59264000Y47625000D03*
X59264000Y50165000D03*
X59264000Y52705000D03*
X59264000Y55245000D03*
%TD*%
D15*
%TO.C,MH3*%
X83947000Y4318000D03*
%TD*%
D10*
%TO.C,J6*%
X63881000Y6858000D03*
D11*
X63881000Y4318000D03*
%TD*%
D14*
%TO.C,R4*%
X47371000Y12065000D03*
X47371000Y17145000D03*
%TD*%
D10*
%TO.C,SW3*%
X39243000Y6858000D03*
D11*
X39243000Y4318000D03*
%TD*%
D10*
%TO.C,SW4*%
X45085000Y6858000D03*
D11*
X45085000Y4318000D03*
%TD*%
D23*
%TO.C,A4*%
X44948000Y40767000D03*
D14*
X44948000Y43307000D03*
X44948000Y45847000D03*
X44948000Y48387000D03*
X44948000Y50927000D03*
X44948000Y53467000D03*
X44948000Y56007000D03*
X44948000Y58547000D03*
X44948000Y61087000D03*
X44948000Y63627000D03*
X44948000Y66167000D03*
X44948000Y68707000D03*
X44948000Y71247000D03*
X44948000Y73787000D03*
X44948000Y76327000D03*
X29708000Y76327000D03*
X29708000Y73787000D03*
X29708000Y71247000D03*
X29708000Y68707000D03*
X29708000Y66167000D03*
X29708000Y63627000D03*
X29708000Y61087000D03*
X29708000Y58547000D03*
X29708000Y56007000D03*
X29708000Y53467000D03*
X29708000Y50927000D03*
X29708000Y48387000D03*
X29708000Y45847000D03*
X29708000Y43307000D03*
X29708000Y40767000D03*
%TD*%
%TO.C,J4*%
X3556000Y19040000D03*
X3556000Y16500000D03*
X3556000Y13960000D03*
X3556000Y11420000D03*
%TD*%
D10*
%TO.C,M1*%
X76200000Y6863000D03*
D11*
X76200000Y4323000D03*
%TD*%
D14*
%TO.C,J1*%
X3556000Y62855000D03*
X3556000Y65395000D03*
X3556000Y67935000D03*
X3556000Y70475000D03*
%TD*%
D24*
%TO.C,R6*%
X60579000Y17145000D03*
X60579000Y12065000D03*
%TD*%
D12*
%TO.C,Q7*%
X68580000Y12573000D03*
D13*
X71120000Y12573000D03*
X73660000Y12573000D03*
%TD*%
D10*
%TO.C,SW6*%
X57785000Y6858000D03*
D11*
X57785000Y4318000D03*
%TD*%
M02*
