%TF.GenerationSoftware,KiCad,Pcbnew,(6.0.6)*%
%TF.CreationDate,2022-11-12T19:18:43+09:00*%
%TF.ProjectId,WB,57422e6b-6963-4616-945f-706362585858,rev?*%
%TF.SameCoordinates,PX8ecbe88PY65dbed8*%
%TF.FileFunction,Copper,L1,Top*%
%TF.FilePolarity,Positive*%
%FSLAX46Y46*%
G04 Gerber Fmt 4.6, Leading zero omitted, Abs format (unit mm)*
G04 Created by KiCad (PCBNEW (6.0.6)) date 2022-11-12 19:18:43*
%MOMM*%
%LPD*%
G01*
G04 APERTURE LIST*
%TA.AperFunction,ComponentPad*%
%ADD10R,1.700000X1.700000*%
%TD*%
%TA.AperFunction,ComponentPad*%
%ADD11O,1.700000X1.700000*%
%TD*%
%TA.AperFunction,ComponentPad*%
%ADD12R,1.860000X1.860000*%
%TD*%
%TA.AperFunction,ComponentPad*%
%ADD13C,1.860000*%
%TD*%
%TA.AperFunction,ComponentPad*%
%ADD14O,2.000000X2.000000*%
%TD*%
%TA.AperFunction,ComponentPad*%
%ADD15O,2.000000X1.050000*%
%TD*%
%TA.AperFunction,ComponentPad*%
%ADD16R,2.000000X1.050000*%
%TD*%
%TA.AperFunction,ComponentPad*%
%ADD17C,2.000000*%
%TD*%
%TA.AperFunction,ComponentPad*%
%ADD18R,3.000000X3.000000*%
%TD*%
%TA.AperFunction,ComponentPad*%
%ADD19C,3.000000*%
%TD*%
%TA.AperFunction,ComponentPad*%
%ADD20R,1.160000X1.160000*%
%TD*%
%TA.AperFunction,ComponentPad*%
%ADD21C,1.160000*%
%TD*%
%TA.AperFunction,ComponentPad*%
%ADD22R,1.600000X1.600000*%
%TD*%
%TA.AperFunction,ComponentPad*%
%ADD23C,1.600000*%
%TD*%
%TA.AperFunction,ViaPad*%
%ADD24C,0.800000*%
%TD*%
%TA.AperFunction,Conductor*%
%ADD25C,1.000000*%
%TD*%
G04 APERTURE END LIST*
D10*
%TO.P,D5,1,K*%
%TO.N,Net-(D5-Pad1)*%
X84836000Y38640400D03*
D11*
%TO.P,D5,2,A*%
%TO.N,+24V*%
X84836000Y36100400D03*
%TD*%
D10*
%TO.P,D4,1,K*%
%TO.N,Net-(D4-Pad1)*%
X84836000Y46922800D03*
D11*
%TO.P,D4,2,A*%
%TO.N,+24V*%
X84836000Y44382800D03*
%TD*%
D10*
%TO.P,D3,1,K*%
%TO.N,Net-(D3-Pad1)*%
X84836000Y55205200D03*
D11*
%TO.P,D3,2,A*%
%TO.N,+24V*%
X84836000Y52665200D03*
%TD*%
D10*
%TO.P,D1,1,K*%
%TO.N,Net-(D1-Pad1)*%
X84836000Y71770000D03*
D11*
%TO.P,D1,2,A*%
%TO.N,+24V*%
X84836000Y69230000D03*
%TD*%
D10*
%TO.P,D2,1,K*%
%TO.N,Net-(D2-Pad1)*%
X84836000Y63487600D03*
D11*
%TO.P,D2,2,A*%
%TO.N,+24V*%
X84836000Y60947600D03*
%TD*%
D12*
%TO.P,Q2,1,G*%
%TO.N,Net-(Q2-Pad1)*%
X68700500Y68980500D03*
D13*
%TO.P,Q2,2,D*%
%TO.N,Net-(D2-Pad1)*%
X71240500Y68980500D03*
%TO.P,Q2,3,S*%
%TO.N,GND*%
X73780500Y68980500D03*
%TD*%
D14*
%TO.P,A2,1,GND*%
%TO.N,GND*%
X9789000Y51308000D03*
%TO.P,A2,2,VDD*%
%TO.N,VCC*%
X9789000Y48768000D03*
%TO.P,A2,3,1B*%
%TO.N,Net-(A2-Pad3)*%
X9789000Y46228000D03*
%TO.P,A2,4,1A*%
%TO.N,Net-(A2-Pad4)*%
X9789000Y43688000D03*
%TO.P,A2,5,2A*%
%TO.N,Net-(A2-Pad5)*%
X9789000Y41148000D03*
%TO.P,A2,6,2B*%
%TO.N,Net-(A2-Pad6)*%
X9789000Y38608000D03*
%TO.P,A2,7,GND*%
%TO.N,GND*%
X9789000Y36068000D03*
%TO.P,A2,8,VMOT*%
%TO.N,+24V*%
X9789000Y33528000D03*
%TO.P,A2,9,~{ENABLE}*%
%TO.N,GND*%
X22489000Y33528000D03*
%TO.P,A2,10,MS1*%
%TO.N,unconnected-(A2-Pad10)*%
X22489000Y36068000D03*
%TO.P,A2,11,MS2*%
%TO.N,unconnected-(A2-Pad11)*%
X22489000Y38608000D03*
%TO.P,A2,12,MS3*%
%TO.N,unconnected-(A2-Pad12)*%
X22489000Y41148000D03*
%TO.P,A2,13,~{RESET}*%
%TO.N,Net-(A2-Pad13)*%
X22489000Y43688000D03*
%TO.P,A2,14,~{SLEEP}*%
X22489000Y46228000D03*
%TO.P,A2,15,STEP*%
%TO.N,Net-(A2-Pad15)*%
X22489000Y48768000D03*
%TO.P,A2,16,DIR*%
%TO.N,Net-(A2-Pad16)*%
X22489000Y51308000D03*
%TD*%
D15*
%TO.P,Q8,3,B*%
%TO.N,Net-(Q8-Pad3)*%
X30475000Y26162000D03*
%TO.P,Q8,2,C*%
%TO.N,Net-(A3-Pad16)*%
X30475000Y27432000D03*
D16*
%TO.P,Q8,1,E*%
%TO.N,GND*%
X30475000Y28702000D03*
%TD*%
D14*
%TO.P,R7,1*%
%TO.N,Net-(A3-Pad16)*%
X30353000Y22352000D03*
%TO.P,R7,2*%
%TO.N,VCC*%
X35433000Y22352000D03*
%TD*%
%TO.P,R3,1*%
%TO.N,D2*%
X40767000Y17135000D03*
%TO.P,R3,2*%
%TO.N,VCC*%
X40767000Y12055000D03*
%TD*%
%TO.P,R8,2*%
%TO.N,Net-(Q8-Pad3)*%
X35433000Y32258000D03*
%TO.P,R8,1*%
%TO.N,Net-(A2-Pad16)*%
X30353000Y32258000D03*
%TD*%
D10*
%TO.P,SW5,1,1*%
%TO.N,D4*%
X51562000Y6858000D03*
D11*
%TO.P,SW5,2,2*%
%TO.N,GND*%
X51562000Y4318000D03*
%TD*%
D10*
%TO.P,SW1,1,1*%
%TO.N,D0*%
X26924000Y6858000D03*
D11*
%TO.P,SW1,2,2*%
%TO.N,GND*%
X26924000Y4318000D03*
%TD*%
D14*
%TO.P,J2,1,Pin_1*%
%TO.N,Net-(A1-Pad3)*%
X3556000Y53330000D03*
%TO.P,J2,2,Pin_2*%
%TO.N,Net-(A1-Pad4)*%
X3556000Y50790000D03*
%TO.P,J2,3,Pin_3*%
%TO.N,Net-(A1-Pad5)*%
X3556000Y48250000D03*
%TO.P,J2,4,Pin_4*%
%TO.N,Net-(A1-Pad6)*%
X3556000Y45710000D03*
%TD*%
%TO.P,R1,2*%
%TO.N,VCC*%
X27178000Y17145000D03*
%TO.P,R1,1*%
%TO.N,D0*%
X27178000Y12065000D03*
%TD*%
D17*
%TO.P,R5,1*%
%TO.N,D4*%
X53975000Y12065000D03*
D14*
%TO.P,R5,2*%
%TO.N,VCC*%
X53975000Y17145000D03*
%TD*%
%TO.P,U1,1,~{PL}*%
%TO.N,Net-(A4-Pad8)*%
X60183000Y32913000D03*
%TO.P,U1,2,CP*%
%TO.N,Net-(A4-Pad7)*%
X57643000Y32913000D03*
%TO.P,U1,3,D4*%
%TO.N,D4*%
X55103000Y32913000D03*
%TO.P,U1,4,D5*%
%TO.N,D5*%
X52563000Y32913000D03*
%TO.P,U1,5,D6*%
%TO.N,unconnected-(U1-Pad5)*%
X50023000Y32913000D03*
%TO.P,U1,6,D7*%
%TO.N,unconnected-(U1-Pad6)*%
X47483000Y32913000D03*
%TO.P,U1,7,~{Q7}*%
%TO.N,unconnected-(U1-Pad7)*%
X44943000Y32913000D03*
%TO.P,U1,8,GND*%
%TO.N,GND*%
X42403000Y32913000D03*
%TO.P,U1,9,Q7*%
%TO.N,Net-(A4-Pad6)*%
X42403000Y25293000D03*
%TO.P,U1,10,DS*%
%TO.N,GND*%
X44943000Y25293000D03*
%TO.P,U1,11,D0*%
%TO.N,D0*%
X47483000Y25293000D03*
%TO.P,U1,12,D1*%
%TO.N,D1*%
X50023000Y25293000D03*
%TO.P,U1,13,D2*%
%TO.N,D2*%
X52563000Y25293000D03*
%TO.P,U1,14,D3*%
%TO.N,D3*%
X55103000Y25293000D03*
%TO.P,U1,15,~{CE}*%
%TO.N,GND*%
X57643000Y25293000D03*
%TO.P,U1,16,VCC*%
%TO.N,VCC*%
X60183000Y25293000D03*
%TD*%
D12*
%TO.P,Q1,1,G*%
%TO.N,Net-(Q1-Pad1)*%
X68954500Y79627000D03*
D13*
%TO.P,Q1,2,D*%
%TO.N,Net-(D1-Pad1)*%
X71494500Y79627000D03*
%TO.P,Q1,3,S*%
%TO.N,GND*%
X74034500Y79627000D03*
%TD*%
D12*
%TO.P,Q3,1,G*%
%TO.N,Net-(Q3-Pad1)*%
X68700500Y57699000D03*
D13*
%TO.P,Q3,2,D*%
%TO.N,Net-(D3-Pad1)*%
X71240500Y57699000D03*
%TO.P,Q3,3,S*%
%TO.N,GND*%
X73780500Y57699000D03*
%TD*%
D14*
%TO.P,U2,1,QB*%
%TO.N,Net-(Q2-Pad1)*%
X52177000Y81011000D03*
%TO.P,U2,2,QC*%
%TO.N,Net-(Q3-Pad1)*%
X52177000Y78471000D03*
%TO.P,U2,3,QD*%
%TO.N,Net-(Q4-Pad1)*%
X52177000Y75931000D03*
%TO.P,U2,4,QE*%
%TO.N,Net-(Q5-Pad1)*%
X52177000Y73391000D03*
%TO.P,U2,5,QF*%
%TO.N,Net-(Q6-Pad1)*%
X52177000Y70851000D03*
%TO.P,U2,6,QG*%
%TO.N,Net-(U2-Pad6)*%
X52177000Y68311000D03*
%TO.P,U2,7,QH*%
%TO.N,Net-(U2-Pad7)*%
X52177000Y65771000D03*
%TO.P,U2,8,GND*%
%TO.N,GND*%
X52177000Y63231000D03*
%TO.P,U2,9,QH'*%
%TO.N,unconnected-(U2-Pad9)*%
X59797000Y63231000D03*
%TO.P,U2,10,~{SRCLR}*%
%TO.N,VCC*%
X59797000Y65771000D03*
%TO.P,U2,11,SRCLK*%
%TO.N,Net-(A4-Pad10)*%
X59797000Y68311000D03*
%TO.P,U2,12,RCLK*%
%TO.N,Net-(A4-Pad9)*%
X59797000Y70851000D03*
%TO.P,U2,13,~{OE}*%
%TO.N,GND*%
X59797000Y73391000D03*
%TO.P,U2,14,SER*%
%TO.N,Net-(A4-Pad11)*%
X59797000Y75931000D03*
%TO.P,U2,15,QA*%
%TO.N,Net-(Q1-Pad1)*%
X59797000Y78471000D03*
%TO.P,U2,16,VCC*%
%TO.N,VCC*%
X59797000Y81011000D03*
%TD*%
%TO.P,A1,16,DIR*%
%TO.N,Net-(A1-Pad16)*%
X22489000Y81153000D03*
%TO.P,A1,15,STEP*%
%TO.N,Net-(A1-Pad15)*%
X22489000Y78613000D03*
%TO.P,A1,14,~{SLEEP}*%
%TO.N,Net-(A1-Pad13)*%
X22489000Y76073000D03*
%TO.P,A1,13,~{RESET}*%
X22489000Y73533000D03*
%TO.P,A1,12,MS3*%
%TO.N,unconnected-(A1-Pad12)*%
X22489000Y70993000D03*
%TO.P,A1,11,MS2*%
%TO.N,unconnected-(A1-Pad11)*%
X22489000Y68453000D03*
%TO.P,A1,10,MS1*%
%TO.N,unconnected-(A1-Pad10)*%
X22489000Y65913000D03*
%TO.P,A1,9,~{ENABLE}*%
%TO.N,Net-(A1-Pad9)*%
X22489000Y63373000D03*
%TO.P,A1,8,VMOT*%
%TO.N,+24V*%
X9789000Y63373000D03*
%TO.P,A1,7,GND*%
%TO.N,GND*%
X9789000Y65913000D03*
%TO.P,A1,6,2B*%
%TO.N,Net-(A1-Pad6)*%
X9789000Y68453000D03*
%TO.P,A1,5,2A*%
%TO.N,Net-(A1-Pad5)*%
X9789000Y70993000D03*
%TO.P,A1,4,1A*%
%TO.N,Net-(A1-Pad4)*%
X9789000Y73533000D03*
%TO.P,A1,3,1B*%
%TO.N,Net-(A1-Pad3)*%
X9789000Y76073000D03*
%TO.P,A1,2,VDD*%
%TO.N,VCC*%
X9789000Y78613000D03*
%TO.P,A1,1,GND*%
%TO.N,GND*%
X9789000Y81153000D03*
%TD*%
D10*
%TO.P,SW2,1,1*%
%TO.N,D1*%
X33083500Y6858000D03*
D11*
%TO.P,SW2,2,2*%
%TO.N,GND*%
X33083500Y4318000D03*
%TD*%
D10*
%TO.P,J5,1,Pin_1*%
%TO.N,Net-(J5-Pad1)*%
X84836000Y30358000D03*
D11*
%TO.P,J5,2,Pin_2*%
%TO.N,+24V*%
X84836000Y27818000D03*
%TD*%
D12*
%TO.P,Q4,1,G*%
%TO.N,Net-(Q4-Pad1)*%
X68700500Y46417500D03*
D13*
%TO.P,Q4,2,D*%
%TO.N,Net-(D4-Pad1)*%
X71240500Y46417500D03*
%TO.P,Q4,3,S*%
%TO.N,GND*%
X73780500Y46417500D03*
%TD*%
D12*
%TO.P,Q5,1,G*%
%TO.N,Net-(Q5-Pad1)*%
X68700500Y35136000D03*
D13*
%TO.P,Q5,2,D*%
%TO.N,Net-(D5-Pad1)*%
X71240500Y35136000D03*
%TO.P,Q5,3,S*%
%TO.N,GND*%
X73780500Y35136000D03*
%TD*%
D14*
%TO.P,R2,1*%
%TO.N,D1*%
X34036000Y12065000D03*
%TO.P,R2,2*%
%TO.N,VCC*%
X34036000Y17145000D03*
%TD*%
%TO.P,J3,1,Pin_1*%
%TO.N,Net-(A2-Pad3)*%
X3556000Y36185000D03*
%TO.P,J3,2,Pin_2*%
%TO.N,Net-(A2-Pad4)*%
X3556000Y33645000D03*
%TO.P,J3,3,Pin_3*%
%TO.N,Net-(A2-Pad5)*%
X3556000Y31105000D03*
%TO.P,J3,4,Pin_4*%
%TO.N,Net-(A2-Pad6)*%
X3556000Y28565000D03*
%TD*%
D10*
%TO.P,J7,1,Pin_1*%
%TO.N,Net-(J6-Pad1)*%
X70040500Y6858000D03*
D11*
%TO.P,J7,2,Pin_2*%
%TO.N,Net-(J6-Pad2)*%
X70040500Y4318000D03*
%TD*%
D14*
%TO.P,A3,16,DIR*%
%TO.N,Net-(A3-Pad16)*%
X22489000Y21463000D03*
%TO.P,A3,15,STEP*%
%TO.N,Net-(A2-Pad15)*%
X22489000Y18923000D03*
%TO.P,A3,14,~{SLEEP}*%
%TO.N,Net-(A3-Pad13)*%
X22489000Y16383000D03*
%TO.P,A3,13,~{RESET}*%
X22489000Y13843000D03*
%TO.P,A3,12,MS3*%
%TO.N,unconnected-(A3-Pad12)*%
X22489000Y11303000D03*
%TO.P,A3,11,MS2*%
%TO.N,unconnected-(A3-Pad11)*%
X22489000Y8763000D03*
%TO.P,A3,10,MS1*%
%TO.N,unconnected-(A3-Pad10)*%
X22489000Y6223000D03*
%TO.P,A3,9,~{ENABLE}*%
%TO.N,GND*%
X22489000Y3683000D03*
%TO.P,A3,8,VMOT*%
%TO.N,+24V*%
X9789000Y3683000D03*
%TO.P,A3,7,GND*%
%TO.N,GND*%
X9789000Y6223000D03*
%TO.P,A3,6,2B*%
%TO.N,Net-(A3-Pad6)*%
X9789000Y8763000D03*
%TO.P,A3,5,2A*%
%TO.N,Net-(A3-Pad5)*%
X9789000Y11303000D03*
%TO.P,A3,4,1A*%
%TO.N,Net-(A3-Pad4)*%
X9789000Y13843000D03*
%TO.P,A3,3,1B*%
%TO.N,Net-(A3-Pad3)*%
X9789000Y16383000D03*
%TO.P,A3,2,VDD*%
%TO.N,VCC*%
X9789000Y18923000D03*
%TO.P,A3,1,GND*%
%TO.N,GND*%
X9789000Y21463000D03*
%TD*%
D12*
%TO.P,Q6,1,G*%
%TO.N,Net-(Q6-Pad1)*%
X68700500Y23854500D03*
D13*
%TO.P,Q6,2,D*%
%TO.N,Net-(J5-Pad1)*%
X71240500Y23854500D03*
%TO.P,Q6,3,S*%
%TO.N,GND*%
X73780500Y23854500D03*
%TD*%
D18*
%TO.P,J8,1,Pin_1*%
%TO.N,+24V*%
X83820000Y14605000D03*
D19*
%TO.P,J8,2,Pin_2*%
%TO.N,GND*%
X83820000Y19685000D03*
%TD*%
D20*
%TO.P,U3,1,IN1*%
%TO.N,Net-(U2-Pad6)*%
X59264000Y40005000D03*
D21*
%TO.P,U3,2,IN2*%
%TO.N,Net-(U2-Pad7)*%
X59264000Y42545000D03*
%TO.P,U3,3,OUT1*%
%TO.N,Net-(J6-Pad1)*%
X59264000Y45085000D03*
%TO.P,U3,4,GND*%
%TO.N,GND*%
X59264000Y47625000D03*
%TO.P,U3,5,OUT2*%
%TO.N,Net-(J6-Pad2)*%
X59264000Y50165000D03*
%TO.P,U3,6,N.C.*%
%TO.N,unconnected-(U3-Pad6)*%
X59264000Y52705000D03*
%TO.P,U3,7,VM*%
%TO.N,+24V*%
X59264000Y55245000D03*
%TD*%
D10*
%TO.P,J6,1,Pin_1*%
%TO.N,Net-(J6-Pad1)*%
X63881000Y6858000D03*
D11*
%TO.P,J6,2,Pin_2*%
%TO.N,Net-(J6-Pad2)*%
X63881000Y4318000D03*
%TD*%
D14*
%TO.P,R4,1*%
%TO.N,D3*%
X47371000Y12065000D03*
%TO.P,R4,2*%
%TO.N,VCC*%
X47371000Y17145000D03*
%TD*%
D10*
%TO.P,SW3,1,1*%
%TO.N,D2*%
X39243000Y6858000D03*
D11*
%TO.P,SW3,2,2*%
%TO.N,GND*%
X39243000Y4318000D03*
%TD*%
D10*
%TO.P,SW4,1,1*%
%TO.N,D3*%
X45085000Y6858000D03*
D11*
%TO.P,SW4,2,2*%
%TO.N,GND*%
X45085000Y4318000D03*
%TD*%
D22*
%TO.P,A4,1,D1/TX*%
%TO.N,unconnected-(A4-Pad1)*%
X44948000Y40767000D03*
D14*
%TO.P,A4,2,D0/RX*%
%TO.N,unconnected-(A4-Pad2)*%
X44948000Y43307000D03*
%TO.P,A4,3,~{RESET}*%
%TO.N,unconnected-(A4-Pad3)*%
X44948000Y45847000D03*
%TO.P,A4,4,GND*%
%TO.N,GND*%
X44948000Y48387000D03*
%TO.P,A4,5,D2*%
%TO.N,Net-(A4-Pad5)*%
X44948000Y50927000D03*
%TO.P,A4,6,D3*%
%TO.N,Net-(A4-Pad6)*%
X44948000Y53467000D03*
%TO.P,A4,7,D4*%
%TO.N,Net-(A4-Pad7)*%
X44948000Y56007000D03*
%TO.P,A4,8,D5*%
%TO.N,Net-(A4-Pad8)*%
X44948000Y58547000D03*
%TO.P,A4,9,D6*%
%TO.N,Net-(A4-Pad9)*%
X44948000Y61087000D03*
%TO.P,A4,10,D7*%
%TO.N,Net-(A4-Pad10)*%
X44948000Y63627000D03*
%TO.P,A4,11,D8*%
%TO.N,Net-(A4-Pad11)*%
X44948000Y66167000D03*
%TO.P,A4,12,D9*%
%TO.N,Net-(A2-Pad16)*%
X44948000Y68707000D03*
%TO.P,A4,13,D10*%
%TO.N,Net-(A2-Pad15)*%
X44948000Y71247000D03*
%TO.P,A4,14,D11*%
%TO.N,Net-(A1-Pad16)*%
X44948000Y73787000D03*
%TO.P,A4,15,D12*%
%TO.N,Net-(A1-Pad15)*%
X44948000Y76327000D03*
%TO.P,A4,16,D13*%
%TO.N,Net-(A1-Pad9)*%
X29708000Y76327000D03*
%TO.P,A4,17,3V3*%
%TO.N,unconnected-(A4-Pad17)*%
X29708000Y73787000D03*
%TO.P,A4,18,AREF*%
%TO.N,unconnected-(A4-Pad18)*%
X29708000Y71247000D03*
%TO.P,A4,19,A0*%
%TO.N,unconnected-(A4-Pad19)*%
X29708000Y68707000D03*
%TO.P,A4,20,A1*%
%TO.N,unconnected-(A4-Pad20)*%
X29708000Y66167000D03*
%TO.P,A4,21,A2*%
%TO.N,unconnected-(A4-Pad21)*%
X29708000Y63627000D03*
%TO.P,A4,22,A3*%
%TO.N,unconnected-(A4-Pad22)*%
X29708000Y61087000D03*
%TO.P,A4,23,A4*%
%TO.N,unconnected-(A4-Pad23)*%
X29708000Y58547000D03*
%TO.P,A4,24,A5*%
%TO.N,unconnected-(A4-Pad24)*%
X29708000Y56007000D03*
%TO.P,A4,25,A6*%
%TO.N,unconnected-(A4-Pad25)*%
X29708000Y53467000D03*
%TO.P,A4,26,A7*%
%TO.N,unconnected-(A4-Pad26)*%
X29708000Y50927000D03*
%TO.P,A4,27,+5V*%
%TO.N,VCC*%
X29708000Y48387000D03*
%TO.P,A4,28,~{RESET}*%
%TO.N,unconnected-(A4-Pad28)*%
X29708000Y45847000D03*
%TO.P,A4,29,GND*%
%TO.N,GND*%
X29708000Y43307000D03*
%TO.P,A4,30,VIN*%
%TO.N,unconnected-(A4-Pad30)*%
X29708000Y40767000D03*
%TD*%
%TO.P,J4,1,Pin_1*%
%TO.N,Net-(A3-Pad3)*%
X3556000Y19040000D03*
%TO.P,J4,2,Pin_2*%
%TO.N,Net-(A3-Pad4)*%
X3556000Y16500000D03*
%TO.P,J4,3,Pin_3*%
%TO.N,Net-(A3-Pad5)*%
X3556000Y13960000D03*
%TO.P,J4,4,Pin_4*%
%TO.N,Net-(A3-Pad6)*%
X3556000Y11420000D03*
%TD*%
D10*
%TO.P,M1,1,+*%
%TO.N,+24V*%
X76200000Y6863000D03*
D11*
%TO.P,M1,2,-*%
%TO.N,Net-(M1-Pad2)*%
X76200000Y4323000D03*
%TD*%
D14*
%TO.P,J1,4,Pin_4*%
%TO.N,Net-(A1-Pad6)*%
X3556000Y62855000D03*
%TO.P,J1,3,Pin_3*%
%TO.N,Net-(A1-Pad5)*%
X3556000Y65395000D03*
%TO.P,J1,2,Pin_2*%
%TO.N,Net-(A1-Pad4)*%
X3556000Y67935000D03*
%TO.P,J1,1,Pin_1*%
%TO.N,Net-(A1-Pad3)*%
X3556000Y70475000D03*
%TD*%
D23*
%TO.P,R6,2*%
%TO.N,VCC*%
X60579000Y17145000D03*
%TO.P,R6,1*%
%TO.N,D5*%
X60579000Y12065000D03*
%TD*%
D12*
%TO.P,Q7,1,G*%
%TO.N,Net-(A4-Pad5)*%
X68580000Y12573000D03*
D13*
%TO.P,Q7,2,D*%
%TO.N,Net-(M1-Pad2)*%
X71120000Y12573000D03*
%TO.P,Q7,3,S*%
%TO.N,GND*%
X73660000Y12573000D03*
%TD*%
D10*
%TO.P,SW6,1,1*%
%TO.N,D5*%
X57785000Y6858000D03*
D11*
%TO.P,SW6,2,2*%
%TO.N,GND*%
X57785000Y4318000D03*
%TD*%
D24*
%TO.N,Net-(J6-Pad2)*%
X62694500Y31979300D03*
%TO.N,Net-(A4-Pad10)*%
X54780100Y47928400D03*
%TO.N,Net-(Q6-Pad1)*%
X57367900Y79659400D03*
X56123100Y75905100D03*
%TO.N,Net-(Q5-Pad1)*%
X68771800Y49377100D03*
%TO.N,Net-(U2-Pad7)*%
X47957600Y63829500D03*
%TO.N,Net-(U2-Pad6)*%
X52133700Y60289200D03*
%TO.N,Net-(A1-Pad6)*%
X2850500Y57956900D03*
%TO.N,Net-(A1-Pad5)*%
X5256300Y48250000D03*
%TO.N,+24V*%
X10007300Y55206000D03*
%TD*%
D25*
%TO.N,Net-(Q5-Pad1)*%
X66675000Y47280300D02*
X68771800Y49377100D01*
X66675000Y38791800D02*
X66675000Y47280300D01*
X68700500Y36766300D02*
X66675000Y38791800D01*
X68700500Y35136000D02*
X68700500Y36766300D01*
%TO.N,VCC*%
X60183000Y26993300D02*
X60183000Y25293000D01*
X64770000Y31580300D02*
X60183000Y26993300D01*
X64770000Y47073900D02*
X64770000Y31580300D01*
X86420500Y52052900D02*
X85471800Y51104200D01*
X86420500Y72949400D02*
X86420500Y52052900D01*
X78109800Y81260100D02*
X86420500Y72949400D01*
X61844100Y81260100D02*
X78109800Y81260100D01*
X61595000Y81011000D02*
X61844100Y81260100D01*
X68800300Y51104200D02*
X64770000Y47073900D01*
X59797000Y81011000D02*
X61595000Y81011000D01*
X85471800Y51104200D02*
X68800300Y51104200D01*
%TO.N,GND*%
X65589500Y22098000D02*
X67058200Y23566700D01*
X60838000Y22098000D02*
X65589500Y22098000D01*
X57643000Y25293000D02*
X60838000Y22098000D01*
%TO.N,Net-(A4-Pad10)*%
X58278000Y68311000D02*
X59797000Y68311000D01*
X57150000Y67183000D02*
X58278000Y68311000D01*
X57150000Y50298300D02*
X57150000Y67183000D01*
X54780100Y47928400D02*
X57150000Y50298300D01*
%TO.N,Net-(A4-Pad9)*%
X45350500Y61489500D02*
X44948000Y61087000D01*
X52839664Y61489500D02*
X45350500Y61489500D01*
X55880000Y64529836D02*
X52839664Y61489500D01*
X59797000Y70851000D02*
X57643000Y70851000D01*
X57643000Y70851000D02*
X55880000Y69088000D01*
X55880000Y69088000D02*
X55880000Y64529836D01*
%TO.N,GND*%
X57643000Y73391000D02*
X59797000Y73391000D01*
X54610000Y70358000D02*
X57643000Y73391000D01*
X54610000Y65664000D02*
X54610000Y70358000D01*
X52177000Y63231000D02*
X54610000Y65664000D01*
%TO.N,Net-(Q6-Pad1)*%
X57367900Y80727500D02*
X57367900Y79659400D01*
X86162001Y83058000D02*
X59698400Y83058000D01*
X83534601Y77532999D02*
X88654000Y77532999D01*
X87657200Y73410400D02*
X83534601Y77532999D01*
X88654000Y77532999D02*
X88654000Y80566001D01*
X87657200Y36712300D02*
X87657200Y73410400D01*
X84848800Y33903900D02*
X87657200Y36712300D01*
X88654000Y80566001D02*
X86162001Y83058000D01*
X78749900Y33903900D02*
X84848800Y33903900D01*
X59698400Y83058000D02*
X57367900Y80727500D01*
X68700500Y23854500D02*
X78749900Y33903900D01*
%TO.N,Net-(A4-Pad11)*%
X56167600Y81500400D02*
X56167600Y78060100D01*
X49530000Y82423000D02*
X50165000Y83058000D01*
X54610000Y83058000D02*
X56167600Y81500400D01*
X56167600Y78060100D02*
X58296700Y75931000D01*
X58296700Y75931000D02*
X59797000Y75931000D01*
X49530000Y70749000D02*
X49530000Y82423000D01*
X50165000Y83058000D02*
X54610000Y83058000D01*
X44948000Y66167000D02*
X49530000Y70749000D01*
%TO.N,D1*%
X39920800Y13843000D02*
X35814000Y13843000D01*
X46905800Y20828000D02*
X39920800Y13843000D01*
X49530000Y20828000D02*
X46905800Y20828000D01*
X50023000Y21321000D02*
X49530000Y20828000D01*
X35814000Y13843000D02*
X34036000Y12065000D01*
X50023000Y25293000D02*
X50023000Y21321000D01*
%TO.N,D0*%
X39201400Y19866100D02*
X31400300Y12065000D01*
X31400300Y12065000D02*
X27178000Y12065000D01*
X42853100Y19866100D02*
X39201400Y19866100D01*
X47483000Y25293000D02*
X47483000Y24496000D01*
X47483000Y24496000D02*
X42853100Y19866100D01*
%TO.N,Net-(J6-Pad2)*%
X62694500Y46734500D02*
X62694500Y31979300D01*
X59264000Y50165000D02*
X62694500Y46734500D01*
%TO.N,Net-(J6-Pad1)*%
X63881000Y6858000D02*
X70040500Y6858000D01*
%TO.N,Net-(A1-Pad15)*%
X44948000Y76327000D02*
X43247700Y76327000D01*
X22489000Y78613000D02*
X24189300Y78613000D01*
X40286500Y79288200D02*
X43247700Y76327000D01*
X24864500Y79288200D02*
X40286500Y79288200D01*
X24189300Y78613000D02*
X24864500Y79288200D01*
%TO.N,Net-(D2-Pad1)*%
X76733400Y63487600D02*
X84836000Y63487600D01*
X71240500Y68980500D02*
X76733400Y63487600D01*
%TO.N,Net-(D3-Pad1)*%
X73734300Y55205200D02*
X84836000Y55205200D01*
X71240500Y57699000D02*
X73734300Y55205200D01*
%TO.N,Net-(D4-Pad1)*%
X82090100Y48118400D02*
X83285700Y46922800D01*
X72941400Y48118400D02*
X82090100Y48118400D01*
X71240500Y46417500D02*
X72941400Y48118400D01*
X84836000Y46922800D02*
X83285700Y46922800D01*
%TO.N,Net-(A3-Pad6)*%
X7913300Y8763000D02*
X9789000Y8763000D01*
X5256300Y11420000D02*
X7913300Y8763000D01*
X3556000Y11420000D02*
X5256300Y11420000D01*
%TO.N,Net-(A3-Pad4)*%
X5431700Y16500000D02*
X8088700Y13843000D01*
X3556000Y16500000D02*
X5431700Y16500000D01*
X9789000Y13843000D02*
X8088700Y13843000D01*
%TO.N,Net-(Q1-Pad1)*%
X66168200Y78471000D02*
X67324200Y79627000D01*
X59797000Y78471000D02*
X66168200Y78471000D01*
X68954500Y79627000D02*
X67324200Y79627000D01*
%TO.N,Net-(Q6-Pad1)*%
X56123100Y74797100D02*
X52177000Y70851000D01*
X56123100Y75905100D02*
X56123100Y74797100D01*
%TO.N,Net-(Q8-Pad3)*%
X35433000Y29419700D02*
X32175300Y26162000D01*
X35433000Y32258000D02*
X35433000Y29419700D01*
X30475000Y26162000D02*
X32175300Y26162000D01*
%TO.N,Net-(A2-Pad16)*%
X24707600Y55226900D02*
X22489000Y53008300D01*
X24707600Y73797100D02*
X24707600Y55226900D01*
X28940700Y78030200D02*
X24707600Y73797100D01*
X33924500Y78030200D02*
X28940700Y78030200D01*
X43247700Y68707000D02*
X33924500Y78030200D01*
X44948000Y68707000D02*
X43247700Y68707000D01*
X22489000Y51308000D02*
X22489000Y53008300D01*
%TO.N,Net-(A3-Pad16)*%
X29464000Y21463000D02*
X30353000Y22352000D01*
X22489000Y21463000D02*
X29464000Y21463000D01*
%TO.N,Net-(U2-Pad7)*%
X49899100Y65771000D02*
X52177000Y65771000D01*
X47957600Y63829500D02*
X49899100Y65771000D01*
%TO.N,Net-(U2-Pad6)*%
X52133700Y45855000D02*
X52133700Y60289200D01*
X57983700Y40005000D02*
X52133700Y45855000D01*
X59264000Y40005000D02*
X57983700Y40005000D01*
%TO.N,Net-(D5-Pad1)*%
X74744900Y38640400D02*
X84836000Y38640400D01*
X71240500Y35136000D02*
X74744900Y38640400D01*
%TO.N,Net-(A2-Pad3)*%
X3556000Y39995000D02*
X9789000Y46228000D01*
X3556000Y36185000D02*
X3556000Y39995000D01*
%TO.N,Net-(A1-Pad6)*%
X3556000Y58662400D02*
X2850500Y57956900D01*
X3556000Y62855000D02*
X3556000Y58662400D01*
X7995600Y66659600D02*
X9789000Y68453000D01*
X7995600Y65594300D02*
X7995600Y66659600D01*
X5256300Y62855000D02*
X7995600Y65594300D01*
X3556000Y62855000D02*
X5256300Y62855000D01*
%TO.N,Net-(A1-Pad5)*%
X5256300Y66460300D02*
X9789000Y70993000D01*
X5256300Y65395000D02*
X5256300Y66460300D01*
X3556000Y65395000D02*
X5256300Y65395000D01*
X3556000Y48250000D02*
X5256300Y48250000D01*
%TO.N,Net-(A1-Pad3)*%
X3556000Y53330000D02*
X3556000Y55030300D01*
X1650200Y56936100D02*
X3556000Y55030300D01*
X1650200Y68569200D02*
X1650200Y56936100D01*
X3556000Y70475000D02*
X1650200Y68569200D01*
%TO.N,Net-(J5-Pad1)*%
X77744000Y30358000D02*
X84836000Y30358000D01*
X71240500Y23854500D02*
X77744000Y30358000D01*
%TO.N,Net-(A4-Pad7)*%
X46648400Y45407900D02*
X57643000Y34413300D01*
X46648400Y54306600D02*
X46648400Y45407900D01*
X44948000Y56007000D02*
X46648400Y54306600D01*
X57643000Y32913000D02*
X57643000Y34413300D01*
%TO.N,Net-(A4-Pad8)*%
X60183000Y32913000D02*
X60183000Y34413300D01*
X47848700Y55646300D02*
X44948000Y58547000D01*
X47848700Y46747600D02*
X47848700Y55646300D01*
X60183000Y34413300D02*
X47848700Y46747600D01*
%TO.N,VCC*%
X60579000Y17145000D02*
X53975000Y17145000D01*
X33913400Y23871600D02*
X35433000Y22352000D01*
X16437900Y23871600D02*
X33913400Y23871600D01*
X11489300Y18923000D02*
X16437900Y23871600D01*
X9789000Y18923000D02*
X11489300Y18923000D01*
X34036000Y20955000D02*
X35433000Y22352000D01*
X34036000Y17145000D02*
X34036000Y20955000D01*
X40767000Y12055000D02*
X42467300Y12055000D01*
X47371000Y17145000D02*
X53975000Y17145000D01*
X45857000Y15444700D02*
X42467300Y12055000D01*
X47371000Y15444700D02*
X45857000Y15444700D01*
X47371000Y17145000D02*
X47371000Y15444700D01*
X34036000Y17145000D02*
X27178000Y17145000D01*
X39052800Y10340800D02*
X40767000Y12055000D01*
X26469800Y10340800D02*
X39052800Y10340800D01*
X25440100Y11370500D02*
X26469800Y10340800D01*
X25440100Y13706800D02*
X25440100Y11370500D01*
X27178000Y15444700D02*
X25440100Y13706800D01*
X27178000Y17145000D02*
X27178000Y15444700D01*
%TO.N,GND*%
X44948000Y48387000D02*
X43247700Y48387000D01*
X26924000Y4318000D02*
X25373700Y4318000D01*
X39243000Y4318000D02*
X33083500Y4318000D01*
X33083500Y4318000D02*
X26924000Y4318000D01*
X74034500Y78055500D02*
X69370000Y73391000D01*
X74034500Y79627000D02*
X74034500Y78055500D01*
X59797000Y73391000D02*
X69370000Y73391000D01*
X69370000Y73391000D02*
X73780500Y68980500D01*
X39243000Y4318000D02*
X45085000Y4318000D01*
X45085000Y4318000D02*
X51562000Y4318000D01*
X51562000Y4318000D02*
X57785000Y4318000D01*
X67058200Y22643600D02*
X67058200Y23566700D01*
X67477700Y22224100D02*
X67058200Y22643600D01*
X72150100Y22224100D02*
X67477700Y22224100D01*
X73780500Y23854500D02*
X72150100Y22224100D01*
X67058200Y28413700D02*
X73780500Y35136000D01*
X67058200Y23566700D02*
X67058200Y28413700D01*
X83820000Y19685000D02*
X77950000Y19685000D01*
X77950000Y19685000D02*
X73780500Y23854500D01*
X73660000Y15395000D02*
X77950000Y19685000D01*
X73660000Y12573000D02*
X73660000Y15395000D01*
X36488300Y48387000D02*
X31408300Y43307000D01*
X43247700Y48387000D02*
X36488300Y48387000D01*
X24738700Y3683000D02*
X22489000Y3683000D01*
X25373700Y4318000D02*
X24738700Y3683000D01*
X18248700Y6223000D02*
X9789000Y6223000D01*
X20788700Y3683000D02*
X18248700Y6223000D01*
X22489000Y3683000D02*
X20788700Y3683000D01*
X11492200Y49604800D02*
X9789000Y51308000D01*
X11492200Y37771200D02*
X11492200Y49604800D01*
X9789000Y36068000D02*
X11492200Y37771200D01*
X28774700Y28942600D02*
X28774700Y28702000D01*
X24189300Y33528000D02*
X28774700Y28942600D01*
X22489000Y33528000D02*
X24189300Y33528000D01*
X30475000Y28702000D02*
X28774700Y28702000D01*
X29708000Y43307000D02*
X31108200Y43307000D01*
X31108200Y43307000D02*
X31408300Y43307000D01*
X24882900Y33528000D02*
X24189300Y33528000D01*
X31408300Y40053400D02*
X24882900Y33528000D01*
X31408300Y43307000D02*
X31408300Y40053400D01*
%TO.N,+24V*%
X86069900Y25033800D02*
X84836000Y26267700D01*
X86069900Y18780200D02*
X86069900Y25033800D01*
X84095000Y16805300D02*
X86069900Y18780200D01*
X83820000Y16805300D02*
X84095000Y16805300D01*
X83820000Y14605000D02*
X83820000Y16805300D01*
X84836000Y27818000D02*
X84836000Y26267700D01*
X9789000Y3683000D02*
X11489300Y3683000D01*
X76200000Y6863000D02*
X74649700Y6863000D01*
X12695300Y52518000D02*
X10007300Y55206000D01*
X12695300Y36434300D02*
X12695300Y52518000D01*
X9789000Y33528000D02*
X12695300Y36434300D01*
X74649700Y6669200D02*
X74649700Y6863000D01*
X69960100Y1979600D02*
X74649700Y6669200D01*
X13192700Y1979600D02*
X69960100Y1979600D01*
X11489300Y3683000D02*
X13192700Y1979600D01*
X61843800Y52665200D02*
X59264000Y55245000D01*
X84836000Y52665200D02*
X61843800Y52665200D01*
%TD*%
M02*
