M48
; DRILL file {KiCad (6.0.6-0)} date 
; FORMAT={2:4/ absolute / inch / keep zeros}
; #@! TF.CreationDate,2022-11-07T16:26:28+09:00
; #@! TF.GenerationSoftware,Kicad,Pcbnew,(6.0.6-0)
; #@! TF.FileFunction,MixedPlating,1,2
FMAT,2
INCH
; #@! TA.AperFunction,Plated,PTH,ComponentDrill
T1C0.0256
; #@! TA.AperFunction,Plated,PTH,ComponentDrill
T2C0.0295
; #@! TA.AperFunction,Plated,PTH,ComponentDrill
T3C0.0299
; #@! TA.AperFunction,Plated,PTH,ComponentDrill
T4C0.0315
; #@! TA.AperFunction,Plated,PTH,ComponentDrill
T5C0.0394
; #@! TA.AperFunction,Plated,PTH,ComponentDrill
T6C0.0488
; #@! TA.AperFunction,Plated,PTH,ComponentDrill
T7C0.0598
; #@! TA.AperFunction,NonPlated,NPTH,ComponentDrill
T8C0.1260
%
G90
G05
T1
X069550Y-040294
X069550Y-040794
X071975Y-040294
X071975Y-040794
X074400Y-040294
X074400Y-040794
X076825Y-040294
X076825Y-040794
X079250Y-040294
X079250Y-040794
X081675Y-040294
X081675Y-040794
X084100Y-040294
X084100Y-040794
X086525Y-040294
X086525Y-040794
X088950Y-040294
X088950Y-040794
X092050Y-013818
X092050Y-014318
X092050Y-017078
X092050Y-017578
X092050Y-020339
X092050Y-020839
X092050Y-023600
X092050Y-024100
X092050Y-026861
X092050Y-027361
X092050Y-030122
X092050Y-030622
T2
X070948Y-030750
X070948Y-031250
X070948Y-031750
T3
X082282Y-020300
X082282Y-021300
X082282Y-022300
X082282Y-023300
X082282Y-024300
X082282Y-025300
X082282Y-026300
T4
X062804Y-010100
X062804Y-011100
X062804Y-012100
X062804Y-013100
X062804Y-014100
X062804Y-015100
X062804Y-016100
X062804Y-017100
X062804Y-021850
X062804Y-022850
X062804Y-023850
X062804Y-024850
X062804Y-025850
X062804Y-026850
X062804Y-027850
X062804Y-028850
X062804Y-033600
X062804Y-034600
X062804Y-035600
X062804Y-036600
X062804Y-037600
X062804Y-038600
X062804Y-039600
X062804Y-040600
X067804Y-010100
X067804Y-011100
X067804Y-012100
X067804Y-013100
X067804Y-014100
X067804Y-015100
X067804Y-016100
X067804Y-017100
X067804Y-021850
X067804Y-022850
X067804Y-023850
X067804Y-024850
X067804Y-025850
X067804Y-026850
X067804Y-027850
X067804Y-028850
X067804Y-033600
X067804Y-034600
X067804Y-035600
X067804Y-036600
X067804Y-037600
X067804Y-038600
X067804Y-039600
X067804Y-040600
X069650Y-035300
X069650Y-037300
X070900Y-029350
X070900Y-033250
X072350Y-035300
X072350Y-037300
X072900Y-029350
X072900Y-033250
X075000Y-035304
X075000Y-037304
X075644Y-029092
X075644Y-033092
X076644Y-029092
X076644Y-033092
X077600Y-035300
X077600Y-037300
X077644Y-029092
X077644Y-033092
X078644Y-029092
X078644Y-033092
X079492Y-010156
X079492Y-011156
X079492Y-012156
X079492Y-013156
X079492Y-014156
X079492Y-015156
X079492Y-016156
X079492Y-017156
X079644Y-029092
X079644Y-033092
X080200Y-035300
X080200Y-037300
X080644Y-029092
X080644Y-033092
X081644Y-029092
X081644Y-033092
X082644Y-029092
X082644Y-033092
X082800Y-035300
X082800Y-037300
X083492Y-010156
X083492Y-011156
X083492Y-012156
X083492Y-013156
X083492Y-014156
X083492Y-015156
X083492Y-016156
X083492Y-017156
T5
X060200Y-014304
X060200Y-015304
X060200Y-016304
X060200Y-017304
X060200Y-019918
X060200Y-020918
X060200Y-021918
X060200Y-022918
X060200Y-025533
X060200Y-026533
X060200Y-027533
X060200Y-028533
X070646Y-012000
X070646Y-013000
X070646Y-014000
X070646Y-015000
X070646Y-016000
X070646Y-017000
X070646Y-018000
X070646Y-019000
X070646Y-020000
X070646Y-021000
X070646Y-022000
X070646Y-023000
X070646Y-024000
X070646Y-025000
X070646Y-026000
X076646Y-012000
X076646Y-013000
X076646Y-014000
X076646Y-015000
X076646Y-016000
X076646Y-017000
X076646Y-018000
X076646Y-019000
X076646Y-020000
X076646Y-021000
X076646Y-022000
X076646Y-023000
X076646Y-024000
X076646Y-025000
X076646Y-026000
T6
X085950Y-037100
X085997Y-014892
X085997Y-019334
X085997Y-023775
X085997Y-028217
X085997Y-032658
X086097Y-010701
X086950Y-037100
X086997Y-014892
X086997Y-019334
X086997Y-023775
X086997Y-028217
X086997Y-032658
X087097Y-010701
X087950Y-037100
X087997Y-014892
X087997Y-019334
X087997Y-023775
X087997Y-028217
X087997Y-032658
X088097Y-010701
T7
X091950Y-034300
X091950Y-036300
T8
X060550Y-010600
X060700Y-040350
X092000Y-040350
X092200Y-010600
T0
M30
