M48
; DRILL file {KiCad (6.0.6-0)} date 
; FORMAT={-:-/ absolute / metric / decimal}
; #@! TF.CreationDate,2022-11-09T17:59:08+09:00
; #@! TF.GenerationSoftware,Kicad,Pcbnew,(6.0.6-0)
; #@! TF.FileFunction,MixedPlating,1,2
FMAT,2
METRIC
; #@! TA.AperFunction,Plated,PTH,ViaDrill
T1C0.400
; #@! TA.AperFunction,Plated,PTH,ComponentDrill
T2C0.650
; #@! TA.AperFunction,Plated,PTH,ComponentDrill
T3C0.750
; #@! TA.AperFunction,Plated,PTH,ComponentDrill
T4C0.760
; #@! TA.AperFunction,Plated,PTH,ComponentDrill
T5C0.800
; #@! TA.AperFunction,Plated,PTH,ComponentDrill
T6C1.000
; #@! TA.AperFunction,Plated,PTH,ComponentDrill
T7C1.240
; #@! TA.AperFunction,Plated,PTH,ComponentDrill
T8C1.520
; #@! TA.AperFunction,NonPlated,NPTH,ComponentDrill
T9C3.200
%
G90
G05
T1
X165.227Y-70.231
X165.227Y-79.375
X165.227Y-101.981
X165.989Y-40.513
X166.243Y-30.607
X167.259Y-59.309
X167.513Y-89.789
X179.705Y-99.441
X186.309Y-38.989
X186.309Y-57.785
X186.309Y-99.187
X186.817Y-80.137
X191.657Y-55.23
X191.897Y-98.933
X198.247Y-32.131
X199.009Y-78.867
X200.279Y-97.917
X206.883Y-29.083
X210.57Y-38.114
X212.124Y-78.655
X217.043Y-42.799
X225.425Y-55.499
X228.219Y-93.345
T2
X176.657Y-102.347
X176.657Y-103.617
X182.816Y-102.347
X182.816Y-103.617
X188.976Y-102.347
X188.976Y-103.617
X195.135Y-102.347
X195.135Y-103.617
X201.295Y-102.347
X201.295Y-103.617
X207.454Y-102.347
X207.454Y-103.617
X213.614Y-102.347
X213.614Y-103.617
X219.773Y-102.347
X219.773Y-103.617
X225.933Y-102.347
X225.933Y-103.617
X234.569Y-35.037
X234.569Y-36.307
X234.569Y-43.319
X234.569Y-44.589
X234.569Y-51.602
X234.569Y-52.872
X234.569Y-59.884
X234.569Y-61.154
X234.569Y-68.167
X234.569Y-69.437
X234.569Y-76.449
X234.569Y-77.719
T3
X180.208Y-78.105
X180.208Y-79.375
X180.208Y-80.645
T4
X208.997Y-51.562
X208.997Y-54.102
X208.997Y-56.642
X208.997Y-59.182
X208.997Y-61.722
X208.997Y-64.262
X208.997Y-66.802
T5
X159.522Y-25.654
X159.522Y-28.194
X159.522Y-30.734
X159.522Y-33.274
X159.522Y-35.814
X159.522Y-38.354
X159.522Y-40.894
X159.522Y-43.434
X159.522Y-55.499
X159.522Y-58.039
X159.522Y-60.579
X159.522Y-63.119
X159.522Y-65.659
X159.522Y-68.199
X159.522Y-70.739
X159.522Y-73.279
X159.522Y-85.344
X159.522Y-87.884
X159.522Y-90.424
X159.522Y-92.964
X159.522Y-95.504
X159.522Y-98.044
X159.522Y-100.584
X159.522Y-103.124
X172.222Y-25.654
X172.222Y-28.194
X172.222Y-30.734
X172.222Y-33.274
X172.222Y-35.814
X172.222Y-38.354
X172.222Y-40.894
X172.222Y-43.434
X172.222Y-55.499
X172.222Y-58.039
X172.222Y-60.579
X172.222Y-63.119
X172.222Y-65.659
X172.222Y-68.199
X172.222Y-70.739
X172.222Y-73.279
X172.222Y-85.344
X172.222Y-87.884
X172.222Y-90.424
X172.222Y-92.964
X172.222Y-95.504
X172.222Y-98.044
X172.222Y-100.584
X172.222Y-103.124
X176.911Y-89.662
X176.911Y-94.742
X180.086Y-74.549
X180.086Y-84.455
X183.769Y-89.662
X183.769Y-94.742
X185.166Y-74.549
X185.166Y-84.455
X190.5Y-89.672
X190.5Y-94.752
X192.136Y-73.894
X192.136Y-84.054
X194.676Y-73.894
X194.676Y-84.054
X197.104Y-89.662
X197.104Y-94.742
X197.216Y-73.894
X197.216Y-84.054
X199.756Y-73.894
X199.756Y-84.054
X201.91Y-25.796
X201.91Y-28.336
X201.91Y-30.876
X201.91Y-33.416
X201.91Y-35.956
X201.91Y-38.496
X201.91Y-41.036
X201.91Y-43.576
X202.296Y-73.894
X202.296Y-84.054
X203.708Y-89.662
X203.708Y-94.742
X204.836Y-73.894
X204.836Y-84.054
X207.376Y-73.894
X207.376Y-84.054
X209.916Y-73.894
X209.916Y-84.054
X210.312Y-89.662
X210.312Y-94.742
X212.07Y-25.796
X212.07Y-28.336
X212.07Y-30.876
X212.07Y-33.416
X212.07Y-35.956
X212.07Y-38.496
X212.07Y-41.036
X212.07Y-43.576
T6
X153.289Y-36.332
X153.289Y-38.872
X153.289Y-41.412
X153.289Y-43.952
X153.289Y-53.477
X153.289Y-56.017
X153.289Y-58.557
X153.289Y-61.097
X153.289Y-70.622
X153.289Y-73.162
X153.289Y-75.702
X153.289Y-78.242
X153.289Y-87.767
X153.289Y-90.307
X153.289Y-92.847
X153.289Y-95.387
X179.441Y-30.48
X179.441Y-33.02
X179.441Y-35.56
X179.441Y-38.1
X179.441Y-40.64
X179.441Y-43.18
X179.441Y-45.72
X179.441Y-48.26
X179.441Y-50.8
X179.441Y-53.34
X179.441Y-55.88
X179.441Y-58.42
X179.441Y-60.96
X179.441Y-63.5
X179.441Y-66.04
X194.681Y-30.48
X194.681Y-33.02
X194.681Y-35.56
X194.681Y-38.1
X194.681Y-40.64
X194.681Y-43.18
X194.681Y-45.72
X194.681Y-48.26
X194.681Y-50.8
X194.681Y-53.34
X194.681Y-55.88
X194.681Y-58.42
X194.681Y-60.96
X194.681Y-63.5
X194.681Y-66.04
T7
X218.313Y-94.234
X218.433Y-37.826
X218.433Y-49.108
X218.433Y-60.389
X218.433Y-71.671
X218.433Y-82.953
X218.688Y-27.18
X220.853Y-94.234
X220.974Y-37.826
X220.974Y-49.108
X220.974Y-60.389
X220.974Y-71.671
X220.974Y-82.953
X221.227Y-27.18
X223.393Y-94.234
X223.513Y-37.826
X223.513Y-49.108
X223.513Y-60.389
X223.513Y-71.671
X223.513Y-82.953
X223.767Y-27.18
T8
X233.553Y-87.122
X233.553Y-92.202
T9
X153.797Y-26.924
X154.178Y-102.489
X233.68Y-102.489
X234.188Y-26.924
T0
M30
