M48
; DRILL file {KiCad (6.0.6)} date Sat Nov 12 19:18:52 2022
; FORMAT={-:-/ absolute / metric / decimal}
; #@! TF.CreationDate,2022-11-12T19:18:52+09:00
; #@! TF.GenerationSoftware,Kicad,Pcbnew,(6.0.6)
; #@! TF.FileFunction,MixedPlating,1,2
FMAT,2
METRIC
; #@! TA.AperFunction,Plated,PTH,ViaDrill
T1C0.400
; #@! TA.AperFunction,Plated,PTH,ComponentDrill
T2C0.750
; #@! TA.AperFunction,Plated,PTH,ComponentDrill
T3C0.760
; #@! TA.AperFunction,Plated,PTH,ComponentDrill
T4C0.800
; #@! TA.AperFunction,Plated,PTH,ComponentDrill
T5C1.000
; #@! TA.AperFunction,Plated,PTH,ComponentDrill
T6C1.240
; #@! TA.AperFunction,Plated,PTH,ComponentDrill
T7C1.520
; #@! TA.AperFunction,NonPlated,NPTH,ComponentDrill
T8C3.200
%
G90
G05
T1
X2.85Y57.957
X5.256Y48.25
X10.007Y55.206
X47.958Y63.829
X52.134Y60.289
X54.78Y47.928
X56.123Y75.905
X57.368Y79.659
X62.694Y31.979
X68.772Y49.377
T2
X30.475Y28.702
X30.475Y27.432
X30.475Y26.162
T3
X59.264Y55.245
X59.264Y52.705
X59.264Y50.165
X59.264Y47.625
X59.264Y45.085
X59.264Y42.545
X59.264Y40.005
T4
X3.556Y70.475
X3.556Y67.935
X3.556Y65.395
X3.556Y62.855
X3.556Y53.33
X3.556Y50.79
X3.556Y48.25
X3.556Y45.71
X3.556Y36.185
X3.556Y33.645
X3.556Y31.105
X3.556Y28.565
X3.556Y19.04
X3.556Y16.5
X3.556Y13.96
X3.556Y11.42
X9.789Y81.153
X9.789Y78.613
X9.789Y76.073
X9.789Y73.533
X9.789Y70.993
X9.789Y68.453
X9.789Y65.913
X9.789Y63.373
X9.789Y51.308
X9.789Y48.768
X9.789Y46.228
X9.789Y43.688
X9.789Y41.148
X9.789Y38.608
X9.789Y36.068
X9.789Y33.528
X9.789Y21.463
X9.789Y18.923
X9.789Y16.383
X9.789Y13.843
X9.789Y11.303
X9.789Y8.763
X9.789Y6.223
X9.789Y3.683
X22.489Y81.153
X22.489Y78.613
X22.489Y76.073
X22.489Y73.533
X22.489Y70.993
X22.489Y68.453
X22.489Y65.913
X22.489Y63.373
X22.489Y51.308
X22.489Y48.768
X22.489Y46.228
X22.489Y43.688
X22.489Y41.148
X22.489Y38.608
X22.489Y36.068
X22.489Y33.528
X22.489Y21.463
X22.489Y18.923
X22.489Y16.383
X22.489Y13.843
X22.489Y11.303
X22.489Y8.763
X22.489Y6.223
X22.489Y3.683
X27.178Y17.145
X27.178Y12.065
X30.353Y32.258
X30.353Y22.352
X34.036Y17.145
X34.036Y12.065
X35.433Y32.258
X35.433Y22.352
X40.767Y17.135
X40.767Y12.055
X42.403Y32.913
X42.403Y25.293
X44.943Y32.913
X44.943Y25.293
X47.371Y17.145
X47.371Y12.065
X47.483Y32.913
X47.483Y25.293
X50.023Y32.913
X50.023Y25.293
X52.177Y81.011
X52.177Y78.471
X52.177Y75.931
X52.177Y73.391
X52.177Y70.851
X52.177Y68.311
X52.177Y65.771
X52.177Y63.231
X52.563Y32.913
X52.563Y25.293
X53.975Y17.145
X53.975Y12.065
X55.103Y32.913
X55.103Y25.293
X57.643Y32.913
X57.643Y25.293
X59.797Y81.011
X59.797Y78.471
X59.797Y75.931
X59.797Y73.391
X59.797Y70.851
X59.797Y68.311
X59.797Y65.771
X59.797Y63.231
X60.183Y32.913
X60.183Y25.293
X60.579Y17.145
X60.579Y12.065
T5
X26.924Y6.858
X26.924Y4.318
X29.708Y76.327
X29.708Y73.787
X29.708Y71.247
X29.708Y68.707
X29.708Y66.167
X29.708Y63.627
X29.708Y61.087
X29.708Y58.547
X29.708Y56.007
X29.708Y53.467
X29.708Y50.927
X29.708Y48.387
X29.708Y45.847
X29.708Y43.307
X29.708Y40.767
X33.084Y6.858
X33.084Y4.318
X39.243Y6.858
X39.243Y4.318
X44.948Y76.327
X44.948Y73.787
X44.948Y71.247
X44.948Y68.707
X44.948Y66.167
X44.948Y63.627
X44.948Y61.087
X44.948Y58.547
X44.948Y56.007
X44.948Y53.467
X44.948Y50.927
X44.948Y48.387
X44.948Y45.847
X44.948Y43.307
X44.948Y40.767
X45.085Y6.858
X45.085Y4.318
X51.562Y6.858
X51.562Y4.318
X57.785Y6.858
X57.785Y4.318
X63.881Y6.858
X63.881Y4.318
X70.04Y6.858
X70.04Y4.318
X76.2Y6.863
X76.2Y4.323
X84.836Y71.77
X84.836Y69.23
X84.836Y63.488
X84.836Y60.948
X84.836Y55.205
X84.836Y52.665
X84.836Y46.923
X84.836Y44.383
X84.836Y38.64
X84.836Y36.1
X84.836Y30.358
X84.836Y27.818
T6
X68.58Y12.573
X68.7Y68.98
X68.7Y57.699
X68.7Y46.417
X68.7Y35.136
X68.7Y23.854
X68.954Y79.627
X71.12Y12.573
X71.24Y68.98
X71.24Y57.699
X71.24Y46.417
X71.24Y35.136
X71.24Y23.854
X71.495Y79.627
X73.66Y12.573
X73.781Y68.98
X73.781Y57.699
X73.781Y46.417
X73.781Y35.136
X73.781Y23.854
X74.034Y79.627
T7
X83.82Y19.685
X83.82Y14.605
T8
X4.064Y79.883
X4.445Y4.318
X83.947Y4.318
X84.455Y79.883
T0
M30
