M48
; DRILL file {KiCad (6.0.6-0)} date 
; FORMAT={-:-/ absolute / metric / decimal}
; #@! TF.CreationDate,2022-11-10T09:38:17+09:00
; #@! TF.GenerationSoftware,Kicad,Pcbnew,(6.0.6-0)
; #@! TF.FileFunction,MixedPlating,1,2
FMAT,2
METRIC
; #@! TA.AperFunction,Plated,PTH,ViaDrill
T1C0.400
; #@! TA.AperFunction,Plated,PTH,ComponentDrill
T2C0.650
; #@! TA.AperFunction,Plated,PTH,ComponentDrill
T3C0.750
; #@! TA.AperFunction,Plated,PTH,ComponentDrill
T4C0.760
; #@! TA.AperFunction,Plated,PTH,ComponentDrill
T5C0.800
; #@! TA.AperFunction,Plated,PTH,ComponentDrill
T6C1.000
; #@! TA.AperFunction,Plated,PTH,ComponentDrill
T7C1.240
; #@! TA.AperFunction,Plated,PTH,ComponentDrill
T8C1.520
; #@! TA.AperFunction,NonPlated,NPTH,ComponentDrill
T9C3.200
%
G90
G05
T1
X15.494Y36.576
X15.494Y27.432
X15.494Y4.826
X16.256Y66.294
X16.51Y76.2
X17.526Y47.498
X17.78Y17.018
X29.972Y7.366
X36.576Y67.818
X36.576Y49.022
X36.576Y7.62
X37.084Y26.67
X41.924Y51.577
X42.164Y7.874
X48.514Y74.676
X49.276Y27.94
X50.546Y8.89
X57.15Y77.724
X60.837Y68.693
X62.391Y28.152
X67.31Y64.008
X75.692Y51.308
X78.486Y13.462
T2
X26.924Y4.46
X26.924Y3.19
X33.084Y4.46
X33.084Y3.19
X39.243Y4.46
X39.243Y3.19
X45.402Y4.46
X45.402Y3.19
X51.562Y4.46
X51.562Y3.19
X57.721Y4.46
X57.721Y3.19
X63.881Y4.46
X63.881Y3.19
X70.04Y4.46
X70.04Y3.19
X76.2Y4.46
X76.2Y3.19
X84.836Y71.77
X84.836Y70.5
X84.836Y63.488
X84.836Y62.218
X84.836Y55.205
X84.836Y53.935
X84.836Y46.923
X84.836Y45.653
X84.836Y38.64
X84.836Y37.37
X84.836Y30.358
X84.836Y29.088
T3
X30.475Y28.702
X30.475Y27.432
X30.475Y26.162
T4
X59.264Y55.245
X59.264Y52.705
X59.264Y50.165
X59.264Y47.625
X59.264Y45.085
X59.264Y42.545
X59.264Y40.005
T5
X9.789Y81.153
X9.789Y78.613
X9.789Y76.073
X9.789Y73.533
X9.789Y70.993
X9.789Y68.453
X9.789Y65.913
X9.789Y63.373
X9.789Y51.308
X9.789Y48.768
X9.789Y46.228
X9.789Y43.688
X9.789Y41.148
X9.789Y38.608
X9.789Y36.068
X9.789Y33.528
X9.789Y21.463
X9.789Y18.923
X9.789Y16.383
X9.789Y13.843
X9.789Y11.303
X9.789Y8.763
X9.789Y6.223
X9.789Y3.683
X22.489Y81.153
X22.489Y78.613
X22.489Y76.073
X22.489Y73.533
X22.489Y70.993
X22.489Y68.453
X22.489Y65.913
X22.489Y63.373
X22.489Y51.308
X22.489Y48.768
X22.489Y46.228
X22.489Y43.688
X22.489Y41.148
X22.489Y38.608
X22.489Y36.068
X22.489Y33.528
X22.489Y21.463
X22.489Y18.923
X22.489Y16.383
X22.489Y13.843
X22.489Y11.303
X22.489Y8.763
X22.489Y6.223
X22.489Y3.683
X27.178Y17.145
X27.178Y12.065
X30.353Y32.258
X30.353Y22.352
X34.036Y17.145
X34.036Y12.065
X35.433Y32.258
X35.433Y22.352
X40.767Y17.135
X40.767Y12.055
X42.403Y32.913
X42.403Y22.753
X44.943Y32.913
X44.943Y22.753
X47.371Y17.145
X47.371Y12.065
X47.483Y32.913
X47.483Y22.753
X50.023Y32.913
X50.023Y22.753
X52.177Y81.011
X52.177Y78.471
X52.177Y75.931
X52.177Y73.391
X52.177Y70.851
X52.177Y68.311
X52.177Y65.771
X52.177Y63.231
X52.563Y32.913
X52.563Y22.753
X53.975Y17.145
X53.975Y12.065
X55.103Y32.913
X55.103Y22.753
X57.643Y32.913
X57.643Y22.753
X60.183Y32.913
X60.183Y22.753
X60.579Y17.145
X60.579Y12.065
X62.337Y81.011
X62.337Y78.471
X62.337Y75.931
X62.337Y73.391
X62.337Y70.851
X62.337Y68.311
X62.337Y65.771
X62.337Y63.231
T6
X3.556Y70.475
X3.556Y67.935
X3.556Y65.395
X3.556Y62.855
X3.556Y53.33
X3.556Y50.79
X3.556Y48.25
X3.556Y45.71
X3.556Y36.185
X3.556Y33.645
X3.556Y31.105
X3.556Y28.565
X3.556Y19.04
X3.556Y16.5
X3.556Y13.96
X3.556Y11.42
X29.708Y76.327
X29.708Y73.787
X29.708Y71.247
X29.708Y68.707
X29.708Y66.167
X29.708Y63.627
X29.708Y61.087
X29.708Y58.547
X29.708Y56.007
X29.708Y53.467
X29.708Y50.927
X29.708Y48.387
X29.708Y45.847
X29.708Y43.307
X29.708Y40.767
X44.948Y76.327
X44.948Y73.787
X44.948Y71.247
X44.948Y68.707
X44.948Y66.167
X44.948Y63.627
X44.948Y61.087
X44.948Y58.547
X44.948Y56.007
X44.948Y53.467
X44.948Y50.927
X44.948Y48.387
X44.948Y45.847
X44.948Y43.307
X44.948Y40.767
T7
X68.58Y12.573
X68.7Y68.98
X68.7Y57.699
X68.7Y46.417
X68.7Y35.136
X68.7Y23.854
X68.954Y79.627
X71.12Y12.573
X71.24Y68.98
X71.24Y57.699
X71.24Y46.417
X71.24Y35.136
X71.24Y23.854
X71.495Y79.627
X73.66Y12.573
X73.781Y68.98
X73.781Y57.699
X73.781Y46.417
X73.781Y35.136
X73.781Y23.854
X74.034Y79.627
T8
X83.82Y19.685
X83.82Y14.605
T9
X4.064Y79.883
X4.445Y4.318
X83.947Y4.318
X84.455Y79.883
T0
M30
